<?xml version="1.0" ?><svg height="3576px" preserveAspectRatio="none" viewBox="0 0 2184.1 3576" width="2184.1px" xmlns="http://www.w3.org/2000/svg" xmlns:xlink="http://www.w3.org/1999/xlink"><g id="s20-20" transform="translate(20, 20)"><g transform="translate(-34.89, -15.37)"><defs><linearGradient gradientUnits="userSpaceOnUse" id="uid_0" x1="485.89" x2="485.89" y1="1618.37" y2="15.37"><stop offset="0" stop-color="#d7ebff"/><stop offset=".01" stop-color="#cde2f6"/><stop offset=".05" stop-color="#a0b7cd"/><stop offset=".1" stop-color="#7992aa"/><stop offset=".15" stop-color="#59748e"/><stop offset=".2" stop-color="#405d78"/><stop offset=".25" stop-color="#2f4d68"/><stop offset=".31" stop-color="#24435f"/><stop offset=".38" stop-color="#21405c"/></linearGradient><style>.cl0 {
    fill: none;
    stroke: #2b608f;
    stroke-linecap: round;
    stroke-linejoin: round;
    stroke-width: 13px
    }
.cl1 {
    fill: #fff
    }</style></defs><path d="M34.89 15.37h902v1603h-902z" fill="url(#uid_0)" id="uid_1"/><g id="uid_2"><path class="cl0" d="M640.58 390.11S497.86 618.1 0 303.12M408.09 1159.57s45-30 142.5-36 270-37.49 322.48-94.49c28.93-22.5 67.5-64.5 67.5-64.5M723.08 1047.08s49.06-10.5 114-73.5M28.61 735.09s49.5 16.5 79.5 52.5M108.11 906.09s-43.5-57-115.5-94.5M733.58 322.61s24-34.49 28.49-72M320.29-8.87S562.58 154.36 804.07 0M108.11 250.62s-112.5-63-136.5-97.5" transform="translate(34.89 15.37)"/><path class="cl0" d="M804.46 126.49v15"/></g><g id="uid_3"><circle class="cl1" cx="741.89" cy="141.49" r="8.27"/><circle class="cl1" cx="891.89" cy="192.7" r="7.33"/><circle class="cl1" cx="763.89" cy="434.04" r="4.58"/><circle class="cl1" cx="866.55" cy="522.04" r="4.67"/><circle class="cl1" cx="467.89" cy="551.37" r="4.33"/><circle class="cl1" cx="111.89" cy="481.37" r="7"/><circle class="cl1" cx="50.39" cy="549.37" r="6"/><circle class="cl1" cx="174.89" cy="333.87" r="7.5"/><circle class="cl1" cx="201.89" cy="242.37" r="4.75"/><circle class="cl1" cx="195.89" cy="35.37" r="4.96"/><circle class="cl1" cx="212.89" cy="974.87" r="8"/><circle class="cl1" cx="70.89" cy="1047.87" r="6"/><circle class="cl1" cx="787.39" cy="945.37" r="3.25"/><circle class="cl1" cx="933.89" cy="1165.87" r="5.5"/><circle class="cl1" cx="858.89" cy="856.37" r="6"/><circle class="cl1" cx="873.89" cy="761.87" r="4"/></g></g></g><g id="s20-1643" transform="translate(20, 1643)"><g transform="translate(-0.0, -0.0)"><linearGradient gradientUnits="userSpaceOnUse" id="uid_4" x1="538.5" x2="538.5" y1="510" y2="1.123"><stop offset=".68" stop-color="#cdebff"/><stop offset=".789" stop-color="#bfdffa"/><stop offset=".964" stop-color="#accff3"/></linearGradient><path d="M0 17.5s49-7 94.5 13c0 0 121-81 241 26 0 0 21.5 1.5 32 6.5 0 0 55-35 118.5-8 0 0 115-52 170.5 70l5.5 3s15.5-18.5 52-24.5c0 0 79-114 217.5-73.5 0 0 65.5-12.5 105.5 25 0 0 19-11.5 40-9.5V510H0V17.5z" fill="url(#uid_4)"/><g><linearGradient gradientTransform="matrix(-1 0 0 1 1077 0)" gradientUnits="userSpaceOnUse" id="uid_5" x1="-528.941" x2="-528.941" y1="510" y2="1.123"><stop offset=".68" stop-color="#cdebff"/><stop offset=".789" stop-color="#bfdffa"/><stop offset=".964" stop-color="#accff3"/></linearGradient><path d="M2144.4 17.5s-49-7-94.5 13c0 0-121-81-241 26 0 0-21.5 1.5-32 6.5 0 0-55-35-118.5-8 0 0-115-52-170.5 70l-5.5 3s-15.5-18.5-52-24.5c0 0-79-114-217.5-73.5 0 0-65.5-12.5-105.5 25 0 0-19-11.5-40-9.5V510h1077V17.5z" fill="url(#uid_5)"/></g></g></g><g id="s20-2173" transform="translate(20, 2173)"><g transform="translate(-0.0, -0.0)"><defs><linearGradient gradientUnits="userSpaceOnUse" id="uid_6" x1="464.6" x2="470.58" y1="527.23" y2="1167.17"><stop offset=".43" stop-color="#fff"/><stop offset=".49" stop-color="#fafcff"/><stop offset=".56" stop-color="#ecf5ff"/><stop offset=".64" stop-color="#d5e8fe"/><stop offset=".72" stop-color="#b5d7fe"/><stop offset=".8" stop-color="#8bc1fd"/><stop offset=".81" stop-color="#86befd"/></linearGradient><style>.cl2, .cl3 {
    fill: none;
    stroke-linecap: round
    }
.cl3 {
    stroke: #000;
    stroke-miterlimit: 10
    }
.cl2 {
    stroke: #86befd;
    stroke-linejoin: round;
    stroke-width: 60px
    }
.cl4 {
    fill: #fff
    }
.cl3 {
    stroke-width: 14px
    }</style></defs><g id="uid_7"><path d="M223.52 92.66l508.67 512.35s27.14 28.18 45.81 11.51c17.66-15.76 14.67-40.66 8.67-60.66" fill="none" stroke="#000" stroke-linecap="round" stroke-miterlimit="10" stroke-width="44"/><path d="M189.77 593.78L756.24 97s-247.12-225.57-519.58 17.75c-217.97 239.51-46.89 479.03-46.89 479.03z" fill="#ffd43d" transform="translate(-3 -1.81)"/></g><path class="cl2" d="M586.58 1025.76l85.52 261.72 65.98-36.73" data-name="RIGHT LEG" id="uid_8"/><path class="cl2" d="M33 1117l48-35.27c124 178.6 265.6-4.66 265.6-4.66" data-name="LEFT LEG" id="uid_9" transform="translate(-3 -1.81)"/><path d="M285.22 767.16a199.35 199.35 0 01-4.13-40.5c0-109.63 88.87-198.5 198.51-198.5S678.1 617 678.1 726.66l-.18 8.49s118.65 31.44 109.65 149.93-101.48 136.49-101.48 136.49l-185 70.5s-149 51.57-220 20.53l65.5 11.08c-109.63 0-198.5-88.88-198.5-198.51S237 726.66 346.59 726.66" fill="url(#uid_6)" id="uid_10" transform="translate(-3 -1.81)"/><g data-name="LEFT ARM" id="uid_11"><path d="M683.09 763.83s113.55 18.29 134.8-72c8.69-55.49-64.65-72.33-64.65-72.33" fill="none" stroke="#fff" stroke-linecap="round" stroke-miterlimit="10" stroke-width="62"/><path class="cl4" d="M784.41 666s-9.84 6.65-28.17 0-50.64-15.55-46.24-47.82 27.76-35.88 37-38.53 42.72 1.33 61.32 29.23z" transform="translate(-3 -1.81)"/></g><g data-name="RIGHT ARM" id="uid_12"><path d="M69.11 610.28L270.1 790.27" fill="none" stroke="#fff" stroke-linecap="round" stroke-miterlimit="10" stroke-width="63"/><path class="cl4" d="M84.5 664a26.6 26.6 0 01-20-7C55 648.5 35 627 35 627s-24.5-23.5 4-55c32.5-27.5 64 9 64 9l19 20a28.17 28.17 0 016.5 22.61c-2 13.89-44 40.39-44 40.39z" transform="translate(-3 -1.81)"/></g><g id="uid_13"><path d="M427 727c-2.67-.67 112.67-12.67 175.33-46 0 0 12.67 76-66.66 103.33C451 801 427 727 427 727z" id="uid_14" transform="translate(-3 -1.81)"/><path d="M587.4 746.61S573 719 537 705a945.67 945.67 0 01-110 22s23.33 75.33 108.67 57.33c30.66-6 51.73-37.72 51.73-37.72z" fill="#eb6390" id="uid_15" transform="translate(-3 -1.81)"/><path class="cl3" d="M418 643.5s8.5 37.5 45 31c25.44-3.5 23-50.89 23-50.89M529 616.18s8 33.33 34 29.32c20-8.43 14.5-42.5 14.5-42.5" transform="translate(-3 -1.81)"/></g></g></g><g id="s20-3511" transform="translate(20, 3511)"><g transform="translate(-0.0, -0.0)"><rect fill="#FFF" fill-rule="evenodd" height="45" rx="21.5" width="200"/></g></g></svg>