<?xml version="1.0" ?><svg height="192px" preserveAspectRatio="none" viewBox="0 0 106.0 192" width="106.0px" xmlns="http://www.w3.org/2000/svg" xmlns:xlink="http://www.w3.org/1999/xlink"><g id="s20-20" transform="translate(20, 20)"><g transform="translate(-0.0, -0.0)"><g fill="none" fill-rule="evenodd"><circle cx="33" cy="33" fill="#72A1E7" r="33"/><g stroke="#FFF" stroke-linecap="round" stroke-linejoin="round" stroke-width="7"><path d="M19 19.4v9.8l9.4-.1"/><path d="M20.1 29.5c1.9-6 7.5-10.4 14-10.4C42.4 19.1 49 25.8 49 34s-6.6 14.9-14.7 14.9c-4.8 0-9-2.3-11.7-5.9"/></g></g></g></g><g id="s20-106" transform="translate(20, 106)"><g transform="translate(-0.0, -0.0)"><g fill="none" fill-rule="evenodd"><circle cx="33" cy="33" fill="#21405C" r="33"/><g stroke="#FFF" stroke-linecap="round" stroke-linejoin="round" stroke-width="7"><path d="M19 19.4v9.8l9.4-.1"/><path d="M20.1 29.5c1.9-6 7.5-10.4 14-10.4C42.4 19.1 49 25.8 49 34s-6.6 14.9-14.7 14.9c-4.8 0-9-2.3-11.7-5.9"/></g></g></g></g></svg>