<?xml version="1.0" ?><svg height="150px" preserveAspectRatio="none" viewBox="0 0 85.0 150" width="85.0px" xmlns="http://www.w3.org/2000/svg" xmlns:xlink="http://www.w3.org/1999/xlink"><g id="s20-20" transform="translate(20, 20)"><g transform="translate(-0.0, -0.0)"><g fill="none" fill-rule="evenodd"><rect fill="#72A1E7" height="45" rx="21.5" width="45"/><path d="M33.5 20c1 0 2 1 2 2.1 0 1.2-1 2.2-2 2.2H17.8l6.5 6.5a2.2 2.2 0 11-3.1 3l-10-10.2c-.9-.8-1-2.1-.1-3l10-10.4a2.2 2.2 0 013.2 3L17.7 20h15.8z" fill="#FFF" fill-rule="nonzero"/></g></g></g><g id="s20-85" transform="translate(20, 85)"><g transform="translate(-0.0, -0.0)"><g fill="none" fill-rule="evenodd"><rect fill="#21405C" height="45" rx="21.5" width="45"/><path d="M33.5 20c1 0 2 1 2 2.1 0 1.2-1 2.2-2 2.2H17.8l6.5 6.5a2.2 2.2 0 11-3.1 3l-10-10.2c-.9-.8-1-2.1-.1-3l10-10.4a2.2 2.2 0 013.2 3L17.7 20h15.8z" fill="#FFF" fill-rule="nonzero"/></g></g></g></svg>