<?xml version="1.0" ?><svg height="1175px" preserveAspectRatio="none" viewBox="0 0 130.4 1175" width="130.4px" xmlns="http://www.w3.org/2000/svg" xmlns:xlink="http://www.w3.org/1999/xlink"><g id="s20-20" transform="translate(20, 20)"><g transform="translate(-0.0, -0.0)"><style>.cl0 {
    fill: #ebebeb
    }</style><g id="uid_1"><g id="uid_2"><path d="M9.8 71.1l3.1-.8.4-.1c3.3-20.8 12.3-32.8 26.9-36.1-11 .5-21.3 5.6-28.5 13.9A39.7 39.7 0 00.9 75.5c.3-1.5 3.2-3 8.9-4.4z" fill="#0067d8"/><path d="M41.9 66.8h.5l1.2-.1 3.4-.1h.2c5.2-.2 10-.2 14.4-.1h.1l2.4.1 6.4.5c-6.4-19.5-16.5-30.5-30.3-33-14.6 3.3-23.6 15.4-26.9 36.1l3-.6c4.4-.8 9.2-1.5 14.5-2l2.6-.2 6.5-.5h.1l1.9-.1z" fill="#fed100"/><path d="M84.5 70.8l.1.2a40.6 40.6 0 00-13.7-26.2 40.4 40.4 0 00-30.3-10.7h-.5c13.8 2.5 23.9 13.5 30.3 33l1.5.1c7.6.8 11.7 2 12.6 3.6z" fill="#f80000"/><path d="M84.6 71.7V71l-.1-.2c-.8-1.6-5-2.8-12.5-3.6l-1.5-.2-6.4-.5-2.4-.1h-.1c-4.5-.2-9.3-.1-14.4.1H47l-3.4.1-1.2.1h-.5l-1.9.2-6.5.5-2.6.2c-5.3.5-10.2 1.2-14.5 2l-3 .6-.4.1-3.1.8c-5.7 1.4-8.7 2.9-9 4.4 1.2 2.1 5.4 3.6 12.6 4.3 9.9.9 19.8 1.1 29.7.4 9.9-.4 19.7-1.6 29.4-3.6 7.5-1.5 11.6-3.2 12-4.9M44 68.6l2.5-.1h.5c.2 4 3.6 7.1 7.6 7a7.6 7.6 0 006.8-6.9h.5l8.2.5c-.6 1.9-1.6 3.6-3 5a12.9 12.9 0 01-9.3 4.4h-.4a13 13 0 01-9.7-3.4 12 12 0 01-4-6.4l.3-.1m-10.8.9l6.1-.5h.5c-.4 2.6-1.6 4.9-3.4 6.8a13.4 13.4 0 01-9.4 4.3h-.4c-3.6.3-7.1-1-9.7-3.4a11.8 11.8 0 01-3.2-4.2l2.5-.5.5-.1a6.5 6.5 0 002.2 3.6 7 7 0 0010.1-.6 7 7 0 001.9-5.3l2.3-.1z"/><path class="cl0" d="M39.3 68.9l-6.1.5-2.5.3a7.5 7.5 0 01-6.8 7.8h-.2c-2 .1-3.9-.6-5.4-1.9a7 7 0 01-2.2-3.6l-2.4.5c.8 1.6 1.9 3.1 3.2 4.2a13 13 0 009.7 3.4h.4c3.4-.2 6.6-1.8 8.8-4.4 1.8-1.8 3-4.1 3.5-6.8m7.1-.3h-2.9c.6 2.5 2 4.8 4 6.4 1.1 1 2.4 1.8 3.7 2.4 1.9.8 3.9 1.1 6 1h.4c5.4-.5 10.1-4.2 11.8-9.4l-7.7-.5h-.5a7.7 7.7 0 01-6.8 6.9h-.2a7.4 7.4 0 01-7.8-7v.2z"/></g><path d="M40.4 29.2l-.5-9.5" fill="none" id="uid_3" stroke="#98a2ae" stroke-linecap="round" stroke-linejoin="round" stroke-width="8.2"/><g id="uid_4"><path class="cl0" d="M25.4 6.2l-.4-.3a10.1 10.1 0 00-2.7 5.1c-.4 1.9-.5 3.9-.2 5.8.1 2 .9 3.9 2.2 5.5 1.1 1 2 1.2 2.8.9.6-.5 1-1.1 1.1-1.8.7-2.1 1.2-4.4 1.5-6.6.2-3.1-.8-6.2-2.7-8.6h-1.6m13.5 5.1c-.1 1.4-.2 2.7-.1 4.1 0 1.5.2 3 .5 4.5a5.6 5.6 0 002.7 3.5c.4.3.7.4 1 .2l.6-.8a29.3 29.3 0 00-.3-17.1c-.5-1.1-1-1.7-1.5-1.7s-1.1.3-1.8 1.2c-1.7 2.3-2.2 4.4-1.5 6.1h.4M4.8 17.8a7.3 7.3 0 002.2 3 7.1 7.1 0 007 1.3l.5-.3c.1-.1.1-.3-.1-.5l.4-.1c-.5-1-.7-2.2-.6-3.4l.4-7.1c.2-1.9-.1-3.2-.9-3.8-.7-.8-1.8-1-2.7-.7L8.5 7.6c-2 1.6-3.4 3.9-4.1 6.3a10 10 0 00.4 3.9z"/><path d="M66.6 4.4a6.6 6.6 0 00-3.4-.2 3 3 0 00-2 1c.6 1.5.8 3.1.8 4.7v4.9a23.7 23.7 0 01.5 4.4c2.7.4 5.4-.2 7.6-1.6a9 9 0 002.8-3c.6-1.2.8-2.5.6-3.9a7.2 7.2 0 00-2.4-4.1c-1.4-1-2.9-1.8-4.5-2.2m-13.4-1c-.4 0-.9.1-1.2.3l.4 1.4c-.9 3.4-1.2 7-1.2 10.5 0 1.7.4 3.4 1.1 5 .6 1.2 1.3 1.7 2.1 1.5s1.5-1 1.8-2.4c.4-1.8.6-3.7.8-5.6.3-3.6 0-6.3-.7-8.1-.3-.9-.9-1.7-1.7-2.2-.4-.2-.9-.4-1.4-.4z" fill="#aec1d4"/></g><path d="M59.3 1.9l2.5.3M10.9 25.3c5.9.5 11.9.4 17.8-.2M18.6 13.9l7.5-.4m-24 1.6l6.8-.3" fill="none" id="uid_5" stroke="#aec1d4" stroke-linecap="round" stroke-linejoin="round" stroke-width="2"/></g></g></g><g id="s20-125" transform="translate(20, 125)"><g transform="translate(-90.4, -0.0)"><style>.cl1 {
    fill: #ebebeb
    }</style><g id="uid_7"><g id="uid_8"><path d="M101.3 71.1l3.1-.8.3-.1c3.3-20.8 12.3-32.8 26.9-36.1-11 .5-21.3 5.6-28.6 13.9a40.7 40.7 0 00-10.8 27.5c.5-1.5 3.4-3 9.1-4.4z" fill="#0067d8"/><path d="M133.4 66.8h.5l1.2-.1 3.4-.1h.1c5.2-.2 10-.2 14.4-.1h.1l2.4.1 6.4.5c-6.4-19.5-16.5-30.4-30.3-32.9-14.6 3.3-23.6 15.4-26.9 36.1l3-.6c4.4-.8 9.2-1.5 14.5-2l2.6-.2 6.5-.5h.1l2-.2z" fill="#fed100"/><path d="M176 70.8l.1.2a40.6 40.6 0 00-13.7-26.2 40.4 40.4 0 00-30.3-10.7h-.4c13.8 2.5 23.9 13.5 30.3 33l1.5.1c7.5.8 11.7 2 12.5 3.6z" fill="#f80000"/><path d="M176.1 71.7V71l-.1-.2c-.8-1.6-5-2.8-12.5-3.6l-1.6-.1-6.4-.5-2.4-.1h-.1a175 175 0 00-14.4.1h-.1l-3.4.1-1.2.1h-.5l-1.9.1h-.1l-6.5.5-2.6.2c-5.3.5-10.2 1.2-14.5 2l-3 .6-.3.1-3.1.8c-5.7 1.4-8.6 2.9-8.9 4.4 1.2 2.1 5.4 3.6 12.5 4.3 9.9.9 19.8 1.1 29.7.4 9.9-.4 19.7-1.6 29.4-3.6 7.5-1.5 11.6-3.2 12-4.9m-40.6-3l2.4-.1h.5c.2 4 3.6 7.1 7.6 7a7.6 7.6 0 006.8-6.9h.5l8.2.5a13.8 13.8 0 01-12.3 9.4h-.5a13 13 0 01-9.7-3.4 12 12 0 01-4-6.4l.5-.1m-10.8.9l6.1-.5h.5c-.4 2.6-1.6 4.9-3.4 6.8a12.9 12.9 0 01-9.3 4.4H118c-3.6.3-7.1-1-9.7-3.4a11.8 11.8 0 01-3.2-4.2l2.4-.5.5-.2a6.5 6.5 0 002.2 3.6 7 7 0 005.2 1.9c4-.4 7-3.8 6.8-7.8l2.5-.3v.2z"/><path class="cl1" d="M130.8 68.9l-6.1.5-2.5.3c.2 4-2.8 7.4-6.8 7.8h-.2c-2 .1-3.9-.6-5.4-1.9a7 7 0 01-2.2-3.6l-2.4.5c.8 1.6 1.9 3.1 3.2 4.2a13 13 0 009.7 3.4h.4c3.4-.2 6.6-1.8 8.8-4.4 1.9-1.8 3.1-4.2 3.5-6.8m7.2-.3l-2.4.1h-.6c.6 2.5 2 4.8 4 6.4 1.1 1 2.4 1.8 3.7 2.4 1.9.8 3.9 1.1 6 1h.5c3.4-.2 6.6-1.8 8.8-4.4 1.4-1.4 2.4-3.1 3-5l-7.7-.5h-.5a7.7 7.7 0 01-6.8 6.8h-.2a7.4 7.4 0 01-7.8-7v.2z"/></g><path d="M131.9 29.2l-.5-9.5" fill="none" id="uid_9" stroke="#98a2ae" stroke-linecap="round" stroke-linejoin="round" stroke-width="8.2"/><g id="uid_10"><path d="M164.6 10.8c-.3-1.4-1-2.7-2-3.8a11.5 11.5 0 00-7.2-2.8 7 7 0 011.9 4.3 25 25 0 01-.1 8.2c-.3 1.1-.2 1.8.4 2 .2.1.5 0 1.1-.3 2.9-1.3 4.7-2.7 5.4-4.2.6-1.1.8-2.3.5-3.4m-19-7h-.1c-.8 6.1-.7 12.2.4 18.2 1.3-.3 2.5-.7 3.7-1.3a8 8 0 002.7-1.8c.6-.8.9-1.8 1-2.8A12.8 12.8 0 00149.5 5a6 6 0 00-2.3-1.4c-.5 0-1 0-1.6.2z" fill="#aec1d4"/><path class="cl1" d="M108.6 8c0-.5-.2-1-.6-1.4l-1.2-.2c-1 .2-1.9.6-2.7 1.2a6 6 0 00-2 2.2 9.4 9.4 0 00-1.2 5.7c.1 2.4.9 4.1 2.2 5.2.9.5 1.9.8 3 .9 1.4.1 2.2-.2 2.3-1.1h.3c.5-4.3.4-8.4-.1-12.5m11-3.4l-.9.8c-.5.9-.8 2-.8 3-.4 2.4-.6 4.9-.4 7.3.2 2.5 1 4.9 2.5 6.9.4.7 1 1.2 1.8 1.3.8.1 1.5-.4 1.8-1.1.4-.7.6-1.4.7-2.1.6-4.7.4-9.4-.7-14 0-1.1-.5-2.2-1.3-3-.4-.4-1-.6-1.6-.5a2 2 0 00-1.2.8l.1.6z"/><path d="M137.6 3.6a3 3 0 00-1.2-.5l-.6.1c-.4.1-.8.3-1.1.6l-.7.7c-.5.8-.8 1.7-1 2.6a22 22 0 00.6 11.1 8 8 0 002.4 3.9l.8.5h.2l.8-.6c1.1-1.3 2.1-2.8 2.7-4.4.6-1.7.8-3.5.5-5.3a39 39 0 00-1.3-5.7 8.1 8.1 0 00-2.1-3z" fill="#d7e0e9"/></g><path d="M143.5 1h2.1m-27.4 24.1c5.5 0 11-.4 16.4-1.2m-17.5-11.5c3.3 0 7.3-.3 12-.8m-25.5 2c1.8 0 3.5-.1 5.2-.5" fill="none" id="uid_11" stroke="#aec1d4" stroke-linecap="round" stroke-linejoin="round" stroke-width="2"/></g></g></g><g id="s20-230" transform="translate(20, 230)"><g transform="translate(-180.8, -0.0)"><style>.cl2 {
    fill: #ebebeb
    }</style><g id="uid_13"><g id="uid_14"><path d="M193.5 71.5l3.1-.8.4-.1c2-20.2 11-32.3 26.9-36.1-11 .5-21.3 5.5-28.6 13.8a40.4 40.4 0 00-10.8 27.6c.4-1.4 3.3-2.9 9-4.4z" fill="#0067d8"/><path d="M225.6 67.3h.5l1.2-.1 3.4-.1h.1c5.2-.2 10-.2 14.4-.1h.1l2.4.1 6.4.5c-7.9-20.2-18-31.2-30.3-33C208 38.5 199 50.5 197 70.7l3-.6c4.4-.8 9.2-1.5 14.5-2l2.6-.2 6.5-.5h.1l1.9-.1z" fill="#fed100"/><path d="M268.3 71.4l-.1-.2c-.8-1.6-5-2.8-12.5-3.6l-1.5-.1-6.4-.5h-2.5c-4.5-.2-9.3-.1-14.4.1h-.1l-3.4.1-1.2.1h-.5l-1.9.1h-.1l-6.5.5-2.6.2c-5.3.5-10.2 1.2-14.5 2l-3 .6-.4.1-3.1.8c-5.7 1.4-8.7 2.9-9 4.5 1.2 2.1 5.4 3.6 12.6 4.3 9.9.9 19.8 1.1 29.7.4 9.9-.4 19.7-1.6 29.4-3.6 7.6-1.6 11.7-3.3 12.1-5l-.1-.8m-40.5-2.2l2.2-.2h.7c.2 3.9 3.5 7 7.4 7 1.9-.2 3.6-1 4.8-2.5a7 7 0 001.9-4.6h.8l8.2.5c-.6 1.9-1.6 3.6-3 5a12.9 12.9 0 01-9.3 4.4h-.8c-3.6.3-7.1-.9-9.7-3.4a12 12 0 01-4-6.4l.8.2m-9 .5l3.9-.3h.8c-.4 2.6-1.6 4.9-3.4 6.8a12.9 12.9 0 01-9.3 4.4h-.8a13 13 0 01-9.7-3.4A13.4 13.4 0 01197 73l2.4-.5v.1l.7-.1a6.5 6.5 0 002.2 3.6c1.4 1.3 3.1 2 5 1.9a7.5 7.5 0 006.7-7.8l4.8-.5z"/><path class="cl2" d="M222.7 69.4l-3.9.3-4.7.5c.2 4-2.8 7.4-6.7 7.8h-.4c-2 .1-3.9-.6-5.4-1.9a7.2 7.2 0 01-2.2-3.5v-.1l-2.4.5c.8 1.6 1.9 3.1 3.2 4.2a13 13 0 009.7 3.4h.4a13 13 0 009-4.4c1.8-1.8 3-4.2 3.4-6.8m7.2-.4l-2.2.1h-.7c.6 2.5 2 4.8 4 6.4a13 13 0 009.7 3.4h.4a14 14 0 0012-9.4l-7.5-.5h-.8a7 7 0 01-1.9 4.4 7.3 7.3 0 01-4.8 2.5h-.4c-4 .3-7.5-2.8-7.8-6.9z"/><path d="M268.2 71.3l.1.2a41 41 0 00-13.6-26.2 40.4 40.4 0 00-30.3-10.7h-.4c12.3 1.8 22.4 12.8 30.3 32.9l1.5.1c7.4.8 11.6 2 12.4 3.7z" fill="#f80000"/></g><path d="M224.1 29.4l-.5-9.5" fill="none" id="uid_15" stroke="#98a2ae" stroke-linecap="round" stroke-linejoin="round" stroke-width="8.2"/><g id="uid_16"><path d="M255.6 10.4c-.3-.7-.7-1.4-1.2-1.9-.5-.4-1.2-.8-1.8-1-.3-.2-.7-.3-1-.2l-.2.1a6.8 6.8 0 011.4 4.1c0 1.5-.2 3-.6 4.4v.4l.1.4c.3.3.6.4.9.2l.7-.5 1.3-1.6a4.2 4.2 0 00.4-4.4m-15.5-6.1h-.1c-.4 5.6-.1 11.2.9 16.8 2.6.1 5.2-.9 7.1-2.7 1.9-1.8 3-4.4 2.8-7a9 9 0 00-.9-3.2l-.4-.5a9.7 9.7 0 00-2.9-2.8 8.6 8.6 0 00-3.9-.9c-.9-.1-1.8.1-2.6.3z" fill="#aec1d4"/><path class="cl2" d="M203.9 8.6c-.1-.8-.5-1.6-1-2.2-.4-.5-1.1-.8-1.8-.8h-.1v.7c-1.1-.2-2.1.6-3 2.3a13.1 13.1 0 00-2 5.4 7 7 0 001.9 4.8c1.3 1.2 2.9 2.1 4.6 2.5h1c.6-.3.9-1 .9-1.6.6-3.8.4-7.5-.5-11.1m13.3-4.3c-.3-.4-.7-.6-1.2-.6s-.9.4-1.1 1.1c-.1.4-.1.9.1 1.2a19 19 0 000 14.5c.6 1.3 1.2 2.1 1.9 2.2.5.1 1 0 1.4-.1a2 2 0 001-1 6 6 0 00.8-2.6c.4-2.7.4-5.3 0-8-.2-3.1-1.2-5.4-2.9-6.7m-27.3 11.6c-.1 1.4.7 2.7 1.9 3.3.6.3 1.3.2 1.8-.2.3-.4.4-.9.2-1.4-.3-1.6-.6-2.8-.6-3.4-.2-1.2 0-2.4.6-3.6.3-.4.4-.8.4-1.3l-.1-.4-.4.1c-1 .3-1.9 1.3-2.9 3-.7 1.2-1 2.5-.9 3.9z"/><path d="M230 3.3c-.5 0-.9.2-1.3.4-.3 6.4.1 12.8.9 19.2l2.8-2c.9-.7 1.6-1.7 2.1-2.7.4-1.1.6-2.3.6-3.4V10c-.3-3.3-1.3-5.3-2.9-6.1a3 3 0 00-2.2-.6z" fill="#ccd6e1"/></g><path d="M227.3 1.4l1.7-.1m-10 10.1c3.9.2 7.3.2 10.2.1m-26.1 1.6c.9 0 2.2-.1 4-.4m16.1 11.5l10-.5" fill="none" id="uid_17" stroke="#aec1d4" stroke-linecap="round" stroke-linejoin="round" stroke-width="2"/></g></g></g><g id="s20-335" transform="translate(20, 335)"><g transform="translate(-271.2, -0.0)"><style>.cl3 {
    fill: #ebebeb
    }</style><g id="uid_19"><g id="uid_20"><path d="M285.1 71l3.1-.8.3-.1c2-20.2 11-32.3 26.9-36.2-11 .5-21.3 5.5-28.5 13.9a40.3 40.3 0 00-10.8 27.6c.4-1.5 3.4-3 9-4.4z" fill="#0067d8"/><path d="M317.3 66.7h.5l1.2-.1 3.4-.1h.1c5.2-.2 10-.2 14.4-.1h.1l2.4.1 6.4.5c-7.9-20.2-18-31.2-30.3-33-15.9 3.9-24.9 15.9-26.9 36.1l3-.6c4.4-.8 9.2-1.5 14.5-2l2.6-.2 6.5-.5 2.1-.1z" fill="#fed100"/><path d="M359.9 70.9l-.1-.1c-.8-1.6-5-2.8-12.5-3.7l-1.5-.1-6.4-.5-2.4-.1c-4.5-.2-9.3-.1-14.4.1h-.1l-3.4.1-1.2.1h-.5l-2 .1-6.5.5-2.6.2c-5.3.5-10.2 1.2-14.5 2l-3 .6-.3.1-3.1.8c-5.7 1.4-8.6 2.9-8.9 4.4 1.2 2.1 5.4 3.6 12.5 4.3 9.9.9 19.8 1.1 29.7.4 9.9-.4 19.7-1.6 29.4-3.6 7.6-1.6 11.7-3.3 12.1-5l-.3-.6m-40.5-2.3l2.2-.1h.8c.2 3.9 3.5 7 7.4 7 1.9-.2 3.6-1 4.8-2.5a7.3 7.3 0 001.9-4.4h.8l8.2.5a13.8 13.8 0 01-12.3 9.4h-.7c-3.6.2-7.2-1-9.8-3.6a12 12 0 01-4-6.4l.7.1m-9 .6l3.9-.3h.7c-.4 2.6-1.6 4.9-3.4 6.8a12.8 12.8 0 01-9.3 4.3h-.7a13 13 0 01-9.7-3.4 11.8 11.8 0 01-3.2-4.2l2.4-.5v.1l.7-.1a6.5 6.5 0 002.2 3.6 7.1 7.1 0 0011.7-5.9l4.7-.4z"/><path class="cl3" d="M314.4 68.8l-3.9.3-4.7.5c.2 4-2.8 7.4-6.7 7.8h-.3c-2 .1-3.9-.6-5.4-1.9a7.2 7.2 0 01-2.2-3.5v-.1l-2.4.5a14.7 14.7 0 006.9 6.6c1.9.8 3.9 1.1 6 1h.4a13 13 0 009-4.4c1.7-1.8 2.9-4.2 3.3-6.8m7.2-.4l-2.2.1h-.7c.6 2.5 2 4.8 4 6.4a13 13 0 009.8 3.4h.3a14 14 0 0012-9.4l-7.5-.5h-.8a7.3 7.3 0 01-1.9 4.4 7.3 7.3 0 01-4.8 2.5h-.4c-4 .2-7.5-2.9-7.8-6.9z"/><path d="M359.8 70.7l.1.1a40.6 40.6 0 00-13.7-26.2 40.3 40.3 0 00-30.3-10.7h-.5c12.3 1.8 22.4 12.8 30.3 33l1.5.1c7.7.9 11.8 2.1 12.6 3.7z" fill="#f80000"/></g><path d="M315.8 28.8l-.5-9.5" fill="none" id="uid_21" stroke="#98a2ae" stroke-linecap="round" stroke-linejoin="round" stroke-width="8.2"/><g id="uid_22"><path d="M325.4 22.7c1.5-.5 2.6-1.8 3.2-3.9 1.3-3.4 1.4-7.1.5-10.6-.4-2-1.2-3.2-2.3-3.8-.9-.4-2-.5-2.9-.1 0 5.3.3 10.7.9 16 0 .8.2 1.6.6 2.4m10.8-17.6l-1.5.3 1.3 15.5a7.8 7.8 0 005.9-3.7c1.4-2 1.9-4.4 1.5-6.8-.1-.9-.4-1.7-.9-2.5a4.9 4.9 0 00-2.6-2.3 6.8 6.8 0 00-3.7-.5z" fill="#aec1d4"/><path class="cl3" d="M295.6 6.1c-.5.4-1 .9-1.2 1.5a14.7 14.7 0 00-1.5 9.6c.6 1.3 1.4 2.4 2.4 3.5 1.4 1.6 2.7 2.4 3.9 2.3.5-2.4.7-4.8.6-7.2a60 60 0 00-.7-7.3c-.1-1-.4-2-1-2.8a2 2 0 00-1.5-.6c-.6 0-.9.3-1 1m16.9-2.4l-.2.5c-.6-.2-1.3.1-1.6.6l-.6 1.8c-.5 2.9-.8 5.8-.7 8.6.2 3 1.2 5.9 2.9 8.3.4.5.8.7 1 .7s.8-.5 1-1.3c.7-4.4 1-8.8.9-13.3 0-2.8-.6-4.6-1.8-5.4a4 4 0 00-.9-.5m-31.4 5.9a6 6 0 00-1.3 2.8l-.2 3.2c0 1 .2 2 .5 2.9.6 1 1.4 1.8 2.5 2.2a7 7 0 002.6 1.3c1 .2 2.1-.1 2.9-.8a14.5 14.5 0 01-.2-13.7c-1.3 0-2.5.1-3.8.3-1.1.3-2.2.9-3 1.8z"/></g><path d="M312.7 1.7c.8.1 1.7 0 2.5-.3m-15.5 11h3m21.8 11.4c2.3.1 4.5.1 6.8-.2m-8.6-12.1c2.3.2 4.7.2 7-.1" fill="none" id="uid_23" stroke="#aec1d4" stroke-linecap="round" stroke-linejoin="round" stroke-width="2"/></g></g></g><g id="s20-440" transform="translate(20, 440)"><g transform="translate(-361.6, -0.0)"><style>.cl4 {
    fill: #ebebeb
    }</style><g id="uid_25"><g id="uid_26"><path d="M377.1 70.2l3.1-.8.4-.1c2-20.2 11-32.2 26.9-36.1-11 .5-21.3 5.5-28.5 13.8a39.7 39.7 0 00-10.7 27.6c.2-1.5 3.2-3 8.8-4.4z" fill="#0067d8"/><path d="M409.2 65.9h.5l1.2-.1 3.4-.1h.1c5.2-.2 10-.2 14.4-.1h.1l2.4.1 6.4.5c-7.9-20.2-18-31.2-30.3-33-15.9 3.9-24.9 15.9-26.9 36.1l3-.6c4.4-.8 9.2-1.5 14.5-2l2.6-.2 6.5-.5 2.1-.1z" fill="#fed100"/><path d="M451.9 70l-.1-.1c-.8-1.6-5-2.8-12.5-3.7l-1.5-.1-6.4-.5-2.4-.1a175 175 0 00-14.4.1h-.1l-3.4.1-1.2.1h-.5l-1.9.1-6.5.5-2.6.2c-5.3.5-10.1 1.2-14.5 2l-3 .6-.4.1-3.1.8c-5.7 1.4-8.6 2.9-8.9 4.4 1.2 2.1 5.4 3.6 12.5 4.3 9.9.9 19.8 1.1 29.7.4 9.9-.4 19.7-1.6 29.4-3.6 7.6-1.6 11.6-3.3 12.1-5l-.3-.6m-40.5-2.3l2.2-.1h.8c.2 3.9 3.5 7 7.4 7a7 7 0 004.7-2.6 7.3 7.3 0 001.9-4.4h.8l8.2.5a13.8 13.8 0 01-12.3 9.4h-.8c-3.6.3-7.1-1-9.7-3.4a12 12 0 01-4-6.4h.8m-9 .6l3.9-.3h.8c-.4 2.6-1.6 4.9-3.4 6.8a12.9 12.9 0 01-9.3 4.4h-.8a13 13 0 01-9.7-3.4 11.8 11.8 0 01-3.2-4.2l2.4-.5v.1l.8-.1a7 7 0 002.1 3.6c1.4 1.3 3.1 2 5 1.9a7.5 7.5 0 006.7-7.8l4.7-.5z"/><path class="cl4" d="M406.4 68l-3.9.3-4.7.5c.2 4-2.7 7.4-6.7 7.8h-.4a7.5 7.5 0 01-7.6-5.4v-.1l-2.4.5a14.7 14.7 0 006.9 6.6c1.9.8 3.9 1.1 6 1h.4a13 13 0 009-4.4c1.8-1.9 3-4.2 3.4-6.8m7.1-.4l-2.2.1h-.8c.6 2.5 2 4.8 4 6.4a13 13 0 009.7 3.4h.4a14 14 0 0012-9.4l-7.5-.5h-.8a7.3 7.3 0 01-1.9 4.4 7.3 7.3 0 01-4.8 2.5h-.4a7.5 7.5 0 01-7.7-6.9z"/><path d="M451.8 69.9l.1.1a40.6 40.6 0 00-13.7-26.2 40.3 40.3 0 00-30.3-10.7h-.5c12.3 1.8 22.4 12.8 30.3 33l1.5.1c7.7.8 11.8 2.1 12.6 3.7z" fill="#f80000"/></g><path d="M407.7 28l-.5-9.5" fill="none" id="uid_27" stroke="#98a2ae" stroke-linecap="round" stroke-linejoin="round" stroke-width="8.2"/><g id="uid_28"><path class="cl4" d="M393.3 6.3l-.5-.3a10.1 10.1 0 00-2.7 5.1c-.4 1.9-.5 3.9-.2 5.8.1 2 .9 3.9 2.2 5.5 1.1 1 2 1.2 2.8.9.6-.5 1-1.1 1.1-1.8.7-2.1 1.2-4.4 1.5-6.6.2-3.1-.8-6.2-2.7-8.6h-1.5m13.5 5.1c-.1 1.4-.2 2.7-.1 4.1 0 1.5.2 3 .5 4.5a5.6 5.6 0 002.7 3.5c.4.3.7.4 1 .2l.6-.8a29.3 29.3 0 00-.3-17.1c-.4-1.1-.9-1.7-1.5-1.7s-1.1.3-1.8 1.2c-1.7 2.3-2.2 4.4-1.5 6.1h.4m-34.1 6.5a7.1 7.1 0 005.5 4.6c1.2.2 2.5.1 3.6-.4l.5-.3v-.5l.5-.1c-.5-1-.7-2.2-.6-3.4l.4-7.1c.2-1.9-.1-3.2-1-3.8-.8-.6-1.8-.8-2.8-.4-.9.4-1.7.9-2.5 1.5-2 1.6-3.4 3.9-4.1 6.3-.1 1.1.1 2.4.5 3.6z"/><path d="M434.4 4.5a6.6 6.6 0 00-3.4-.2c-.8 0-1.5.4-2 1 .6 1.5.9 3.1.8 4.7v4.9l.4 2.2c.2.7.2 1.5.1 2.2 2.7.4 5.4-.2 7.6-1.6a9 9 0 002.8-3c.6-1.2.8-2.5.5-3.9a7.2 7.2 0 00-2.4-4.2 12 12 0 00-4.4-2.1m-13.4-1c-.4 0-.9.1-1.2.3l.4 1.4c-.9 3.4-1.3 7-1.2 10.5 0 1.7.4 3.5 1.1 5.1.6 1.2 1.3 1.7 2.1 1.5s1.5-1 1.8-2.4c.4-1.8.6-3.7.8-5.6a21 21 0 00-.6-8.1 4 4 0 00-1.6-2.3c-.5-.2-1.1-.4-1.6-.4z" fill="#aec1d4"/></g><path d="M400.7 2.1c.5-.3 1.1-.4 1.7-.5m-5 10.7l1.5-.3m24 11.6c2.2.1 4.3-.2 6.4-.9.7-.1 1.3-.5 1.6-1m-3.3-10l2.8.1" fill="none" id="uid_29" stroke="#aec1d4" stroke-linecap="round" stroke-linejoin="round" stroke-width="2"/></g></g></g><g id="s20-545" transform="translate(20, 545)"><g transform="translate(-0.0, -84.8)"><style/><g id="uid_31"><g id="uid_32"><path d="M12.9 156.1l.4-.1c2.2-20.3 11.2-32.3 26.9-36.1-11 .5-21.3 5.5-28.5 13.8A40.3 40.3 0 00.9 161.3c.3-1.5 3.3-3 8.9-4.4l3.1-.8z" fill="#0067d8"/><path d="M41.9 152.6h.5l1.2-.1 3.2-.1h.4c5.2-.2 10-.2 14.4-.1h.2l2.2.1 6.4.5c-6.9-19.3-17-30.3-30.3-32.9-15.7 3.8-24.7 15.8-26.9 36.1l3-.6c4.4-.8 9.2-1.5 14.5-2l2.6-.2 6.5-.5h.2l1.9-.2z" fill="#fed100"/><path d="M84.6 156.8l-.1-.1c-.8-1.6-5-2.8-12.5-3.6l-1.5-.1-6.4-.5-2.2-.1h-.2c-4.5-.2-9.3-.1-14.4.1h-.4l-3.2.1-1.2.1H42l-1.9.1-6.5.5-2.6.2c-5.3.5-10.2 1.2-14.5 2l-3 .6-.4.1-3.1.8c-5.7 1.4-8.6 2.9-8.9 4.4 1.2 2.1 5.4 3.6 12.6 4.3 9.9.9 19.8 1.1 29.7.4 5.3-.3 10.2-.7 14.7-1.2 4.9-.5 9.8-1.3 14.7-2.3 7.6-1.6 11.7-3.3 12.1-5l-.3-.8M19 161l18.9-1.5L19 161m30.2-1.5l18.3-1.3-18.3 1.3z"/><path d="M84.5 156.6l.1.1a40.6 40.6 0 00-13.7-26.2 40.4 40.4 0 00-30.3-10.7h-.5c13.3 2.7 23.4 13.6 30.3 32.9l1.6.3c7.5.8 11.6 2 12.5 3.6z" fill="#f80000"/></g><path d="M19 161l18.9-1.5m11.3 0l18.3-1.3" fill="none" id="uid_33" stroke="#98a2ae" stroke-linecap="round" stroke-linejoin="round" stroke-width="2"/><path d="M40.4 115l-.5-9.5" fill="none" id="uid_34" stroke="#98a2ae" stroke-linecap="round" stroke-linejoin="round" stroke-width="8.2"/><g id="uid_35"><path d="M72.9 97.9c-.3-1.4-1-2.7-2-3.8a11.5 11.5 0 00-7.2-2.8 7 7 0 011.9 4.3 25 25 0 01-.1 8.2c-.3 1.1-.2 1.8.4 2a2 2 0 001.1-.3c2.9-1.3 4.7-2.8 5.3-4.2.7-1.1.9-2.3.6-3.4m-19-7.1h-.2c-.8 6.1-.7 12.2.4 18.2 1.3-.3 2.5-.8 3.7-1.3a8 8 0 002.7-1.8c.6-.8.9-1.8 1-2.8.3-2 .1-4.1-.5-6a12 12 0 00-3.2-5.1 6.8 6.8 0 00-2.3-1.4l-1.6.2z" fill="#aec1d4"/><path d="M16.9 95.1c0-.5-.2-1-.5-1.4-.4-.2-.8-.2-1.1-.2-1 .2-1.9.6-2.6 1.2-.8.6-1.5 1.3-1.9 2.2a9.4 9.4 0 00-1.2 5.7c.1 2.4.9 4.1 2.2 5.2.9.5 2 .8 3.1.8 1.4.1 2.1-.2 2.4-1.2h.3c-.1-4.1-.2-8.3-.7-12.3m11-3.5c-.4.2-.7.5-.9.8a8 8 0 00-.9 3c-.4 2.4-.6 4.9-.4 7.3.2 2.5 1 4.9 2.5 6.9.4.7 1 1.2 1.8 1.3.8.1 1.5-.4 1.8-1.1.4-.7.6-1.4.7-2.2.6-4.7.4-9.4-.7-14 0-1.1-.5-2.2-1.4-2.9-.4-.4-1-.6-1.5-.4-.5.1-.9.4-1.1.8l.1.5z" fill="#ebebeb"/><path d="M45.9 90.7a3 3 0 00-1.2-.5l-.7.1a2 2 0 00-1 .6l-.7.7c-.5.8-.8 1.7-1 2.6a22 22 0 00.5 11.1 8.6 8.6 0 002.3 3.9c.2.2.5.4.8.4h.2l.8-.7c1.1-1.3 2.1-2.8 2.7-4.4.6-1.7.8-3.5.5-5.3a39 39 0 00-1.3-5.7c-.3-1.1-1-2.1-1.9-2.8z" fill="#d7e0e9"/></g><path d="M12.9 90.5c-.5 0-.9.2-1.2.4m49.8 16.8l1-.4c.4-.1.7-.4.8-.8 0-.3 0-.5-.2-.8l-.5-.6" fill="none" id="uid_36" stroke="#aec1d4" stroke-linecap="round" stroke-linejoin="round" stroke-width="2"/></g></g></g><g id="s20-650" transform="translate(20, 650)"><g transform="translate(-90.4, -84.8)"><style>.cl5 {
    fill: #ebebeb
    }</style><g id="uid_38"><g id="uid_39"><path d="M102.1 156.9l3.1-.8.3-.1c2.2-20.3 11.2-32.3 26.9-36.1a42 42 0 00-39.3 41.4c.3-1.5 3.3-3 9-4.4z" fill="#0067d8"/><path d="M139.3 152.4h.1c5.2-.2 10-.2 14.4-.1h2.4l6.4.5c-6.9-19.3-17-30.3-30.3-32.9-15.7 3.8-24.7 15.8-26.9 36.1l3-.6c4.4-.8 9.2-1.5 14.5-2l2.6-.2 6.5-.5 2-.1h.5l1.2-.1 3.2-.1h.4z" fill="#fed100"/><path d="M176.9 156.8l-.1-.1c-.8-1.6-5-2.8-12.4-3.6l-1.5-.1-6.4-.5h-2.6c-4.4-.2-9.3-.1-14.4.1H139.2l-3.2.1-1.2.1h-.5l-2 .1-6.5.5-2.6.2c-5.3.5-10.2 1.2-14.5 2l-3 .6-.3.1-3.1.8c-5.7 1.4-8.6 2.9-8.9 4.4 1.2 2.1 5.4 3.6 12.6 4.3 9.9.9 19.8 1.1 29.7.4l.9-.1h.5l12.5-1.1 1.8-.2 13.7-2.2c7.6-1.6 11.7-3.3 12.1-5.1l-.3-.7m-41.1-2.3h.5l2.4-.1h.5c.1 1.9 1 3.7 2.4 5l.2.1a7.2 7.2 0 005 1.8c1.9-.1 3.7-1 4.9-2.5a7.3 7.3 0 001.9-4.4h.5v-.1l8.2.5c-.6 1.9-1.6 3.6-3 5a12.9 12.9 0 01-9.3 4.4h-.4a13 13 0 01-9.7-3.4 11.1 11.1 0 01-4.1-6.3m-4.2.2h.5c-.4 2.6-1.6 4.9-3.4 6.8a12.9 12.9 0 01-9.3 4.4h-.5a13 13 0 01-9.7-3.4 11.8 11.8 0 01-3.2-4.2l2.4-.5v.1l.5-.1a6.5 6.5 0 002.2 3.6 7 7 0 0010.1-.6l.7-.7c.9-1.4 1.4-3 1.3-4.6l2.5-.3 5.9-.5z"/><path class="cl5" d="M125.5 155.2l-2.5.3c.1 1.6-.3 3.3-1.3 4.6l-.7.7a7.5 7.5 0 01-4.9 2.5h-.2a7.5 7.5 0 01-7.6-5.5v-.1l-2.4.5a14.7 14.7 0 006.9 6.6c1.9.8 3.9 1.1 6 1h.5c3.4-.2 6.6-1.8 8.8-4.4 1.8-1.9 3-4.2 3.4-6.8l-6 .6m10.8-.8h-.5c.6 2.5 2 4.8 4 6.4 1.1 1 2.4 1.8 3.7 2.4 1.9.8 3.9 1.1 6 1h.4c3.4-.2 6.6-1.8 8.8-4.4 1.4-1.4 2.4-3.1 3-5l-7.7-.5h-.5a7.5 7.5 0 01-6.8 6.9h-.2a7 7 0 01-5.2-1.8l-.2-.1a7.4 7.4 0 01-2.4-5l-2.4.1z"/><path d="M176.7 156.6l.1.1a42.2 42.2 0 00-44-36.9h-.4c13.3 2.7 23.4 13.6 30.3 32.9l1.5.1c7.6 1 11.7 2.2 12.5 3.8z" fill="#f80000"/></g><path d="M132.7 115l-.5-9.5" fill="none" id="uid_40" stroke="#98a2ae" stroke-linecap="round" stroke-linejoin="round" stroke-width="8.2"/><g id="uid_41"><path d="M163.2 97.2c-.3-.7-.7-1.4-1.2-1.9l-1.8-1c-.3-.2-.7-.3-1-.2l-.2.1a6.8 6.8 0 011.4 4.1c0 1.5-.2 3-.6 4.4l-.1.4.1.3c.3.3.6.4.9.2l.7-.5 1.3-1.6c.4-.6.7-1.2.8-1.8.1-.9 0-1.7-.3-2.5m-15.6-6l-.1.1c-.4 5.6-.1 11.2.9 16.8 2.6.1 5.2-.9 7.1-2.7 1.9-1.8 3-4.4 2.8-7a7.5 7.5 0 00-1-3.2l-.4-.5a9.7 9.7 0 00-2.9-2.8 8.6 8.6 0 00-3.9-.9c-.8-.2-1.7-.1-2.5.2z" fill="#aec1d4"/><path class="cl5" d="M111.4 95.4c-.1-.8-.5-1.6-1-2.2-.4-.5-1.1-.8-1.8-.8h-.1v.7c-1.1-.2-2.1.6-3 2.3a12.7 12.7 0 00-2 5.3 7 7 0 001.9 4.8 9.2 9.2 0 004.7 2.4h1c.6-.3 1-1 .9-1.7.5-3.5.3-7.2-.6-10.8m13.3-4.3c-.3-.4-.7-.6-1.2-.6s-.8.4-1.2 1.1c-.1.4-.1.9.1 1.2a21 21 0 000 14.6c.6 1.3 1.2 2.1 1.9 2.2 1 .2 2-.2 2.4-1.1a6 6 0 00.8-2.7c.4-2.7.4-5.3 0-8-.1-3.1-1.1-5.4-2.8-6.7m-27.2 11.6c-.1 1.4.7 2.7 1.9 3.3.6.3 1.3.2 1.8-.2.3-.4.4-.9.2-1.3l-.7-3.4c-.2-1.2 0-2.4.6-3.6.3-.4.4-.8.4-1.3l-.1-.3-.4.2c-1 .3-1.9 1.3-2.8 3-.8.9-1 2.3-.9 3.6z"/><path d="M137.6 90.2c-.5 0-.9.2-1.3.4-.2 6.4.1 12.8 1 19.2l2.8-2c.9-.7 1.6-1.7 2.1-2.7.4-1.1.6-2.3.6-3.4v-4.8c-.3-3.3-1.3-5.3-3-6.1-.7-.5-1.5-.7-2.2-.6z" fill="#ccd6e1"/></g><path d="M102.7 90.3l-.2.6c-.1.2 0 .5.2.7l.2.1c.7.4 1.5.6 2.3.7" fill="none" id="uid_42" stroke="#aec1d4" stroke-linecap="round" stroke-linejoin="round" stroke-width="2"/></g></g></g><g id="s20-755" transform="translate(20, 755)"><g transform="translate(-180.8, -84.8)"><style>.cl6 {
    fill: #ebebeb
    }</style><g id="uid_44"><g id="uid_45"><path d="M193.5 158.2l3.1-.8.4-.1c2.2-20.3 11.2-32.3 26.9-36.1a42 42 0 00-39.3 41.4c.3-1.4 3.2-2.9 8.9-4.4z" fill="#0067d8"/><path d="M230.8 153.8h.1c5.2-.2 10-.2 14.4-.1h2.4l6.4.5c-6.9-19.3-17-30.3-30.3-32.9-15.7 3.8-24.7 15.9-26.9 36.2l3-.6c4.4-.8 9.2-1.5 14.5-2l2.6-.2 6.5-.5h.1l1.9-.1h.5l1.2-.1 3.2-.1.4-.1z" fill="#fed100"/><path d="M268.3 158.1l-.1-.1c-.8-1.6-5-2.8-12.5-3.6l-1.5-.1-6.4-.5H245.4c-4.5-.2-9.3-.1-14.4.1H230.7l-3.2.1-1.2.1h-.5l-1.9.1h-.1l-6.5.5-2.6.2c-5.3.5-10.2 1.2-14.5 2l-3 .6-.4.1-3.1.8c-5.7 1.4-8.6 2.9-8.9 4.4 1.2 2.1 5.4 3.6 12.6 4.3 9.9.9 19.8 1.1 29.7.4l1-.1h.5l12.4-1.1 1.8-.2 13.7-2.2c7.6-1.6 11.7-3.3 12.1-5v-.7m-41.3-2.3h.5l2.4-.1h.5c.1 1.9 1 3.7 2.4 5l.2.1a7.2 7.2 0 005 1.8c1.9-.1 3.7-1 4.9-2.5h.1a7.3 7.3 0 001.9-4.4h.5l8.2.5c-.6 1.9-1.6 3.6-3 5a12.9 12.9 0 01-9.3 4.4H241a13 13 0 01-9.7-3.4c-2-1.6-3.4-3.9-4-6.4m-4.3.3h.5c-.4 2.6-1.6 4.9-3.4 6.8a12.9 12.9 0 01-9.3 4.4h-.5c-3.6.3-7.1-1-9.7-3.4a11.8 11.8 0 01-3.2-4.2l2.4-.5v.1l.5-.1a7.6 7.6 0 007.4 5.6 7 7 0 004.9-2.5l.7-.7a7 7 0 001.2-4.6l2.5-.3 6-.6z"/><path class="cl6" d="M216.9 156.6l-2.5.3c.1 1.6-.3 3.3-1.2 4.6l-.7.7a7.5 7.5 0 01-4.9 2.5h-.2c-2 .1-3.9-.6-5.4-1.9a7 7 0 01-2.2-3.6v-.1l-2.4.5c.8 1.6 1.9 3.1 3.2 4.2a13 13 0 009.7 3.4h.5c3.4-.2 6.6-1.8 8.8-4.4 1.8-1.9 3-4.2 3.4-6.8l-6.1.6m10.8-.8h-.5c.6 2.5 2 4.8 4 6.4 1.1 1 2.4 1.8 3.7 2.4 1.9.8 4 1.1 6 1h.4c3.4-.2 6.6-1.8 8.8-4.4 1.4-1.4 2.4-3.1 3-5l-7.7-.5h-.5a7.3 7.3 0 01-1.9 4.4h-.1a7.5 7.5 0 01-4.9 2.5 7 7 0 01-5.2-1.8l-.1-.1a7.4 7.4 0 01-2.4-5l-2.6.1z"/><path d="M268.2 158l.1.1a42.2 42.2 0 00-44-36.9h-.4c13.3 2.7 23.4 13.6 30.3 32.9l1.5.1c7.5.9 11.7 2.2 12.5 3.8z" fill="#f80000"/></g><path d="M224.1 116.3l-.5-9.5" fill="none" id="uid_46" stroke="#98a2ae" stroke-linecap="round" stroke-linejoin="round" stroke-width="8.2"/><g id="uid_47"><path d="M233.3 109.7c1.5-.5 2.6-1.8 3.2-3.9 1.3-3.4 1.4-7.1.5-10.7-.4-2-1.2-3.3-2.3-3.8-.9-.4-2-.5-2.9-.1 0 5.3.3 10.7.9 16 0 .9.2 1.8.6 2.5m10.8-17.6l-1.6.3 1.3 15.5a7.8 7.8 0 005.9-3.7c1.4-2 1.9-4.4 1.6-6.8-.1-.9-.4-1.7-.9-2.5a4.9 4.9 0 00-2.6-2.3 6.8 6.8 0 00-3.7-.5z" fill="#aec1d4"/><path class="cl6" d="M203.6 93.1a4 4 0 00-1.2 1.4 14.7 14.7 0 00-1.5 9.6c.7 1.2 1.4 2.4 2.4 3.5 1.4 1.6 2.7 2.4 3.9 2.3.5-2.4.7-4.8.6-7.2a60 60 0 00-.7-7.3c-.1-1-.4-2-1-2.8a2 2 0 00-1.4-.6c-.8.1-1.1.4-1.1 1.1m16.8-2.4l-.2.5c-.6-.2-1.3.1-1.6.6l-.6 1.8a51 51 0 00-.7 8.7c.2 3 1.2 5.9 2.9 8.3.4.5.8.7 1 .7s.8-.5 1-1.3c.7-4.4 1-8.8.9-13.3 0-2.8-.6-4.6-1.8-5.4l-.9-.6M189 96.6a6 6 0 00-1.3 2.8l-.2 3.2c0 1 .2 2 .6 3a5 5 0 002.4 2.2 7 7 0 002.6 1.3c1 .2 2.1-.1 2.9-.8a14.7 14.7 0 01-.1-13.7c-1.3 0-2.5.1-3.8.3-1.2.2-2.3.8-3.1 1.7z"/></g><path d="M200.2 107.5l-1.4-.2c-.5-.1-.9 0-1.3.3m-2.3-16.2a12 12 0 004.1 1.2l4.5.2" fill="none" id="uid_48" stroke="#aec1d4" stroke-linecap="round" stroke-linejoin="round" stroke-width="2"/></g></g></g><g id="s20-860" transform="translate(20, 860)"><g transform="translate(-271.2, -84.8)"><style>.cl7 {
    fill: #ebebeb
    }</style><g id="uid_50"><g id="uid_51"><path d="M288.3 158.1l.3-.1c3.7-20.3 12.7-32.3 26.9-36.1a42 42 0 00-39.3 41.4c.3-1.5 3.3-3 8.9-4.4l3.2-.8z" fill="#0067d8"/><path d="M317.3 154.6h.5l1.2-.1 3.4-.1h.1c5.2-.2 10-.2 14.4-.1h.1l2.4.1 6.4.5c-5.5-19.3-15.6-30.3-30.3-32.9-14.2 3.8-23.2 15.9-26.9 36.1l3-.6c4.4-.8 9.2-1.5 14.5-2l2.6-.2 6.5-.5 2.1-.2z" fill="#fed100"/><path d="M359.9 158.7l-.1-.1c-.8-1.6-5-2.8-12.5-3.6l-1.5-.1-6.4-.5-2.4-.1c-4.5-.2-9.3-.1-14.4.1h-.1l-3.4.1-1.2.1h-.5l-2 .1-6.5.5-2.6.2c-5.3.5-10.2 1.2-14.5 2l-3 .6-.3.1-3.1.8c-5.7 1.4-8.6 2.9-8.9 4.4 1.2 2.1 5.4 3.6 12.5 4.3 9.9.9 19.8 1.1 29.7.4 9.9-.4 19.7-1.6 29.4-3.6 7.6-1.6 11.7-3.3 12.1-5l-.3-.7m-40.5-2.3l3-.2a7.4 7.4 0 0012.9 4.4 7.3 7.3 0 001.9-4.4l8.2.5a13.9 13.9 0 01-18.3 8.4 13 13 0 01-3.7-2.4 12.7 12.7 0 01-4-6.3m-12.8 1.1c2.9-.4 5.8-.6 8.6-.8-.4 2.6-1.6 4.9-3.4 6.8a12.9 12.9 0 01-9.3 4.4c-3.6.3-7.1-1-9.7-3.4a11.8 11.8 0 01-3.2-4.2l2.4-.5a6.5 6.5 0 002.2 3.6 6.8 6.8 0 005.4 1.9c4-.3 7.2-3.7 7-7.8z"/><path class="cl7" d="M315.1 156.7c-2.9.2-5.7.4-8.6.8.2 4.1-3 7.6-7 7.8-2 .1-3.9-.6-5.4-1.9a6.8 6.8 0 01-2.2-3.6l-2.4.5c.8 1.6 1.9 3.1 3.2 4.2a13 13 0 009.7 3.4c3.6-.1 7-1.7 9.3-4.4a13 13 0 003.4-6.8m7.2-.5l-3 .2c.6 2.5 2 4.8 4 6.4 1.1 1 2.4 1.8 3.7 2.4a13.9 13.9 0 0018.3-8.4l-8.2-.5a7 7 0 01-1.9 4.4 7.2 7.2 0 01-5.1 2.5c-4 .2-7.5-2.9-7.8-7z"/><path d="M359.8 158.6l.1.1a42.2 42.2 0 00-44-36.9h-.5c14.8 2.6 24.9 13.6 30.3 32.9l1.5.1c7.6.9 11.8 2.2 12.6 3.8z" fill="#f80000"/></g><path d="M315.8 117.4l-.5-9.5" fill="none" id="uid_52" stroke="#98a2ae" stroke-linecap="round" stroke-linejoin="round" stroke-width="8.2"/><g id="uid_53"><path class="cl7" d="M301.3 93l-.5-.2a10.1 10.1 0 00-2.7 5.1c-.4 1.9-.5 3.9-.2 5.8a9 9 0 002.2 5.4c1.1 1 2 1.2 2.8.8.6-.5 1-1.1 1.1-1.8.7-2.2 1.2-4.4 1.5-6.6a13 13 0 00-2.7-8.7l-1.5.2m13.5 5.1c-.1 1.4-.2 2.7-.1 4.1 0 1.5.2 3 .5 4.5a5.6 5.6 0 002.7 3.5c.4.3.7.4 1 .2l.6-.8a29.3 29.3 0 00-.3-17.1c-.4-1.1-.9-1.7-1.5-1.7s-1.1.3-1.8 1.2c-1.7 2.3-2.2 4.4-1.5 6.1h.4m-34.1 6.5a7.1 7.1 0 005.5 4.6c1.2.2 2.5.1 3.6-.3l.5-.3c.1-.1.1-.3 0-.4l.5-.2c-.5-1-.7-2.2-.6-3.3l.4-7.2c.2-1.9-.1-3.2-1-3.8-.8-.6-1.8-.8-2.8-.4l-2.5 1.4c-2 1.6-3.4 3.9-4.1 6.3a9 9 0 00.5 3.6z"/><path d="M342.5 91.2a6.6 6.6 0 00-3.4-.2c-.8 0-1.5.4-2 1 .6 1.5.9 3.1.8 4.7v4.8l.4 2.2c.2.7.2 1.5.1 2.2 2.7.4 5.4-.2 7.6-1.6a9 9 0 002.8-3c.6-1.2.8-2.5.5-3.8a7.2 7.2 0 00-2.4-4.2c-1.3-.9-2.8-1.7-4.4-2.1m-13.4-1c-.4 0-.9.1-1.2.3l.4 1.4c-.8 3.4-1.2 7-1.1 10.5 0 1.7.4 3.4 1.1 5 .6 1.2 1.3 1.7 2.1 1.6s1.5-1 1.8-2.3c.4-1.8.6-3.7.8-5.6.3-3.6 0-6.3-.6-8.2-.2-.9-.8-1.7-1.6-2.2-.7-.3-1.2-.5-1.7-.5z" fill="#aec1d4"/></g><path d="M289 107c-.8.3-1.5.7-2.1 1.2a1 1 0 00-.3.7l1 .3m5.2-17.4c3.6.3 7.2.5 10.8.3" fill="none" id="uid_54" stroke="#aec1d4" stroke-linecap="round" stroke-linejoin="round" stroke-width="2"/></g></g></g><g id="s20-965" transform="translate(20, 965)"><g transform="translate(-361.6, -84.8)"><style>.cl8 {
    fill: #ebebeb
    }</style><g id="uid_56"><g id="uid_57"><path d="M380.3 158.1l.4-.1c3.7-20.2 12.7-32.3 26.9-36.1a42 42 0 00-39.3 41.4c.3-1.5 3.3-3 8.9-4.4l3.1-.8z" fill="#0067d8"/><path d="M409.3 154.6h.5l1.2-.1 3.4-.1h.1c5.2-.2 10-.2 14.4-.1h.1l2.4.1 6.4.5c-5.5-19.3-15.6-30.3-30.3-32.9-14.2 3.8-23.2 15.9-26.9 36.1l3-.6c4.4-.8 9.2-1.5 14.5-2l2.6-.2 6.5-.5 2.1-.2z" fill="#fed100"/><path d="M452 158.7l-.1-.1c-.8-1.6-5-2.8-12.5-3.6l-1.5-.1-6.4-.5-2.4-.1h-.1a175 175 0 00-14.4.1h-.1l-3.4.1-1.2.1h-.5l-1.9.1-6.5.5-2.6.2c-5.3.5-10.2 1.2-14.5 2l-3 .6-.4.1-3.1.8c-5.7 1.4-8.6 2.9-8.9 4.4 1.2 2.1 5.4 3.6 12.5 4.3 9.9.9 19.8 1.1 29.7.4 9.9-.4 19.7-1.6 29.4-3.6 7.6-1.6 11.6-3.3 12.1-5.1l-.2-.6m-40.6-2.3l3-.1c.1 1.9 1 3.7 2.4 5a6.8 6.8 0 005.4 1.9c2-.1 3.8-1 5.1-2.5a7.3 7.3 0 001.9-4.4l8.2.5a13.8 13.8 0 01-12.3 9.4c-3.6.3-7.1-1-9.7-3.4a13 13 0 01-4-6.4m-12.8 1.1c2.9-.4 5.8-.6 8.6-.8-.4 2.6-1.6 4.9-3.4 6.8a13.8 13.8 0 01-15.3 3.4 13 13 0 01-3.7-2.4 11.8 11.8 0 01-3.2-4.2l2.4-.5a6.5 6.5 0 002.2 3.6c1.5 1.4 3.4 2 5.4 1.9a7.5 7.5 0 007-7.8z"/><path class="cl8" d="M407.2 156.7c-2.9.2-5.7.4-8.6.8a7.4 7.4 0 01-7 7.8c-2 .1-3.9-.6-5.4-1.9a6.8 6.8 0 01-2.2-3.6l-2.4.5a14.7 14.7 0 006.9 6.6c1.9.8 4 1.1 6 1 3.6-.1 7-1.7 9.3-4.4a13 13 0 003.4-6.8m7.2-.4l-3 .1c.6 2.5 2 4.8 4 6.4a13 13 0 009.7 3.4c5.6-.3 10.5-4.1 12.3-9.4l-8.2-.5a7.3 7.3 0 01-1.9 4.4 7.2 7.2 0 01-5.1 2.5c-2 .1-3.9-.6-5.4-1.9a6.7 6.7 0 01-2.4-5z"/><path d="M451.9 158.6l.1.1a42.2 42.2 0 00-44-36.9h-.5c14.8 2.6 24.9 13.6 30.3 32.9l1.5.1c7.6 1 11.7 2.2 12.6 3.8z" fill="#f80000"/></g><path d="M407.8 117.4l-.5-9.5" fill="none" id="uid_58" stroke="#98a2ae" stroke-linecap="round" stroke-linejoin="round" stroke-width="8.2"/><g id="uid_59"><path d="M440.8 98.4c-.3-1.4-1-2.7-2-3.8a11.5 11.5 0 00-7.1-2.8 7.8 7.8 0 012 4.3 25 25 0 01-.1 8.2c-.3 1.1-.2 1.8.5 2 .2.1.5 0 1.1-.3 2.9-1.3 4.7-2.8 5.4-4.2.3-1.1.5-2.3.2-3.4m-19-7h-.1c-.8 6.1-.7 12.2.4 18.2 1.3-.3 2.5-.7 3.7-1.3a8 8 0 002.7-1.8c.6-.8.9-1.8 1-2.8a12.6 12.6 0 00-3.7-11 6.8 6.8 0 00-2.3-1.4c-.6-.1-1.2 0-1.7.1z" fill="#aec1d4"/><path class="cl8" d="M384.8 95.6c0-.5-.2-1-.5-1.4l-1.1-.2c-1 .2-1.9.6-2.6 1.2a7 7 0 00-2 2.2 9.4 9.4 0 00-1.2 5.7c.1 2.4.8 4.1 2.2 5.2.9.5 2 .8 3 .8 1.4.1 2.1-.2 2.4-1.2h.3c.1-4.1 0-8.2-.5-12.3m10.9-3.4c-.4.2-.7.5-.9.8a8 8 0 00-.9 3c-.4 2.4-.6 4.9-.4 7.3.2 2.5 1 4.9 2.5 6.9.4.7 1 1.2 1.8 1.3.8.1 1.5-.4 1.8-1.1.4-.7.6-1.4.6-2.2.6-4.7.4-9.4-.7-14a4 4 0 00-1.4-3c-.4-.4-1-.6-1.5-.4-.5.1-.9.4-1.1.8l.2.6z"/><path d="M413.8 91.2a3 3 0 00-1.2-.5l-.6.1c-.4.1-.8.3-1 .6l-.7.7c-.5.8-.9 1.7-1 2.6a22 22 0 00.5 11.1 8 8 0 002.4 3.9c.2.2.5.4.8.4h.2l.8-.7c1.1-1.3 2.1-2.8 2.7-4.4.6-1.7.8-3.5.5-5.3a39 39 0 00-1.3-5.7c-.6-1-1.2-2-2.1-2.8z" fill="#d7e0e9"/></g><path d="M396.1 91.8c2.7.4 5.5.4 8.2 0m-26.2 16.7l.1 1.5c2 .6 4 .9 6 .8" fill="none" id="uid_60" stroke="#aec1d4" stroke-linecap="round" stroke-linejoin="round" stroke-width="2"/></g></g></g><g id="s20-1070" transform="translate(20, 1070)"><g transform="translate(-0.0, -169.6)"><style>.cl9 {
    fill: #ebebeb
    }</style><g id="uid_62"><g id="uid_63"><path d="M12 244.1l.4-.1c3.7-20.2 12.7-32.3 26.9-36.1-11 .5-21.3 5.5-28.5 13.8A40 40 0 000 249.3c.3-1.5 3.3-3 8.9-4.4l3.1-.8z" fill="#0067d8"/><path d="M41 240.6h.5l1.2-.1 3.4-.1h.2c5.2-.2 10-.2 14.4-.1h.1l2.3.1 6.4.5C64.1 221.6 54 210.6 39.3 208c-14.2 3.8-23.2 15.8-26.9 36l3-.6c4.4-.8 9.2-1.5 14.5-2l2.6-.2 6.5-.5 2-.1z" fill="#fed100"/><path d="M83.7 244.7l-.1-.1c-.8-1.6-5-2.8-12.5-3.6l-1.5-.1-6.4-.5-2.3-.1h-.1c-4.5-.2-9.2-.1-14.4.1h-.2l-3.4.1-1.2.1H41l-2 .1-6.5.5-2.6.2c-5.3.5-10.2 1.2-14.5 2l-3 .6-.4.1-3.1.8c-5.7 1.4-8.6 2.9-8.9 4.4 1.2 2.1 5.4 3.6 12.6 4.3 9.9.9 19.8 1.1 29.7.4 9.9-.4 19.7-1.6 29.4-3.6 7.6-1.6 11.7-3.3 12.1-5.1l-.1-.6m-40.6-2.3l2.9-.2a7.4 7.4 0 007.8 6.9 7.5 7.5 0 007-6.9l8.2.5c-.6 1.9-1.6 3.6-3 5a13.8 13.8 0 01-15.3 3.4 13 13 0 01-3.7-2.4 11.9 11.9 0 01-3.9-6.3m-12.9 1c2.9-.4 5.8-.6 8.6-.8-.4 2.6-1.6 4.9-3.4 6.8a12.9 12.9 0 01-9.3 4.4c-3.6.3-7.1-1-9.8-3.4a11.8 11.8 0 01-3.2-4.2l2.4-.5a6.5 6.5 0 002.2 3.6 6.8 6.8 0 005.4 1.9c2-.1 3.8-1 5.1-2.5a6 6 0 002-5.3z"/><path class="cl9" d="M38.9 242.7l-8.6.8c.1 2-.5 3.9-1.9 5.4a7.2 7.2 0 01-5.1 2.5 7.5 7.5 0 01-7.6-5.5l-2.4.5a13.4 13.4 0 0013 7.6c3.6-.1 7-1.7 9.3-4.4 1.7-2 2.9-4.4 3.3-6.9m7.2-.5l-2.9.2c.6 2.5 2 4.8 4 6.4 1.1 1 2.4 1.8 3.7 2.4 1.9.8 4 1.1 6 1 3.6-.1 7-1.7 9.3-4.4 1.4-1.4 2.4-3.1 3-5l-8.2-.5a7.6 7.6 0 01-7 6.9 7.4 7.4 0 01-7.9-7z"/><path d="M83.6 244.6l.1.1A40.2 40.2 0 0070 218.6a40.4 40.4 0 00-30.3-10.7h-.5c14.8 2.6 24.9 13.6 30.3 32.9l1.5.1c7.6.9 11.8 2.1 12.6 3.7z" fill="#f80000"/></g><path d="M39.6 203.4l-.5-9.5" fill="none" id="uid_64" stroke="#98a2ae" stroke-linecap="round" stroke-linejoin="round" stroke-width="8.2"/><g id="uid_65"><path d="M71.2 184.4c-.3-.7-.7-1.4-1.2-1.9l-1.8-1c-.3-.2-.7-.3-1-.2l-.2.1a6.8 6.8 0 011.4 4.1c0 1.5-.2 3-.6 4.4v.4l.1.4c.3.3.6.4.8.2l.7-.5 1.3-1.6a4.6 4.6 0 00.5-4.4m-15.5-6.1l-.2.1c-.4 5.6-.1 11.2.8 16.8a9.5 9.5 0 009.9-9.7 7.5 7.5 0 00-1-3.2l-.3-.5A9.7 9.7 0 0062 179a8.2 8.2 0 00-6.3-.7z" fill="#aec1d4"/><path class="cl9" d="M19.4 182.6c-.1-.8-.5-1.6-1-2.2-.4-.5-1.1-.8-1.8-.8h-.1v.7c-1.1-.2-2.1.6-3.1 2.3a12.6 12.6 0 00-2 5.4c0 1.8.7 3.5 2 4.8a9.2 9.2 0 004.7 2.4h1c.6-.3 1-1 .9-1.6a29 29 0 00-.6-11m13.4-4.4c-.3-.4-.7-.6-1.1-.6-.5 0-.9.4-1.1 1.1-.1.4-.1.9.1 1.2a19.2 19.2 0 000 14.6c.6 1.3 1.2 2.1 1.9 2.2 1 .2 2-.2 2.5-1.1a6 6 0 00.8-2.6c.4-2.7.4-5.3 0-8-.4-3.1-1.4-5.4-3.1-6.8M5.5 189.9c-.1 1.4.7 2.7 1.9 3.3.6.3 1.3.2 1.8-.2.3-.4.4-.9.2-1.4-.3-1.6-.6-2.8-.6-3.4-.2-1.2 0-2.4.6-3.6.3-.4.4-.8.4-1.3l-.1-.4-.4.1c-1 .3-2 1.3-2.8 3a6.2 6.2 0 00-1 3.9z"/><path d="M45.6 177.3c-.5 0-.9.2-1.3.4-.3 6.4.1 12.8 1 19.1l2.8-2c.9-.7 1.6-1.7 2.1-2.7.4-1.1.6-2.3.6-3.4a40 40 0 000-4.9c-.3-3.3-1.3-5.4-3-6.1-.7-.3-1.5-.4-2.2-.4z" fill="#ccd6e1"/></g><path d="M11.1 197c3.2.7 6.5.9 9.8.6M42.5 177c2 .3 4 .4 6 .3" fill="none" id="uid_66" stroke="#aec1d4" stroke-linecap="round" stroke-linejoin="round" stroke-width="2"/></g></g></g></svg>