<?xml version="1.0" ?><svg height="1186px" preserveAspectRatio="none" viewBox="0 0 175.9 1186" width="175.9px" xmlns="http://www.w3.org/2000/svg" xmlns:xlink="http://www.w3.org/1999/xlink"><g id="s20-20" transform="translate(20, 20)"><g transform="translate(-0.0, -0.0)"><style>.cl0 {
    fill: none;
    stroke: #45c0e3;
    stroke-width: 3;
    stroke-linecap: round;
    stroke-linejoin: round
    }</style><g id="uid_1"><path class="cl0" d="M76.2 45.3c.6 7.3.8 14.7.6 22l-.4 11.5m-10.3-32c.5 9.8.6 20.4.2 32M37 46.8c.6 11.3 1 22 1.1 32m8.7-32.5a340 340 0 011.4 32.5m54.4-33c-.2 11 .1 22 1 33m-84.5-35c.5 10.7.6 22.4.1 35m8.9-35c1.1 11.6 1.6 23.3 1.5 35m28.1-35l.3 35m27.1-35l1.6 35m6.9-36.5c1.1 12.4 1.6 24.5 1.5 36.5m15.1-37.5c.4 11.3.5 23.8.3 37.5" id="uid_2"/><path class="cl0" d="M15.5 54.9v4.5" id="uid_3"/><path class="cl0" d="M23.5 74.8c.2.7.3 1.3.3 2l.3 2.1" id="uid_4"/><path class="cl0" d="M33.2 63c.3 1 .4 2 .2 3" id="uid_5"/><path class="cl0" d="M42.7 75.3l.3 3.6" id="uid_6"/><path class="cl0" d="M53.5 60.8v4" id="uid_7"/><path class="cl0" d="M71.5 70.6c.2.9.3 1.9.2 2.8 0 1 0 2 .2 3" id="uid_8"/><path class="cl0" d="M82 59.4l-.4 3.2" id="uid_9"/><path class="cl0" d="M115 59v3.2" id="uid_10"/><path class="cl0" d="M115.5 75.3c.1.8.1 1.7-.2 2.5" id="uid_11"/><path d="M129.7 41.7l-.2-.3-.4-.4-.4-.3-.5-.4c-.2-.1-.4-.3-.7-.3l-.5-.4-.8-.3-.8-.4-.9-.2-.6-.1-1.5-.2h-18.9A21 21 0 0097 22.8a21.2 21.2 0 00-15.6-6.4h-.8c-1-3.7-3-7-5.7-9.7A20 20 0 0059.5 0a21.2 21.2 0 00-18.6 10.1 21.2 21.2 0 00-10.5-2.5A21 21 0 0014.9 14a21.2 21.2 0 00-6.4 15.6c0 2.9.5 5.8 1.6 8.6h-.2v.2H8.4l-.6.1-.9.2c-.3 0-.6.2-.9.4l-.8.3-.7.4-.5.3-.5.4-.3.3-.4.4-.3.3-.2.4-.3.3-.2.4-.2.3-.1.4-.2.3-.3.7-.1.3-.1.4-.1.3v.4l-.1.3v1.1l-.2.3.2.4v1.1l.1.4v.3l.1.4.1.3.1.7.1.3.2.4.1.3.2.4.2.4.2.4.2.3.3.4.4.3.3.4.5.3.5.4.7.3 1.1.7.8.3.9.2.6.2 1.5.1h112.6l1.5-.1.6-.2.9-.2c.3 0 .6-.2.8-.3l.8-.4.5-.3.7-.4.5-.3.4-.4.4-.3.2-.4.2-.3.2-.4.2-.3.2-.4.1-.3.2-.4.1-.3.1-.4.1-.3.1-.4.1-.3v-.4l.1-.3V47l-.1-.4v-.3l-.1-.4-.1-.3-.1-.4-.1-.3-.1-.4-.2-.3-.1-.4-.2-.3a.8.8 0 01-.2-.4l-.2-.3-.2-1.1z" fill="#6e6d66" id="uid_12"/><g id="uid_13"><path d="M44.3 32.1v-.4l-.2-2.3-8.5.6c.3 1 .5 2.1.5 3.2 0 2.5-1 4.8-2.8 6.5a8.8 8.8 0 01-6.5 2.8h-.2a12 12 0 005.9 1.5c3.2.1 6.2-1.2 8.4-3.5l.2-.2c2-2.2 3.2-5.2 3.2-8.2M60 38.2a8.8 8.8 0 01-3.9 2.4l-.3.1a9 9 0 01-2.3.3h-1.1c1 .6 2.2 1 3.3 1.3l1.7.2h.9a11 11 0 007.5-2.7l1-.8c2.3-2.2 3.6-5.2 3.5-8.4 0-1-.1-2.1-.3-3.1l-7.8.6a9.2 9.2 0 01.2 6.6 5 5 0 01-.5 1.3c-.6.9-1.2 1.6-1.9 2.2z" fill="#ebebeb"/><path d="M23.9 40.5l.2.2c.7.7 1.5 1.3 2.4 1.8h.2c2.5 0 4.8-1 6.5-2.8 1.8-1.7 2.8-4 2.8-6.5 0-1.1-.2-2.1-.5-3.1l-15 1.1v.9c-.1 3.1 1.1 6.1 3.3 8.2l.1.2m38.2-12.4l-15.5 1.1-.1 1.4a11 11 0 002.7 7.6l.3.3.4.5.3.3 1.5 1.2.7.5c.2.2.7 0 1.1 0l2.2-.2.3-.1a8.8 8.8 0 003.9-2.4c.7-.6 1.3-1.4 1.7-2.2l.5-1.3c.3-1 .5-2 .5-3 .2-1.3-.1-2.6-.5-3.7z" fill="#333"/></g><path d="M69 47.8c-.2-.4 0-.8.3-1 .4-.3.7-.6.9-1 .4-.8 1.1-1.5 1.9-2a8.8 8.8 0 019.4.5" fill="none" id="uid_14" stroke="#000" stroke-linecap="round" stroke-linejoin="round" stroke-width="3"/></g></g></g><g id="s20-126" transform="translate(20, 126)"><g transform="translate(-135.9, -0.0)"><style>.cl1 {
    fill: none;
    stroke: #45c0e3;
    stroke-width: 3;
    stroke-linecap: round;
    stroke-linejoin: round
    }</style><g id="uid_16"><path class="cl1" d="M222.8 55.6c.5 8.4.8 16.5 1 24.2m-30.1-22.5l1.4 17.3.3 5.2m8.3-22.9c-.1 8 0 15.6.2 22.9m9-23.9c.4 7.8.6 15.8.6 23.9m-41.3-24.9l1.7 24.9m-10.2-25.6c1 8.5 1.6 17.1 1.6 25.7m18.1-23.2c1 8 1.7 15.7 2.2 23.2m54.5-26.1c.1 8.1.6 16.8 1.4 26m6.7-27.6l.7 27.7m-17.3-25.6l1 25.5" id="uid_17"/><path class="cl1" d="M157.6 52.4c.9 9 1.3 18 1.1 27" id="uid_18"/><path class="cl1" d="M152.8 61.3v3.8" id="uid_19"/><path class="cl1" d="M161.1 79.3l.2 1.6" id="uid_20"/><path class="cl1" d="M170.6 69.1l.2 4.6" id="uid_21"/><path class="cl1" d="M179.8 79.1c.2.5.2 1 .2 1.5" id="uid_22"/><path class="cl1" d="M191.1 67.3v3.8" id="uid_23"/><path class="cl1" d="M208.8 77.3l.2 1.8.2.5" id="uid_24"/><path class="cl1" d="M219.1 64.3l.2 2.1v2.5" id="uid_25"/><path class="cl1" d="M252.3 63.1l.1 1.9c0 1-.2 1.9-.4 2.9" id="uid_26"/><path class="cl1" d="M252.6 79.1v1.2" id="uid_27"/><path class="cl1" d="M235.8 57.9c-.2 1.1-.3 2.2-.2 3.2" id="uid_28"/><path class="cl1" d="M178.1 58.7l.5 3.1" id="uid_29"/><path d="M267.1 42.7l-.2-.4-.4-.4-.4-.4-.5-.4-.6-.4-.5-.4-.8-.4-.9-.4-.9-.2-.6-.1-1.5-.1H241c.1-5.9-2.2-11.5-6.4-15.5a21.7 21.7 0 00-15.6-6.5h-.8a22 22 0 00-36.7-9.8l-.1.1a27.6 27.6 0 00-3.1 3.7 22.3 22.3 0 00-10.4-2.6 21 21 0 00-15.6 6.5 21.2 21.2 0 00-6.4 15.6c0 2.9.5 5.8 1.6 8.5h-.2v.1h-1.5l-.6.1-.9.2-.9.4a3 3 0 00-.8.4l-.6.4-.5.4-.5.4-.4.4-.4.4-.4.4-.2.4-.2.4-.2.4-.2.4-.1.4-.2.4-.1.4-.1.4-.1.4-.1.4v.4l-.1.4v1.1l-.1.4.1.4v1.1l.1.4v.1l.1.4.1.4.1.4.1.4.2.4.1.4.2.4.2.4.2.4.2.4.4.4.4.4.4.4.5.4.5.4.6.4.8.4.9.4.9.2.6.1 1.5.1h112.6l1.5-.1.6-.1.9-.2c.3 0 .6-.3.9-.4l.8-.4.5-.4.6-.4.5-.4.4-.4.4-.4.2-.4.2-.4.2-.4.2-.4.2-.4.1-.4.2-.4.1-.4.1-.4.1-.4.4-.4.1-.4v-.4l.1-.4v-2.3l-.1-.4v-.4l-.1-.4-.1-.4-.1-.4-.1-.4-.1-.4-.2-.4-.1-.4-.2-.4a.8.8 0 01-.2-.4l-.2-.4c-.4.3-.5.2-.6 0z" fill="#6e6d66" id="uid_30"/><g id="uid_31"><path d="M181.8 33.2v-.4l-.2-2.3-8.5.6c.3 1 .5 2.1.5 3.1 0 1.5-.3 2.9-1.1 4.2-.4.8-1 1.6-1.7 2.2a8.8 8.8 0 01-6.5 2.8h-.3a12 12 0 005.9 1.5c3.2.1 6.2-1.2 8.4-3.5l.2-.2c2.1-2 3.3-5 3.3-8m15.7 6.1a8.8 8.8 0 01-3.9 2.4l-.4.1c-.7.2-1.5.3-2.2.2h-1.1c1 .6 2.2 1 3.4 1.3l1.7.2h.9c2.7.1 5.4-.9 7.4-2.7l.9-.8c2.3-2.2 3.6-5.2 3.5-8.4 0-1-.1-2.1-.4-3.1l-7.9.6a9.2 9.2 0 01.2 6.6c-.1.5-.3.9-.6 1.3-.2.9-.8 1.7-1.5 2.3z" fill="#ebebeb"/><path d="M161.4 41.6l.2.2c.7.7 1.5 1.3 2.4 1.8h.2c2.5 0 4.8-1 6.5-2.8a9 9 0 002.3-9.5l-15 1.1-.1.9c-.1 3.1 1.1 6.1 3.3 8.2l.2.1m38.1-12.4L184 30.3l-.1 1.4a11 11 0 002.7 7.6l.4.3.4.5.4.3 1.4 1.2.7.5c.2.2.7 0 1.1 0l2.2-.2.4-.1a8.8 8.8 0 003.9-2.4c.7-.7 1.3-1.4 1.7-2.2l.6-1.3c.3-1 .5-2 .5-3 0-1.4-.3-2.6-.8-3.7z" fill="#333"/></g><path d="M206.4 48.8c-.1-.4 0-.8.3-1 .4-.3.7-.6.9-1 .4-.8 1.1-1.5 1.9-2a8.6 8.6 0 014.7-1.1c1.7.1 3.3.6 4.6 1.6" fill="none" id="uid_32" stroke="#000" stroke-linecap="round" stroke-linejoin="round" stroke-width="3"/></g></g></g><g id="s20-232" transform="translate(20, 232)"><g transform="translate(-271.8, -0.0)"><style>.cl2 {
    fill: none;
    stroke: #45c0e3;
    stroke-width: 3;
    stroke-linecap: round;
    stroke-linejoin: round
    }</style><g id="uid_34"><path class="cl2" d="M362.1 53.5c.5 7.9.9 16.5 1 26m-30.4-26c.8 8 1.4 16.7 1.6 26m17.3-25c-.2 7.9 0 16.3.5 25m-9-28.5l1.6 28.5m-50.1-32l1.9 30m5.3-29L303 79m6.6-26.5c1.6 8.9 2.4 17.9 2.4 27m10.1-28l2.5 28M388.1 49l1.3 30.5m-9.7-29l1.1 29M371.2 50a323 323 0 011 29.5" id="uid_35"/><path class="cl2" d="M291.2 65.8c-.2 1.1-.3 2.2-.2 3.2" id="uid_36"/><path class="cl2" d="M309.2 74.2c-.2.8-.2 1.6-.2 2.3" id="uid_37"/><path class="cl2" d="M317.5 62.2V64l.1 1.1.1 1.1" id="uid_38"/><path class="cl2" d="M329.5 71v3.2" id="uid_39"/><path class="cl2" d="M357.7 69.5c.1 1 0 1.9-.2 2.8" id="uid_40"/><path class="cl2" d="M374.3 62.2l-.2 1.3v.5l.1.9" id="uid_41"/><path class="cl2" d="M391 68.5c-.2.8-.2 1.6-.2 2.3" id="uid_42"/><path class="cl2" d="M338.5 58.5v1.2" id="uid_43"/><path d="M405.8 42.7l-.2-.4-.4-.4-.4-.4-.5-.4-.6-.4-.5-.4-.8-.4-.9-.4-.9-.2-.6-.1-1.5-.1h-18.9c.1-5.9-2.2-11.5-6.5-15.5a21.6 21.6 0 00-15.5-6.5h-.8a22 22 0 00-36.7-9.8l-.1.1a21.1 21.1 0 00-3 3.7 22.4 22.4 0 00-10.5-2.6A21 21 0 00291 15a22.5 22.5 0 00-4.9 24.1h-.1v.1h-1.5l-.6.1-.9.2-.9.4a3 3 0 00-.8.4l-.6.4-.5.4-.5.4-.4.4-.4.4-.4.4-.2.4-.2.4-.2.4-.2.4-.1.4-.2.4-.1.4-.1.4-.1.4-.1.4v.4l-.1.4v1.1l-.1.4.1.4v1.1l.1.4v.1l.1.4.1.4.1.4.1.4.2.4.1.4.2.4.2.4.2.4.2.4.4.4.4.4.4.4.5.4.5.4.6.4.8.4.9.4.9.2.6.1 1.5.1h112.5l1.5-.1.6-.1.9-.2c.3 0 .6-.3.9-.4l.8-.4.5-.4.6-.4.5-.4.4-.4.4-.4.2-.4.2-.4.2-.4.2-.4.2-.4.1-.4.2-.4.1-.4.1-.4.1-.4.1-.4.1-.4v-.4l.1-.4v-2.3l-.1-.4v-.4l-.1-.4-.1-.4-.1-.4-.1-.4-.1-.4-.2-.4-.1-.4-.2-.4a.8.8 0 01-.2-.4l-.2-.4c-.1.3-.1.2-.2 0z" fill="#6e6d66" id="uid_44"/><g id="uid_45"><path d="M320.4 33.2v-.4l-.2-2.3-8.5.6c.3 1 .5 2.1.5 3.1a8.7 8.7 0 01-2.7 6.4 8.8 8.8 0 01-6.5 2.8h-.2a12 12 0 005.9 1.5c3.2.1 6.2-1.2 8.4-3.5l.2-.2c2-2 3.1-5 3.1-8m15.7 6.1a8.8 8.8 0 01-3.9 2.4l-.4.1c-.7.2-1.5.3-2.2.2h-1.1c1 .6 2.2 1 3.4 1.3l1.7.2h.9a11 11 0 007.5-2.7l1-.8c2.3-2.2 3.6-5.2 3.5-8.4 0-1-.1-2.1-.4-3.1l-7.9.6a9.2 9.2 0 01.2 6.6 5 5 0 01-.5 1.3c-.5.9-1.1 1.7-1.8 2.3z" fill="#ebebeb"/><path d="M300 41.6l.2.2c.7.7 1.5 1.3 2.4 1.8h.2c2.5 0 4.8-1 6.5-2.8.7-.7 1.3-1.4 1.7-2.2a7.9 7.9 0 001-4.2c0-1.1-.2-2.1-.5-3.1l-15 1.1v.9c-.1 3.1 1.1 6.1 3.3 8.2l.2.1m38.1-12.4l-15.5 1.1-.1 1.4a11 11 0 002.7 7.6l.4.3.4.5.4.3 1.5 1.2.7.5c.2.2.7 0 1.1 0l2.2-.2.4-.1a8.8 8.8 0 003.9-2.4c.7-.7 1.3-1.4 1.7-2.2l.5-1.3c.3-1 .5-2 .5-3 0-1.4-.3-2.6-.8-3.7z" fill="#333"/></g><path d="M345.1 48.8c-.1-.4 0-.8.3-1l1-1c.4-.8 1.1-1.5 1.9-2a8.6 8.6 0 014.7-1.1c1.7.1 3.3.6 4.6 1.6" fill="none" id="uid_46" stroke="#000" stroke-linecap="round" stroke-linejoin="round" stroke-width="3"/></g></g></g><g id="s20-338" transform="translate(20, 338)"><g transform="translate(-0.0, -85.5)"><style>.cl3 {
    fill: none;
    stroke: #45c0e3;
    stroke-width: 3;
    stroke-linecap: round;
    stroke-linejoin: round
    }</style><g id="uid_48"><path class="cl3" d="M77.1 141.6l1.9 24.1m14.1-25.1c.4 2.5.6 5.1.7 7.7v7.7c.1 3.3.4 6.5.8 9.8M83 141.7l1.3 24m3.6-24.1c.6 8.5 1.3 16.5 2.2 24.1m-31-23.6l1.2 23.6m9.2-24.5c.2 8.6.6 16.8 1.2 24.5m-46.1-25.6c.3 9.9.7 18.4 1.4 25.6m23.4-22.9c.4 8.1 1 15.8 1.9 22.9m-14-24c.7 8.4 1.4 16.4 2.2 24m61.5-25.6l1.6 25.6m6.4-27.1c.5 3.1.8 6.3.8 9.4l.8 17.8" id="uid_49"/><path class="cl3" d="M21 139.1c1 8.9 1.6 18.1 1.9 27.5" id="uid_50"/><path class="cl3" d="M62.5 147.3c-.2 1-.3 2-.2 3" id="uid_51"/><path class="cl3" d="M53.3 162.4v2.8" id="uid_52"/><path class="cl3" d="M41.8 153.4l-.2 1.5.2 1.4" id="uid_53"/><path class="cl3" d="M33.1 163.4l-.1 1c.1.4 0 .7-.2 1" id="uid_54"/><path class="cl3" d="M15.3 157v3" id="uid_55"/><path class="cl3" d="M81 160.2c-.2.9-.2 1.7-.2 2.6" id="uid_56"/><path class="cl3" d="M98.3 153c0 .6.1 1.3.3 1.9" id="uid_57"/><path class="cl3" d="M115 159.2c-.2.6-.2 1.2-.2 1.9" id="uid_58"/><path d="M129.7 129.3l-.2-.4-.4-.4-.4-.4-.5-.4c-.2-.1-.4-.3-.7-.3l-.5-.4-.8-.3-.8-.4-.9-.2-.6-.1-1.5-.2h-18.9a22 22 0 00-22-22h-.8a22 22 0 00-39.7-6 22.4 22.4 0 00-26.1 3.8 21.2 21.2 0 00-6.4 15.6c0 2.9.5 5.8 1.6 8.6h-.2v.2H8.4l-.6.1-.9.2c-.3 0-.6.3-.8.4l-.8.3-.7.4-.5.3-.5.4-.3.4-.4.5-.3.4-.2.4-.2.4-.2.4-.2.4-.1.4-.2.4-.5.2-.1.4-.1.4-.1.4v.4l-.1.4v1.1l-.2.4.2.4v1.1l.1.4v.4l.1.4.1.4.1.4.1.4.2.4.1.4.2.4.2.4.2.4.2.4.3.4.4.4.3.4.5.4.5.4.7.4.8.4.8.4.9.2.6.1 1.5.1h112.6l1.5-.1.6-.1.9-.2.8-.4.8-.4.5-.4.7-.4.5-.4.4-.4.4-.4.2-.4.2-.4.2-.4.2-.4.2-.4.1-.4.2-.4.1-.4.1-.4.1-.4.1-.4.1-.4v-.4l.1-.4v-2.3l-.1-.4v-.4l-.1-.4-.1-.4-.1-.4-.1-.4-.1-.4-.2-.4-.1-.4-.2-.4a.8.8 0 01-.2-.4l-.2-.4c.2.1.1-.1.1-.2z" fill="#6e6d66" id="uid_59"/><g id="uid_60"><path d="M44.3 119.8v-.3l-.2-2.3-8.5.7c.3 1 .5 2.1.5 3.2 0 2.5-1 4.8-2.8 6.5a8.4 8.4 0 01-6.5 2.7h-.2a12 12 0 0014.2-2l.2-.2c2.1-2.4 3.3-5.3 3.3-8.3m15.7 6.1a9.8 9.8 0 01-3.9 2.4l-.3.1c-.7.2-1.5.3-2.2.2l-1.1-.1c1 .6 2.2 1 3.3 1.3l1.7.2.9.1a11 11 0 007.5-2.7l1-.8c2.3-2.2 3.6-5.2 3.5-8.4 0-1-.1-2.1-.3-3.1l-7.8.6a9.4 9.4 0 01.2 6.6 5 5 0 01-.5 1.3c-.7.9-1.3 1.7-2 2.3z" fill="#ebebeb"/><path d="M23.9 128.1l.2.2c.7.7 1.5 1.3 2.4 1.8h.2c2.5 0 4.8-1 6.5-2.8a9 9 0 002.7-6.5c0-1.1-.2-2.1-.5-3.2l-15 1.1v.9c-.1 3.1 1.1 6.1 3.3 8.2l.2.3m38.2-12.4l-15.5 1.2-.1 1.3a11 11 0 002.7 7.6l.3.3.4.4.3.3c.5.4.9.8 1.5 1.1l.7.4 1.1.1 2.2-.2.3-.1a9.8 9.8 0 003.9-2.4c.7-.7 1.3-1.4 1.7-2.2l.5-1.3c.3-.9.5-1.9.5-2.9.2-1.2-.1-2.4-.5-3.6z" fill="#333"/></g><path d="M69 135.4c-.2-.4 0-.8.3-1 .4-.3.7-.6.9-1 .4-.8 1.1-1.5 1.9-2a8.8 8.8 0 019.4.5" fill="none" id="uid_61" stroke="#000" stroke-linecap="round" stroke-linejoin="round" stroke-width="3"/></g></g></g><g id="s20-444" transform="translate(20, 444)"><g transform="translate(-135.9, -85.5)"><style>.cl4 {
    fill: none;
    stroke: #45c0e3;
    stroke-width: 3;
    stroke-linecap: round;
    stroke-linejoin: round
    }</style><g id="uid_63"><path class="cl4" d="M228.5 138.9c.9 9.1 1.4 18.3 1.4 27.5m-11.5-26.5c1 8.5 1.7 17.3 1.9 26.5m-11.9-29c1.4 10.1 2.4 19.8 3 29m-11.6-27c.1 7.7.6 16.7 1.4 27m-45.2-30l1.7 30m6.6-30.5a534 534 0 00-.3 30.5m14.3-29c1.2 9.4 2.2 19.1 3 29m9-27a448 448 0 012.2 27m43.3-28c1.5 9.3 2.3 18.6 2.4 28m7.1-28l-.4 28" id="uid_64"/><path class="cl4" d="M251.2 163.6c-.2.8-.2 1.6-.2 2.4" id="uid_65"/><path class="cl4" d="M235 157.4v2.2" id="uid_66"/><path class="cl4" d="M217 165.1v1.8" id="uid_67"/><path class="cl4" d="M179 158.1c.1.7 0 1.4-.1 2.1l-.1 1v1" id="uid_68"/><path class="cl4" d="M152 163.1l.2 1.8.2 1.9" id="uid_69"/><path class="cl4" d="M171 146.6l.1 1.9c.2.4.2.8.1 1.1" id="uid_70"/><path class="cl4" d="M201.2 154.4c.3 1 .3 2.1 0 3.1" id="uid_71"/><path class="cl4" d="M185.5 146.6v3" id="uid_72"/><path class="cl4" d="M224.2 145.9v3.2" id="uid_73"/><path d="M266.9 130.3l-.2-.4-.4-.4-.4-.4-.5-.4-.6-.4-.5-.4c-.2-.1-.5-.3-.8-.3l-.9-.4-.9-.2-.6-.1-1.5-.2h-18.9a22 22 0 00-22-22h-.8a22 22 0 00-39.8-6 22 22 0 00-32.4 19.4c0 2.9.5 5.8 1.6 8.6h-.2v.2h-1.5l-.6.1-.9.2-.9.4-.8.3-.6.4-.5.4-.5.4-.4.4-.4.4-.4.4-.2.4-.2.4-.2.4-.2.4-.1.4-.2.4-.1.4-.1.4-.1.4-.1.4v.4l-.1.4v1.1l-.1.4.1.4v1.1l.1.4v.4l.1.4.1.4.1.4.1.4.2.4.1.4.2.4.2.4.2.4.2.4.4.4.4.4.4.4.5.4.5.4.6.4.8.4.9.4.9.2.6.1 1.5.1h112.5l1.5-.1.6-.1.9-.2.9-.4.8-.4.5-.4.6-.4.5-.4.4-.4.4-.4.2-.4.2-.4.2-.4.2-.4.2-.4.1-.4.2-.4.1-.4.1-.4.1-.4.1-.4.1-.4v-.4l.1-.4v-2.2l-.1-.4v-.4l-.1-.4-.1-.4-.1-.4-.1-.4-.1-.4-.2-.4-.1-.4-.2-.4a.8.8 0 01-.2-.4l-.2-.4a.8.8 0 01-.2-.4z" fill="#6e6d66" id="uid_74"/><g id="uid_75"><path d="M181.4 120.7v-.3l-.2-2.3-8.5.7c.3 1 .5 2.1.5 3.2a8.7 8.7 0 01-2.7 6.4 8.8 8.8 0 01-6.5 2.8h-.2a11.8 11.8 0 0014.2-2l.2-.2a11 11 0 003.2-8.3m15.8 6.2a8.8 8.8 0 01-3.9 2.4l-.4.1c-.7.2-1.5.3-2.2.2h-1.1c1.5.9 3.3 1.4 5.1 1.5h.9c2.7 0 5.4-.9 7.4-2.6l.9-.8c2.3-2.2 3.6-5.2 3.5-8.4 0-1-.1-2.1-.4-3.1l-7.9.6a9.4 9.4 0 01.2 6.7c-.1.5-.3.9-.6 1.3-.2.7-.8 1.4-1.5 2.1z" fill="#ebebeb"/><path d="M161.1 129.1l.2.2c.7.7 1.5 1.3 2.4 1.8h.3c2.5 0 4.8-1 6.5-2.8.7-.7 1.3-1.4 1.7-2.2a9 9 0 001-4.2c0-1.1-.2-2.1-.5-3.2l-15 1.1v.9c-.1 3.1 1.1 6.1 3.3 8.3l.1.1m38.2-12.4l-15.5 1.2-.1 1.3a11 11 0 002.7 7.6l.4.3.4.4.4.3 1.4 1.1.7.4h1.1l2.2-.2.4-.1a8.8 8.8 0 003.9-2.4c.7-.7 1.3-1.4 1.7-2.2l.6-1.3c.3-1 .5-2 .5-3-.1-1-.4-2.2-.8-3.4z" fill="#333"/></g><path d="M206.1 136.4c-.2-.4 0-.8.3-1l1-1c.4-.8 1.1-1.5 1.9-2a8.6 8.6 0 014.7-1.1c1.7.1 3.3.6 4.6 1.6" fill="none" id="uid_76" stroke="#000" stroke-linecap="round" stroke-linejoin="round" stroke-width="3"/></g></g></g><g id="s20-550" transform="translate(20, 550)"><g transform="translate(-271.8, -85.5)"><style>.cl5 {
    fill: none;
    stroke: #45c0e3;
    stroke-width: 3;
    stroke-linecap: round;
    stroke-linejoin: round
    }</style><g id="uid_78"><path class="cl5" d="M360.7 141.4l1.1 24.9m3.7-24.9c.2 8.4.8 16.7 1.8 24.9m-14.2-23.2a954 954 0 011.8 23.1m-9.2-22.3l1.4 22.4m-12.2-23.7c.7 8.3 1.2 16.1 1.5 23.6m-33.8-25.1c.2 6.9.2 15.3 0 25.1m-9-27.4a407 407 0 002.5 27.5m27.9-23.4c.6 8.6 1.2 16.4 1.9 23.4m-11.7-23.4l2.4 23.4m57.2-25.8l2 25.8m6.4-27c-.2 8.4 0 17.4.5 27" id="uid_79"/><path class="cl5" d="M307.9 152.5c-.2.7-.2 1.4 0 2.1" id="uid_80"/><path class="cl5" d="M321.6 150.8v3" id="uid_81"/><path class="cl5" d="M337.9 160.5c.1.6.1 1.2-.1 1.8l-.4 2" id="uid_82"/><path class="cl5" d="M371.9 162.8c.2.6.3 1.3.3 1.9 0 .6 0 1.3.2 1.9" id="uid_83"/><path d="M403.6 130.3l-.2-.4-.4-.4-.4-.4-.5-.4-.6-.4-.5-.3c-.2-.1-.5-.3-.8-.3l-.9-.4-.9-.2-.6-.1-1.5-.2h-18.9a22 22 0 00-22-22h-.8a22 22 0 00-39.8-6 22 22 0 00-32.5 19.4c0 2.9.5 5.8 1.6 8.6h-.2v.2h-1.5l-.6.1-.9.2-.9.4-.8.3-.6.4-.5.4-.5.4-.4.4-.4.4-.4.4-.2.4-.2.4-.2.4-.2.4-.1.4-.2.4-.1.4-.1.4-.1.4-.1.4v.4l-.1.4v1.1l-.1.4.1.4v1.1l.1.4v.4l.1.4.1.4.1.4.1.4.2.4.1.4.2.4.2.4.2.4.2.4.4.4.4.4.4.4.5.4.5.4.6.4.8.4.9.4.9.2.6.1 1.5.1h112.5l1.5-.1.6-.1.9-.2.9-.4.8-.4.5-.4.6-.4.5-.4.4-.4.4-.4.2-.4.2-.4.2-.4.2-.4.2-.4.1-.4.2-.4.1-.4.1-.4.1-.4.1-.4.1-.4v-.4l.1-.4v-2.2l-.1-.4v-.4l-.1-.4-.1-.4-.1-.4-.1-.4-.1-.4-.2-.4-.1-.4-.2-.4a.8.8 0 01-.2-.4l-.2-.4c.1-.2 0-.4-.1-.5z" fill="#6e6d66" id="uid_84"/><g id="uid_85"><path d="M318.2 120.7v-.3l-.2-2.3-8.5.7c.3 1 .5 2.1.5 3.2a8.7 8.7 0 01-2.7 6.4 8.8 8.8 0 01-6.5 2.8h-.2a11.8 11.8 0 0014.2-2l.2-.2c2.1-2.3 3.3-5.2 3.2-8.3m15.8 6.2a8.8 8.8 0 01-3.9 2.4l-.4.1c-.7.2-1.5.3-2.2.2h-1.1c1.5.9 3.2 1.4 5 1.5h.9a12 12 0 007.5-2.6l1-.8c2.3-2.2 3.6-5.2 3.5-8.4 0-1-.1-2.1-.4-3.1l-7.9.6a9.4 9.4 0 01.2 6.7 5 5 0 01-.5 1.3c-.5.7-1 1.4-1.7 2.1z" fill="#ebebeb"/><path d="M297.9 129.1l.2.2c.7.7 1.5 1.3 2.4 1.8h.2c2.5 0 4.8-1 6.5-2.8.7-.7 1.3-1.4 1.7-2.2a7.9 7.9 0 001-4.2c0-1.1-.2-2.1-.5-3.2l-15 1.1v.9c-.1 3.1 1.1 6.1 3.3 8.3l.2.1m38.1-12.4l-15.5 1.2-.1 1.3a11 11 0 002.7 7.6l.4.3.4.4.4.3c.5.4.9.8 1.5 1.1l.7.4h1.1l2.2-.2.4-.1a8.8 8.8 0 003.9-2.4c.7-.7 1.3-1.4 1.7-2.2l.5-1.3c.3-1 .5-2 .5-3-.1-1-.3-2.2-.8-3.4z" fill="#333"/></g><path d="M342.9 136.4c-.2-.4 0-.8.3-1l1-1c.4-.8 1.1-1.5 1.9-2a8.6 8.6 0 014.7-1.1c1.7.1 3.3.6 4.6 1.6" fill="none" id="uid_86" stroke="#000" stroke-linecap="round" stroke-linejoin="round" stroke-width="3"/></g></g></g><g id="s20-656" transform="translate(20, 656)"><g transform="translate(-0.0, -171.0)"><style>.cl6 {
    fill: none;
    stroke: #45c0e3;
    stroke-width: 3;
    stroke-linecap: round;
    stroke-linejoin: round
    }</style><g id="uid_88"><path class="cl6" d="M77.6 223.1c.8 9.4 1.6 19.4 2.2 30m4.6-31.5c.1 10.5.4 21 1 31.5m6-34c.5 13 1 24.3 1.6 34m-21.7-30l1.1 30m-11.9-31.5l1.5 31.5m-41.2-31l3.5 31m6.9-32.5v32.5m7.6-32l2.4 32m5.1-30.5l2.7 30.5m5.2-30a651 651 0 011.9 30m43-34c.4 10.4 1.2 21.7 2.5 34m6.2-35.7a478 478 0 012.8 35.6" id="uid_89"/><path class="cl6" d="M33.2 243.3l-.2 1.4.2 1.2" id="uid_90"/><path class="cl6" d="M97.4 252.6a1 1 0 000 1.1v.3" id="uid_91"/><path class="cl6" d="M67.2 235.3v1.8l-.2 1.8" id="uid_92"/><path class="cl6" d="M18 231.8v3.5" id="uid_93"/><path class="cl6" d="M114.2 227.4c-.2 1.2-.3 2.3-.2 3.5" id="uid_94"/><path d="M129.3 217l-.2-.4-.4-.4-.4-.4-.5-.4-.7-.4-.5-.4-.8-.4-.8-.4-.9-.2-.6-.1-1.5-.1h-18.9a22 22 0 00-22-22h-.8a22.1 22.1 0 00-21.2-16.2 20.8 20.8 0 00-15.5 6.4 27 27 0 00-3 3.7 22.4 22.4 0 00-26.1 3.8A21.3 21.3 0 008 204.7c0 2.9.5 5.8 1.6 8.6h-.1v.1H8l-.6.1-.9.2c-.3 0-.6.3-.8.4a3 3 0 00-.8.4l-.7.4-.5.4-.5.4-.3.4-.4.4-.3.4-.2.4-.2.4-.2.4-.2.4-.1.4-.2.4-.1.4-.2.4-.1.4-.2.4v.4l-.1.4v1.1l-.2.4.2.4v1.1l.1.4v.4l.2.4.1.4.1.4.1.4.2.4.1.4.2.4.2.4.2.4.3.4.3.4.4.4.3.4.5.4.5.4.7.4.8.4.8.4.9.2.6.1 1.5.1h112.6l1.5-.1.6-.1.9-.2.8-.4.8-.4.5-.4.7-.4.5-.4.4-.4.4-.4.2-.4.2-.4.2-.4.2-.4.2-.4.1-.4.2-.4.1-.4.1-.4.1-.4.1-.4.1-.4v-.4l.1-.4v-2.2l-.1-.4v-.4l-.1-.4-.1-.4-.1-.4-.1-.4-.1-.4-.2-.4-.1-.4-.2-.4a.8.8 0 01-.2-.4l-.2-.4-.3-.3z" fill="#6e6d66" id="uid_95"/><g id="uid_96"><path d="M43.9 207.4v-.4l-.2-2.3-8.5.6c.3 1 .5 2.1.5 3.1a8.7 8.7 0 01-2.7 6.4 8.8 8.8 0 01-6.5 2.8h-.2a12 12 0 0014.2-2l.2-.2c2.1-2 3.3-5 3.2-8m15.8 6.2a8.8 8.8 0 01-3.9 2.4l-.3.1c-.7.2-1.5.3-2.2.2l-1.1-.1c1 .6 2.2 1 3.3 1.3l1.7.2.9.1c2.7.1 5.4-.9 7.5-2.6l1-.9c2.3-2.2 3.6-5.2 3.5-8.4 0-1-.1-2.1-.3-3.1l-7.8.6a9.2 9.2 0 01-.3 7.8l-2 2.4z" fill="#ebebeb"/><path d="M23.5 215.8l.2.2c.7.7 1.5 1.3 2.4 1.8h.2c2.5 0 4.8-1 6.5-2.8.7-.6 1.3-1.4 1.7-2.2a9 9 0 001-4.2c0-1.1-.2-2.1-.5-3.1l-15 1.1v.9c-.1 3.1 1.1 6.1 3.3 8.2l.2.1m38.2-12.4l-15.5 1.1-.1 1.4a11 11 0 002.7 7.6l.3.4.4.4.3.4c.5.4.9.8 1.5 1.1l.7.4 1.1.1 2.2-.2.3-.1a8.8 8.8 0 003.9-2.4c.7-.6 1.3-1.4 1.7-2.2l.5-1.3c.3-.9.5-1.9.5-2.9a7 7 0 00-.5-3.8z" fill="#333"/></g><path d="M68.6 223.1c-.2-.4 0-.8.3-1 .4-.3.7-.6.9-1 .4-.8 1.1-1.5 1.9-2a8.8 8.8 0 019.4.5" fill="none" id="uid_97" stroke="#000" stroke-linecap="round" stroke-linejoin="round" stroke-width="3"/></g></g></g><g id="s20-762" transform="translate(20, 762)"><g transform="translate(-135.9, -171.0)"><style>.cl7 {
    fill: none;
    stroke: #45c0e3;
    stroke-width: 3;
    stroke-linecap: round;
    stroke-linejoin: round
    }</style><g id="uid_99"><path class="cl7" d="M213.7 228.5c.6 8.5 1.3 16.5 2.3 24.1m5.1-23.4c.4 8.3.6 16.1.6 23.4m6.7-25.1c.5 7.7.9 16.1 1.1 25.1m-32.2-22.1l1.2 22.1m8.6-23.1c.4 7.3 1.1 15 2.1 23.1m-41.5-26c-.1 8.4.1 17.1.6 26m-10.7-27.4l2.8 27.4m22.9-23.6l.9 23.6m-8.5-23.9c.3 8 .6 16 1.1 23.9m14.4-22.5c0 8.2.3 15.7.9 22.5m44.7-26.1c0 8.7.3 17.4 1 26.1m8.5-27.1a1269 1269 0 002.1 27.1" id="uid_100"/><path class="cl7" d="M251.2 231.2c0 1.3 0 2.6.2 3.9" id="uid_101"/><path class="cl7" d="M204 240.5c-.2 1.5-.3 3-.2 4.5" id="uid_102"/><path class="cl7" d="M171 246.5c-.2 1.1-.3 2.2-.2 3.2" id="uid_103"/><path class="cl7" d="M154.2 236.6c.4 1.1.4 2.2 0 3.2" id="uid_104"/><path d="M266.9 216.2l-.2-.4-.4-.4-.4-.4-.5-.4-.6-.4-.5-.4-.8-.4-.9-.4-.9-.2-.6-.1-1.5-.1h-18.9a22 22 0 00-22-22h-.8a22 22 0 00-39.8-6 22 22 0 00-32.4 19.4c0 2.9.5 5.8 1.6 8.6h-.2v.1h-1.5l-.6.3-.9.2-.9.4a3 3 0 00-.8.4l-.6.4-.5.4-.5.4-.4.4-.4.4-.4.4-.2.4-.2.4-.2.4-.2.4-.1.4-.2.4-.1.4-.1.4-.1.4-.1.4v.4l-.1.4v1.1l-.1.4.1.4v1.1l.1.4v.4l.1.4.1.4.1.4.1.4.2.4.1.4.2.4.2.4.2.4.2.4.4.4.4.4.4.4.5.4.5.4.6.4.8.4.9.4.9.2.6.1 1.5.1h112.5l1.5-.1.6-.1.9-.2.9-.4.8-.4.5-.4.6-.4.5-.4.4-.4.4-.4.2-.4.2-.4.2-.4.2-.4.2-.4.1-.4.2-.4.1-.4.1-.4.1-.4.1-.4.1-.4v-.4l.1-.4v-2.2l-.1-.4v-.4l-.1-.4-.1-.4-.1-.4-.1-.4-.1-.4-.2-.4-.1-.4-.2-.4a.8.8 0 01-.2-.4l-.2-.4-.2-.6z" fill="#6e6d66" id="uid_105"/><g id="uid_106"><path d="M181.4 206.7v-.4l-.2-2.3-8.5.6c.3 1 .5 2.1.5 3.1a8.7 8.7 0 01-2.7 6.4 8.8 8.8 0 01-6.5 2.8h-.2a11.8 11.8 0 0014.2-2l.2-.2c2.2-2 3.4-5 3.2-8m15.8 6.1a8.8 8.8 0 01-3.9 2.4l-.4.1c-.7.2-1.5.3-2.2.2l-1.1-.1c1.5.9 3.3 1.4 5.1 1.5l.9.1c2.7 0 5.4-.9 7.4-2.6l.9-.9c2.3-2.2 3.6-5.2 3.5-8.4 0-1-.1-2.1-.4-3.1l-7.9.6a9.2 9.2 0 01-.4 7.8c-.2 1-.8 1.8-1.5 2.4z" fill="#ebebeb"/><path d="M161.1 215.1l.2.2c.7.7 1.5 1.3 2.4 1.8h.3c2.5 0 4.8-1 6.5-2.8.7-.7 1.3-1.4 1.7-2.2a9 9 0 001-4.2c0-1.1-.2-2.1-.5-3.1l-15 1.1v.9c-.1 3.1 1.1 6.1 3.3 8.2l.1.1m38.2-12.4l-15.5 1.1-.1 1.4a11 11 0 002.7 7.6l.4.4.4.4.4.4 1.4 1.1.7.4 1.1.1 2.2-.2.4-.1a8.8 8.8 0 003.9-2.4c.7-.7 1.3-1.4 1.7-2.2l.6-1.3c.3-.9.5-1.9.5-2.9-.1-1.4-.4-2.7-.8-3.8z" fill="#333"/></g><path d="M206.1 222.3c-.2-.4 0-.8.3-1l1-1c.4-.8 1.1-1.5 1.9-2a8.6 8.6 0 014.7-1.1c1.7.1 3.3.6 4.6 1.6" fill="none" id="uid_107" stroke="#000" stroke-linecap="round" stroke-linejoin="round" stroke-width="3"/></g></g></g><g id="s20-868" transform="translate(20, 868)"><g transform="translate(-271.8, -171.0)"><style>.cl8 {
    fill: none;
    stroke: #45c0e3;
    stroke-width: 3;
    stroke-linecap: round;
    stroke-linejoin: round
    }</style><g id="uid_109"><path class="cl8" d="M351.2 225.6c.5 8.9 1.4 17.9 2.5 27m5.9-30l.9 30m6.7-28.5l.6 28.5m-31.6-26.5l2.2 26.5m7-27c.4 10 .8 19 1.3 27m-51-32a738 738 0 011.3 32m9.7-27.5c.6 8.9 1.2 18.1 2 27.5m5.6-27.5l.6 27.5m6.8-27c.8 8.9 1.3 17.9 1.5 27m6-27l1.9 27m43.7-27.5a295 295 0 011.3 27.5m7.7-30.5l3.2 30.5" id="uid_110"/><path class="cl8" d="M292.6 241.7v4.5" id="uid_111"/><path class="cl8" d="M309.3 250.8v1.6h.2" id="uid_112"/><path class="cl8" d="M342.6 246.7c0 .5-.1.9-.3 1.4-.2.4-.3.9-.2 1.3" id="uid_113"/><path class="cl8" d="M390.3 236.2c.3 1.1.3 2.2.2 3.2" id="uid_114"/><path d="M405.8 215.9l-.2-.4-.4-.4-.4-.4-.5-.4-.6-.4-.5-.4-.8-.4-.9-.4-.9-.2-.6-.1-1.5-.1h-18.9a22 22 0 00-22-22h-.8a22 22 0 00-39.8-6 22 22 0 00-32.5 19.4c0 2.9.5 5.8 1.6 8.6h-.1v.1h-1.5l-.6.1-.9.2-.9.4a3 3 0 00-.8.4l-.6.4-.5.4-.5.4-.4.4-.4.4-.4.4-.2.4-.2.4-.2.4-.2.4-.1.4-.2.4-.1.4-.1.4-.1.4-.1.4v.4l-.1.4v1.1l-.1.4.1.4v1.1l.1.4v.4l.1.4.1.4.1.4.1.4.2.4.1.4.2.4.2.4.2.4.2.4.4.4.4.4.4.4.5.4.5.4.6.4.8.4.9.4.9.2.6.1 1.5.1h112.5l1.5-.1.6-.1.9-.2.9-.4.8-.4.5-.4.6-.4.5-.4.4-.4.4-.4.2-.4.2-.4.2-.4.2-.4.2-.4.1-.4.2-.4.1-.4.1-.4.1-.4.1-.4.1-.4v-.4l.1-.4v-2.2l-.1-.4v-.7l-.1-.4-.1-.4-.1-.4-.1-.4-.1-.4-.2-.4-.1-.4-.2-.4a.8.8 0 01-.2-.4l-.2-.4c-.1.1-.1 0-.2-.1z" fill="#6e6d66" id="uid_115"/><g id="uid_116"><path d="M320.4 206.3v-.3l-.2-2.3-8.5.6c.3 1 .5 2.1.5 3.1a8.7 8.7 0 01-2.7 6.4 8.8 8.8 0 01-6.5 2.8h-.2a11.8 11.8 0 0014.2-2l.2-.2c2.1-2.1 3.2-5 3.2-8.1m15.7 6.2a8.8 8.8 0 01-3.9 2.4l-.4.1c-.7.2-1.5.3-2.2.2h-1.1c1.5.9 3.2 1.4 5 1.5h.9a12 12 0 007.5-2.6l1-.9c2.3-2.2 3.6-5.2 3.5-8.4 0-1-.1-2.1-.4-3.1l-7.9.6a9.2 9.2 0 01.2 6.6 7.6 7.6 0 01-2.2 3.6z" fill="#ebebeb"/><path d="M300 214.7l.2.2c.7.7 1.5 1.3 2.4 1.8h.2c2.5 0 4.8-1 6.5-2.8.7-.7 1.3-1.4 1.7-2.2a7.9 7.9 0 001-4.2c0-1.1-.2-2.1-.5-3.1l-15 1.1v.9c-.1 3.1 1.1 6.1 3.3 8.2l.2.1m38.1-12.4l-15.5 1.1-.1 1.4a11 11 0 002.7 7.6l.4.4.4.4.4.4c.5.4.9.8 1.5 1.1l.7.4h1.1l2.2-.2.4-.1a8.8 8.8 0 003.9-2.4c.7-.7 1.3-1.4 1.7-2.2l.5-1.3c.3-1 .5-2 .5-3 0-1.2-.3-2.4-.8-3.6z" fill="#333"/></g><path d="M345.1 222c-.2-.4 0-.8.3-1l1-1c.4-.8 1.1-1.5 1.9-2a8.6 8.6 0 019.3.5" fill="none" id="uid_117" stroke="#000" stroke-linecap="round" stroke-linejoin="round" stroke-width="3"/></g></g></g><g id="s20-974" transform="translate(20, 974)"><g transform="translate(-0.0, -256.5)"><style>.cl9 {
    fill: none;
    stroke: #45c0e3;
    stroke-width: 3;
    stroke-linecap: round;
    stroke-linejoin: round
    }</style><g id="uid_119"><path class="cl9" d="M82.5 314.9c1 8.3 1.7 16.5 2.2 24.6m5.5-26.4l1.2 26.4m-31.2-23.6c.2 7.9.7 15.8 1.7 23.6m6.5-23.9c.9 8 1.6 16 1.9 23.9m4.6-24.2l1.2 24.2m-56.9-28.1l2.4 28.1m9-25.6c.3 8.6.8 17.1 1.7 25.6m4.7-23.1c.1 7.4.5 15.2 1.2 23.1m6-25.1a163 163 0 012.5 25.1m5.3-23.1l2.8 23.1m42.7-26.9c.6 9.3 1 18.3 1.2 26.9m8.5-28.4l2.3 28.4" id="uid_120"/><path class="cl9" d="M113.9 328.4c.3 1.3.3 2.7.2 4" id="uid_121"/><path class="cl9" d="M65.9 337.9c.3.9.3 1.8.2 2.7" id="uid_122"/><path class="cl9" d="M17.1 335.3v2.7" id="uid_123"/><path class="cl9" d="M114.6 313v2" id="uid_124"/><path class="cl9" d="M116.1 325v1.2" id="uid_125"/><path class="cl9" d="M71.4 321v2.5" id="uid_126"/><path class="cl9" d="M22.6 323.8l.1 1.6c.2.4.2.8.1 1.2" id="uid_127"/><path d="M130.1 302.5l-.2-.4-.4-.4-.4-.4-.5-.4-.7-.4-.5-.4-.8-.4-.8-.4-.9-.2-.6-.1-1.5-.1h-18.9a22 22 0 00-22-22h-.8a22.1 22.1 0 00-21.2-16.1 20.5 20.5 0 00-15.5 6.5 27 27 0 00-3 3.7 21.2 21.2 0 00-10.5-2.5 21 21 0 00-15.6 6.5 22.5 22.5 0 00-4.8 24h-.2v.1H8.8l-.6.1-.9.2-.8.4a3 3 0 00-.8.4l-.7.4-.5.4-.5.4-.3.4-.4.4-.3.4-.2.4-.2.4-.2.4-.2.4-.1.4-.2.4-.1.4-.1.4-.1.4-.1.4v.4H.9v1.1l-.1.4.1.4v1.1l.1.4v.4l.1.4.1.4.1.4.1.4.2.4.1.4.2.4.2.4.2.4.2.4.3.4.4.4.3.4.5.4.5.4.7.4.8.4.8.4.9.2.6.1 1.5.1h112.6l1.5-.1.6-.1.9-.2.8-.4.8-.4c.3-.1.3-.2.5-.4l.6-.4.5-.4.4-.4.4-.4.2-.4.2-.4.2-.4.2-.4.2-.4.1-.4.2-.4.1-.4.1-.4.1-.4.1-.4.1-.4v-.4l.1-.4v-2.2l-.1-.4v-.4l-.1-.4-.1-.4-.1-.4-.1-.4-.1-.4-.2-.4-.1-.4-.2-.4a.8.8 0 01-.2-.4l-.2-.4c.4.2.3.1.3-.1z" fill="#6e6d66" id="uid_128"/><g id="uid_129"><path d="M44.7 293v-.4l-.2-2.3-8.5.6c.3 1 .5 2.1.5 3.1a8.7 8.7 0 01-2.7 6.4 8.8 8.8 0 01-6.5 2.8h-.2a12 12 0 0014.2-2l.2-.2c2.1-2 3.2-5 3.2-8m15.7 6.1a8.8 8.8 0 01-3.9 2.4l-.3.1c-.7.2-1.5.3-2.2.2h-1.1c1 .6 2.2 1 3.3 1.3l1.7.2h.9c2.7.1 5.4-.9 7.5-2.6l1-.9c2.3-2.2 3.6-5.2 3.5-8.4 0-1-.1-2.1-.3-3.1l-7.8.6a9.2 9.2 0 01.2 6.6 5 5 0 01-.5 1.3c-.7.9-1.3 1.7-2 2.3z" fill="#ebebeb"/><path d="M24.3 301.4l.2.2c.7.7 1.5 1.3 2.4 1.8h.2c2.5.1 4.8-.9 6.5-2.8.7-.6 1.3-1.4 1.7-2.2a7.9 7.9 0 001-4.2c0-1.1-.2-2.1-.5-3.1l-15 1.1v.9c-.1 3.1 1.1 6.1 3.3 8.2l.2.1M62.5 289L47 290.1l-.1 1.4a11 11 0 003 8l.4.5.3.4c.5.4.9.8 1.5 1.1l.7.5h1.1l2.2-.2.3-.1a8.8 8.8 0 003.9-2.4c.7-.6 1.3-1.4 1.7-2.2l.5-1.3c.3-.9.5-1.9.5-3 .2-1.4 0-2.7-.5-3.8z" fill="#333"/></g><path d="M69.4 308.6c-.1-.4 0-.8.3-1l1-1c.4-.8 1.1-1.5 1.9-2a8.8 8.8 0 019.4.5" fill="none" id="uid_130" stroke="#000" stroke-linecap="round" stroke-linejoin="round" stroke-width="3"/></g></g></g><g id="s20-1080" transform="translate(20, 1080)"><g transform="translate(-135.9, -256.5)"><style>.cl10 {
    fill: none;
    stroke: #45c0e3;
    stroke-width: 3;
    stroke-linecap: round;
    stroke-linejoin: round
    }</style><g id="uid_132"><path class="cl10" d="M228.5 310.1l1.5 29m-10-27.5l2 27.5m-24-25.5c1 8.2 1.8 16.7 2.2 25.5m5.2-25l2.8 25m4.8-26l1.5 26M156 308.6a407 407 0 013.6 30.5m7.9-30.5c1 10.6 1.9 20.8 2.5 30.5m4.4-27a400 400 0 002.6 27m5-25.5a219 219 0 012 25.5m5.6-24c.6 7.8 1.4 15.8 2.5 24m42.9-28.5c.6 10.7 1.3 20.2 2.2 28.5m8.7-28.5c.4 9.1.9 18.6 1.6 28.5" id="uid_133"/><path class="cl10" d="M153.4 311.9l.2 1.5" id="uid_134"/><path class="cl10" d="M160.9 329.2l.4 2c.1.4.2.8.1 1.1" id="uid_135"/><path class="cl10" d="M154.4 338.2v1.4l.2.4" id="uid_136"/><path class="cl10" d="M170.9 318.2c.3 1.1.3 2.2.2 3.2" id="uid_137"/><path class="cl10" d="M191.7 317.6v3" id="uid_138"/><path class="cl10" d="M209.4 324.6v2.6c.1.6.2 1.2.5 1.8" id="uid_139"/><path class="cl10" d="M252.9 314.7l.2 1.6-.2.8v.6" id="uid_140"/><path class="cl10" d="M251.2 331.9v3.8" id="uid_141"/><path class="cl10" d="M254.2 327.9c.1 1.3 0 2.7-.2 4" id="uid_142"/><path class="cl10" d="M160.2 318.9l.2 3.2" id="uid_143"/><path d="M268 302l-.2-.4-.4-.4-.4-.4-.5-.4-.6-.4-.5-.4-.8-.4-.9-.4-.9-.2-.6-.1-1.5-.1h-18.9a22 22 0 00-22-22h-.8a22 22 0 00-36.8-9.7 27.6 27.6 0 00-3.1 3.7 21 21 0 00-10.4-2.5 22 22 0 00-22 22c0 2.9.5 5.8 1.6 8.5h-.2v.1h-1.5l-.6.1-.9.2-.9.4a3 3 0 00-.8.4l-.6.4-.5.4-.5.4-.4.4-.4.4-.4.4-.2.4-.2.4-.2.4-.2.4-.1.4-.2.4-.1.4-.1.4-.1.4-.1.4v.4l-.1.4v1.1l-.1.4.1.4v1.1l.1.4v.4l.1.4.1.4.1.4.1.4.2.4.1.4.2.4.2.4.2.4.2.4.4.4.4.4.4.4.5.4.5.4.6.4.8.4.9.4.9.2.6.1 1.5.1h112.6l1.5-.1.6-.1.9-.2.9-.4.8-.4.5-.4.6-.4.5-.4.4-.4.4-.4.2-.4.2-.4.2-.4.2-.4.2-.4.1-.4.2-.4.1-.4.1-.4.1-.4.1-.4.1-.4v-.4l.1-.4v-2.2l-.1-.4v-.4l-.1-.4-.1-.4-.1-.4-.1-.4-.1-.4-.2-.4-.1-.4-.2-.4a.8.8 0 01-.2-.4l-.2-.4-.2-.4z" fill="#6e6d66" id="uid_144"/><g id="uid_145"><path d="M182.6 292.4v-.4l-.2-2.3-8.5.6c.3 1 .5 2.1.5 3.1a8.7 8.7 0 01-2.7 6.4 8.8 8.8 0 01-6.5 2.8h-.2a11.8 11.8 0 0014.2-2l.2-.2c2.2-2 3.3-4.9 3.2-8m15.8 6.2a9.8 9.8 0 01-3.9 2.4l-.4.1c-.7.2-1.5.3-2.2.2h-1.1c1.5.9 3.3 1.4 5.1 1.5h.9c2.7 0 5.4-.9 7.4-2.6l.9-.9c2.3-2.2 3.6-5.2 3.5-8.4 0-1-.1-2.1-.4-3.1l-7.9.6a9.2 9.2 0 01.2 6.6c-.1.5-.3.9-.6 1.3-.2.9-.8 1.6-1.5 2.3z" fill="#ebebeb"/><path d="M162.3 300.8l.2.2c.7.7 1.5 1.3 2.4 1.8h.2c2.5 0 4.8-1 6.5-2.8.7-.7 1.3-1.4 1.7-2.2a9 9 0 001-4.2c0-1.1-.2-2.1-.5-3.1l-15 1.1v.9c-.1 3.1 1.1 6.1 3.3 8.2l.2.1m38.1-12.4l-15.5 1.1-.1 1.4a11 11 0 002.7 7.6l.4.4.4.5.4.4 1.4 1.1.7.5c.2.2.7 0 1.1 0l2.2-.2.4-.1a9.8 9.8 0 003.9-2.4c.7-.7 1.3-1.4 1.7-2.2l.6-1.3a9.4 9.4 0 00-.3-6.8z" fill="#333"/></g><path d="M207.3 308.1c-.2-.4 0-.8.3-1l1-1c.4-.8 1.1-1.5 1.9-2a8.6 8.6 0 014.7-1.1c1.7.1 3.3.6 4.6 1.6" fill="none" id="uid_146" stroke="#000" stroke-linecap="round" stroke-linejoin="round" stroke-width="3"/></g></g></g></svg>