<?xml version="1.0" ?><svg height="1791px" preserveAspectRatio="none" viewBox="0 0 185.3 1791" width="185.3px" xmlns="http://www.w3.org/2000/svg" xmlns:xlink="http://www.w3.org/1999/xlink"><g id="s20-20" transform="translate(20, 20)"><g transform="translate(-0.0, -0.0)"><style>.cl0 {
    fill: none;
    stroke: #f6ca02;
    stroke-width: 3;
    stroke-linecap: round;
    stroke-linejoin: round
    }
.cl1 {
    fill: #999
    }
.cl2 {
    fill: #333
    }
.cl3 {
    fill: #fff
    }
.cl4 {
    fill: none;
    stroke: #333;
    stroke-width: 4;
    stroke-linecap: round;
    stroke-linejoin: round
    }</style><g id="uid_1"><path class="cl0" d="M39.8 117.3l2.5-.3" id="uid_2"/><path class="cl0" d="M63 127l.2 2.5" id="uid_3"/><path class="cl0" d="M80.3 119.8l.5 1.4" id="uid_4"/><path d="M42.3 109l17.5 6.8-11 15.2 32.5-18.8-11.5-4 12.5-5-9.8-16.5L31 91.2l24.8 12.5-13.5 5.3z" fill="#fed100" id="uid_5"/><path class="cl1" d="M80.1 68.6c0-3.5-1.8-6.5-5.4-9l-1.2-.8a29.7 29.7 0 00-15.8-4.1 28.9 28.9 0 00-15.8 4c-4.4 2.7-6.5 6-6.5 9.9 0 3.8 2.2 7.1 6.5 9.8l1 .6c4.6 2.5 9.7 3.7 14.9 3.6a29 29 0 0015.8-4.1c4.4-2.8 6.5-6.1 6.5-9.9z" id="uid_6"/><path class="cl1" d="M79.6 31c.2-8.2-3.1-16.2-9-21.9-5.7-6-13.7-9.3-22-9.1a30 30 0 00-21.9 9.1A30 30 0 0017.6 31a30 30 0 009.1 21.9A30 30 0 0048.6 62c8.3.2 16.3-3.1 22-9.1a29.6 29.6 0 009-21.9z" id="uid_7"/><path class="cl1" d="M111.2 49a24.2 24.2 0 00-41.3-17.2l-.1.1A23.5 23.5 0 0062.7 49a23.2 23.2 0 007.1 17.1 24.2 24.2 0 0034.2.1l.1-.1a22.8 22.8 0 007.1-17.1z" id="uid_8"/><path class="cl1" d="M40.6 64.3c.1-4.5-1.8-8.9-5-12a16.2 16.2 0 00-12.1-5c-4.5-.1-8.9 1.8-12 5a17 17 0 000 24c3.1 3.2 7.5 5.1 12 5 4.5.1 8.9-1.7 12.1-5a16 16 0 005-12z" id="uid_9"/><path class="cl1" d="M118 72.6a12.2 12.2 0 10-3.5 8.6c2.3-2.2 3.6-5.3 3.5-8.6z" id="uid_10"/><path class="cl1" d="M126.7 93.6c2.6.1 5.3-.2 7.8-.8a9.5 9.5 0 005.9-4.2c1.1-2 1.3-4.4.4-6.6a12 12 0 00-3.9-5.7 17.4 17.4 0 00-6.1-3 358.9 358.9 0 00-119.7-1.9c-3.2 1-6 2.9-8.2 5.4C.5 79.5-.5 82.3 0 85.4c.4 2 1.4 3.7 2.9 5.1C4.3 91.9 6.1 93 8 93.7a20 20 0 005.9 1.2l6.1.2c11.7-.4 47.2-.8 106.7-1.5z" id="uid_11"/><g id="uid_12"><path class="cl2" d="M38.3 40c0-.9-.1-1.8-.4-2.6l-10.2-.7-.1 1.3a9 9 0 002.5 6.2 8.3 8.3 0 005.1 2.5l.5-.5a8.4 8.4 0 002.6-6.2m19.4-7l-9.3 3.6c.2 2 1 3.9 2.5 5.3a8 8 0 005 2.5l.5-.5c3-2.8 3.5-7.4 1.3-10.9z"/><path class="cl3" d="M37.9 37.5a8.5 8.5 0 01-2.2 8.8l-.5.5h1.2a8.8 8.8 0 008.7-8.7V38l-7.2-.5M63.2 42a8.4 8.4 0 002.6-6.2c0-1.9-.6-3.7-1.8-5.2l-6.4 2.5c2.2 3.5 1.7 8-1.2 10.9l-.5.5h1.2c2.3.1 4.5-.8 6.1-2.5z"/></g><path class="cl4" d="M43.7 52.1c3.2-4.7 7-5.3 11.1-1.8" id="uid_13"/><g id="uid_14"><path class="cl1" d="M87 24.8c-2.6 0-5.2.4-7.7 1.2-1-6.4-4.1-12.3-8.7-16.9-5.7-6-13.7-9.3-22-9.1a30 30 0 00-21.9 9.1 29.6 29.6 0 00-9 21.9 29.8 29.8 0 004.5 16.2c-4 .3-7.8 2.1-10.6 5a17 17 0 00-3 20.2c-2.1 1-4 2.5-5.6 4.2C.6 79.3-.4 82.1.1 85.2c.4 2 1.4 3.7 2.9 5.1.9.9 1.9 1.6 3 2.2a13 13 0 011.2-4.7c2.1-4.6 6.7-7.5 11.8-7.2 2.5.1 4.9.9 6.9 2.3 1.7-4.6 5.1-7.6 10.4-9s9.8-.7 13.5 2.3c3.5-2.6 8-3.6 12.2-2.6 4.3.6 8.2 3.1 10.5 6.8a19.2 19.2 0 014.3-19.8 18 18 0 019.4-5c3.5-.8 7.2-.6 10.6.7a26.2 26.2 0 019.3-22.2l-2.1-2.3a22.6 22.6 0 00-17-7z"/><path d="M137 76.2a17.4 17.4 0 00-6.1-3c-2.3-.6-4.6-1.1-6.9-1.4h-.6a104 104 0 00-5.5-.8c-.8-5.1-4.6-9.2-9.6-10.3.8-1.5 1.5-3 2-4.6.6-2.3 1-4.6.9-7 .1-5.4-1.7-10.6-5-14.8a26 26 0 00-6.5 8.2 24.4 24.4 0 00-2.8 14 18.3 18.3 0 00-10.6-.7 18 18 0 00-9.4 5 19.3 19.3 0 00-4.4 19.8A14.8 14.8 0 0062 73.8c-4.3-1-8.8 0-12.2 2.6-3.8-3-8.3-3.8-13.5-2.3s-8.8 4.4-10.4 9c-2-1.5-4.4-2.3-6.9-2.3-5-.2-9.7 2.6-11.8 7.2A12 12 0 006 92.6l2.1.9a20 20 0 005.9 1.2l6.1.2 84.8-1 18.5-.2 3.3-.1c2.6.1 5.3-.2 7.8-.8a9.5 9.5 0 005.9-4.2c1.1-2 1.3-4.4.4-6.6-.6-2.3-1.9-4.3-3.8-5.8z" fill="#828282"/></g><g id="uid_15"><path class="cl2" d="M37.7 40.3c0-.9-.1-1.8-.4-2.6L27 37l-.1 1.3a9 9 0 002.5 6.2 8 8 0 005 2.5l.5-.5a8.7 8.7 0 002.8-6.2m19.3-7l-9.3 3.6c.2 2 1 3.9 2.5 5.3a8.3 8.3 0 005 2.5l.5-.5c3-2.9 3.5-7.4 1.3-10.9z"/><path class="cl3" d="M37.3 37.7a8.5 8.5 0 01-2.2 8.8l-.5.5h1.2c2.3 0 4.6-.9 6.2-2.6a8.4 8.4 0 002.6-6.2V38l-7.3-.3m25.3 4.4a8.4 8.4 0 002.6-6.2c0-1.9-.6-3.7-1.8-5.2L57 33.2c2.2 3.5 1.7 8-1.2 10.9l-.5.5h1.2c2.3.2 4.5-.7 6.1-2.5z"/></g><path class="cl4" d="M43.1 52.3c3.2-4.7 7-5.3 11.1-1.8" id="uid_16"/></g></g></g><g id="s20-181" transform="translate(20, 181)"><g transform="translate(-145.3, -0.0)"><style>.cl5 {
    fill: none;
    stroke: #f6ca02;
    stroke-width: 3;
    stroke-linecap: round;
    stroke-linejoin: round
    }
.cl6 {
    fill: #999
    }
.cl7 {
    fill: #333
    }
.cl8 {
    fill: #fff
    }
.cl9 {
    fill: none;
    stroke: #333;
    stroke-width: 4;
    stroke-linecap: round;
    stroke-linejoin: round
    }</style><g id="uid_18"><path class="cl5" d="M182.4 117.6a3 3 0 001.6-.5c.4-.3.9-.4 1.4-.4" id="uid_19"/><path class="cl5" d="M210.2 130l.2 1.9" id="uid_20"/><path class="cl5" d="M228.2 121.5l.2 1c0 .3.1.7.3 1" id="uid_21"/><path class="cl5" d="M233.2 106.7c.4-.2.8-.3 1.2-.1" id="uid_22"/><path d="M203.7 103.2l-14.2 4.7 18.2 6.8-10.6 15.2 32.7-18.3-12.6-4.1 13.6-4.5-10.9-16-40.7 3.8 24.5 12.4z" fill="#fed100" id="uid_23"/><path class="cl6" d="M227.3 68.8c0-3.5-1.8-6.5-5.4-9l-1.1-.8c-4.4-2.7-9.6-4-15.9-4a29.4 29.4 0 00-15.9 4c-4.4 2.7-6.5 6-6.6 9.9s2.2 7.1 6.6 9.8l.9.6c4.6 2.5 9.7 3.7 14.9 3.6 6.2 0 11.5-1.4 15.9-4.1s6.6-6.2 6.6-10z" id="uid_24"/><path class="cl6" d="M226.6 31.3a31 31 0 00-53-22.1l-.1.1c-6 5.8-9.3 13.7-9.1 22a29.7 29.7 0 009.1 22 31 31 0 0043.9.1l.1-.1c6-5.8 9.3-13.8 9.1-22z" id="uid_25"/><path class="cl6" d="M258.8 49.2c.1-6.4-2.4-12.5-7-17a24.2 24.2 0 00-34.1-.1l-.1.1a24.1 24.1 0 1034.1 34 22.4 22.4 0 007.1-17z" id="uid_26"/><path class="cl6" d="M187.5 64.5a17 17 0 10-29.1 11.9 17 17 0 0024 .1c3.3-3.1 5.1-7.4 5.1-12z" id="uid_27"/><path class="cl6" d="M265.5 72.5c0-6.7-5.5-12.2-12.2-12.2-6.7 0-12.2 5.5-12.2 12.2a12.2 12.2 0 1024.4 0z" id="uid_28"/><path class="cl6" d="M278.3 72.9a330 330 0 00-119.9-1.8 20 20 0 00-7.8 5.3c-2.4 2.7-3.5 5.4-3.1 8.1a8.9 8.9 0 002.8 5.6c1.4 1.4 3.2 2.5 5.1 3.1 1.8.6 3.7 1.1 5.6 1.2 1.4.2 4.2.3 8.4.4 10.9-.7 41-1 90.4-1.1 12.7-.3 20.1-.7 22.1-1.2a9.1 9.1 0 005.9-4.2 8 8 0 00.5-6.6c-.7-2.3-2-4.3-3.9-5.8a15.1 15.1 0 00-6.1-3z" id="uid_29"/><g id="uid_30"><path class="cl7" d="M185.3 40.4c0-.9-.1-1.8-.4-2.6l-10.2-.7-.1 1.3c0 2.3.9 4.5 2.6 6.2a8 8 0 005.1 2.5l.6-.5a9.4 9.4 0 002.4-6.2m19.4-7l-9.3 3.6c.2 2 1 3.9 2.5 5.3a8 8 0 005 2.5l.6-.5a8.8 8.8 0 001.2-10.9z"/><path class="cl8" d="M184.9 37.8a8.5 8.5 0 01-2.2 8.8c-.2.2-.3.4-.6.5h1.1a9 9 0 008.8-8.8v-.2l-7.1-.3m25.3 4.4a8.4 8.4 0 002.6-6.2c0-1.9-.6-3.7-1.8-5.2l-6.4 2.5c2.2 3.5 1.7 8-1.2 10.9-.2.2-.3.4-.6.5h1.1a8 8 0 006.3-2.5z"/></g><path class="cl9" d="M190.7 52.4c3.2-4.7 7-5.2 11.1-1.8" id="uid_31"/><g id="uid_32"><path class="cl6" d="M234.7 25.1c-2.8 0-5.7.5-8.4 1.5a31.2 31.2 0 10-57.5 21c-4 .3-7.7 2-10.5 4.9a17.1 17.1 0 00-3.1 20 20 20 0 00-4.8 3.9c-2.4 2.7-3.5 5.4-3.1 8.1a8.9 8.9 0 002.8 5.6c.7.7 1.5 1.4 2.4 1.9.3-1.9.9-3.7 1.9-5.4 1.1-2 2.9-3.6 5.1-4.4 2.6-1.1 5.4-1.5 8.2-1.1 3.1.3 4.8 1.2 5.2 2.6a23 23 0 014.4-6.3c1.9-2.1 4.5-3.3 7.3-3.6a24.3 24.3 0 0112.7 3.6c2.1-1.9 5.1-3.1 8.9-3.4 3.8-.3 8.2 2 13.1 7-2-9.7.1-16.8 6.2-21.3s12.3-5.5 18.6-3c.2-4.1 1-8.1 2.4-12 1.3-4 3.9-7.5 7.5-9.7l-2.3-2.7a22.8 22.8 0 00-17-7.2z"/><path d="M284.2 75.8a14.6 14.6 0 00-6-2.9c-1.1-.3-3.7-.7-7.7-1.3l-5.2-.8c-.8-4.9-4.5-8.9-9.3-10.1.7-1.4 1.3-2.8 1.8-4.3.6-2.3 1-4.7 1-7 .1-5.2-1.6-10.3-4.8-14.4a17.7 17.7 0 00-7.5 9.7 40.6 40.6 0 00-2.4 12c-6.3-2.4-12.5-1.4-18.6 3s-8.2 11.6-6.2 21.3c-4.9-5-9.2-7.4-13.1-7s-6.8 1.5-8.9 3.4c-1.5-.9-3-1.6-4.6-2.2-2.6-1-5.3-1.4-8.1-1.2-2.8.2-5.4 1.5-7.3 3.6a23 23 0 00-4.4 6.3c-.4-1.4-2.2-2.2-5.2-2.6-2.8-.4-5.6 0-8.2 1.1a10 10 0 00-5.1 4.4 15 15 0 00-1.8 5.4l2.7 1.2c1.8.6 3.7 1.1 5.6 1.2 1.4.2 4.2.3 8.4.3 10.3-.7 38-1 82.8-1.1h7.5l11-.3c6.1-.3 9.8-.6 11.1-1a9.1 9.1 0 005.9-4.2 8 8 0 00.5-6.6c-.7-2.3-2-4.3-3.9-5.9z" fill="#828282"/></g><g id="uid_33"><path class="cl7" d="M184.7 40.6c0-.9-.1-1.8-.4-2.6l-10.2-.7-.1 1.3c0 2.3.9 4.5 2.6 6.2a8 8 0 005.1 2.5l.6-.5a9.2 9.2 0 002.4-6.2m19.4-7l-9.3 3.6c.2 2 1 3.9 2.5 5.3a8 8 0 005 2.5l.6-.5a8.8 8.8 0 001.2-10.9z"/><path class="cl8" d="M184.3 38a8.5 8.5 0 01-2.2 8.8c-.2.2-.3.4-.6.5h1.1a9 9 0 008.8-8.8v-.2l-7.1-.3m25.4 4.5a8.4 8.4 0 002.6-6.2c0-1.9-.6-3.7-1.8-5.2l-6.4 2.5c2.2 3.5 1.7 8-1.2 10.9-.2.2-.3.4-.6.5h1.1c2.4.1 4.6-.8 6.3-2.5z"/></g><path class="cl9" d="M190.1 52.7c3.2-4.7 7-5.2 11.1-1.8" id="uid_34"/></g></g></g><g id="s20-342" transform="translate(20, 342)"><g transform="translate(-290.6, -0.0)"><style>.cl10 {
    fill: none;
    stroke: #f6ca02;
    stroke-width: 3;
    stroke-linecap: round;
    stroke-linejoin: round
    }
.cl11 {
    fill: #999
    }
.cl12 {
    fill: #333
    }
.cl13 {
    fill: #fff
    }
.cl14 {
    fill: none;
    stroke: #333;
    stroke-width: 4;
    stroke-linecap: round;
    stroke-linejoin: round
    }</style><g id="uid_36"><path class="cl10" d="M376.3 125.2l.5 1.6" id="uid_37"/><path class="cl10" d="M357.8 134.7v1.8" id="uid_38"/><path class="cl10" d="M325.6 118.6c.8.1 1.7 0 2.5-.3" id="uid_39"/><path class="cl10" d="M383.1 106.7c.6-.2 1.1-.4 1.8-.4" id="uid_40"/><path d="M351.8 103l-14.9 4.1 18.9 6.8-10.2 15.3 32.9-18-13.9-4.1 14.7-4-12.1-15.5-39.9 3 24.5 12.4z" fill="#fed100" id="uid_41"/><path class="cl11" d="M374.7 69.2c0-3.5-1.8-6.5-5.4-9l-1.1-.8c-4.4-2.7-9.6-4-15.9-4-5.6-.2-11 1.2-15.9 4-4.4 2.7-6.5 6-6.5 9.9s2.2 7.1 6.5 9.8l1 .6c4.6 2.5 9.7 3.7 14.9 3.6 5.6.2 11.1-1.3 15.9-4.1 4.3-2.8 6.5-6.1 6.5-10z" id="uid_42"/><path class="cl11" d="M373.7 31.9a31.2 31.2 0 00-53.2-22.1l-.1.1a30 30 0 00-9.2 22 29.8 29.8 0 009.2 22 31.2 31.2 0 0044.1.1l.1-.1c6-5.8 9.3-13.8 9.1-22z" id="uid_43"/><path class="cl11" d="M406.8 49.7c.1-6.4-2.4-12.5-7-16.9a23.9 23.9 0 00-40.9 16.9 24 24 0 0024 24 23 23 0 0017-7 23 23 0 006.9-17z" id="uid_44"/><path class="cl11" d="M334.5 65a17 17 0 10-29.1 12 17 17 0 0024 .1c3.3-3.2 5.2-7.6 5.1-12.1z" id="uid_45"/><path class="cl11" d="M413.1 72.6a12.2 12.2 0 10-3.5 8.6c2.3-2.2 3.6-5.4 3.5-8.6z" id="uid_46"/><path class="cl11" d="M429.1 92.4a9.7 9.7 0 005.9-4.2 8 8 0 00.5-6.6 13.1 13.1 0 00-9.6-9l-25.2-4a310.8 310.8 0 00-94.9 2.3c-2.8 1.2-5.4 3-7.4 5.3-2.5 2.6-3.6 5.2-3.4 7.7a9 9 0 002.6 6c1.4 1.4 3.2 2.5 5.1 3.2 1.7.6 3.5 1 5.3 1.2 1.5.2 5.1.4 10.6.6 10.2-1.2 35-1.6 74.2-1a352 352 0 0036.3-1.5z" id="uid_47"/><g id="uid_48"><path class="cl12" d="M332.5 41c0-.9-.1-1.8-.4-2.6l-10.2-.7-.1 1.3a9 9 0 002.5 6.2 8.3 8.3 0 005 2.5l.5-.5a8 8 0 002.7-6.2m19.4-7l-9.3 3.6c.2 2 1 3.9 2.5 5.3a8.3 8.3 0 005 2.5l.5-.5a8.4 8.4 0 001.3-10.9z"/><path class="cl13" d="M332.1 38.4a8.5 8.5 0 01-2.2 8.8l-.5.5h1.1a9 9 0 008.8-8.7v-.2l-7.2-.4m25.4 4.5a8.4 8.4 0 002.6-6.2c0-1.9-.6-3.7-1.8-5.2l-6.4 2.5c2.2 3.5 1.7 8-1.2 10.9l-.5.5h1.1a8 8 0 006.2-2.5z"/></g><path class="cl14" d="M337.9 53c3.2-4.7 7-5.2 11.1-1.8" id="uid_49"/><g id="uid_50"><path class="cl11" d="M364.6 9.8a31.1 31.1 0 00-44-.1l-.1.1c-6 5.8-9.3 13.8-9.1 22a30 30 0 004.4 16.2 17.1 17.1 0 00-13.4 24.9c-1.5 1-2.8 2.2-4 3.6-2.5 2.6-3.6 5.2-3.4 7.7a9 9 0 002.6 6l1.3 1.2c.9-1.8 2-3.6 3.2-5.3 1.6-2.3 4.7-3.8 9.3-4.4 4.6-.6 7.7.4 9.1 3 2.4-6.3 6.2-9.6 11.4-10 2-.1 5 .5 9.1 1.8 1.6.4 3.1 1.4 4.2 2.7 1.3-2.9 4.2-4.6 8.5-5.2 4.3-.5 8.7 2 13 7.7-1.9-10.4.2-17.6 6.2-21.7 6-4 12.3-4.8 18.8-2.5a31 31 0 013-14.4c1.5-3.4 3.7-6.4 6.5-8.7l-1.5-1.6a24.2 24.2 0 00-26.3-5.2 29.4 29.4 0 00-8.8-17.8z"/><path d="M431.7 75.7a11.6 11.6 0 00-5.8-3l-7.9-1.3-5-.8c-.4-2.5-1.6-4.8-3.5-6.6a12.6 12.6 0 00-5.3-3.2 23.7 23.7 0 002.6-11 23 23 0 00-5.5-15.3 29.9 29.9 0 00-9.5 23.1c-6.5-2.4-12.8-1.6-18.8 2.5s-8.1 11.2-6.2 21.6c-4.4-5.6-8.7-8.2-13-7.7-4.3.5-7.1 2.2-8.5 5.2a8.3 8.3 0 00-4.2-2.7 24 24 0 00-9.1-1.8c-5.2.3-9 3.7-11.4 10-1.5-2.6-4.5-3.6-9.1-3s-7.7 2-9.3 4.4a41.5 41.5 0 00-3.2 5.3c1.1.9 2.4 1.5 3.8 2 1.7.6 3.5 1 5.3 1.2 1.5.2 5.1.4 10.6.6 10.2-1.2 35-1.6 74.2-1l6.7-.2 18.5-.6c6.4-.3 10.1-.6 11.1-.8a9.5 9.5 0 005.8-4.4 8 8 0 00.5-6.6c-.8-2.2-2.1-4.3-3.8-5.9z" fill="#828282"/></g><g id="uid_51"><path class="cl12" d="M331.9 41.2c0-.9-.1-1.8-.4-2.6l-10.2-.6-.1 1.3a9 9 0 002.5 6.2 8.3 8.3 0 005.1 2.5l.5-.5a8.2 8.2 0 002.6-6.3m19.4-6.9l-9.3 3.6c.2 2 1 3.9 2.5 5.3a8 8 0 005 2.5l.5-.5c3-2.9 3.5-7.4 1.3-10.9z"/><path class="cl13" d="M331.5 38.7a8.5 8.5 0 01-2.2 8.8l-.5.5h1.1a9 9 0 008.8-8.8v-.1l-7.2-.4m25.4 4.4a8.4 8.4 0 002.6-6.2c0-1.9-.6-3.7-1.8-5.2l-6.4 2.5c2.2 3.5 1.7 8-1.2 10.9l-.5.5h1.1a8 8 0 006.2-2.5z"/></g><path class="cl14" d="M337.3 53.3c3.2-4.7 7-5.2 11.1-1.8" id="uid_52"/></g></g></g><g id="s20-503" transform="translate(20, 503)"><g transform="translate(-0.0, -140.7)"><style>.cl15 {
    fill: #999
    }
.cl16 {
    fill: #333
    }
.cl17 {
    fill: #fff
    }
.cl18 {
    fill: none;
    stroke: #333;
    stroke-width: 4;
    stroke-linecap: round;
    stroke-linejoin: round
    }</style><g id="uid_54"><path d="M92.8 248.4l1.2.1" fill="none" id="uid_55" stroke="#f6ca02" stroke-linecap="round" stroke-linejoin="round" stroke-width="3"/><path d="M42.3 248.4l19.5 6.8-9.8 15.2 33-17.5-15-4.2 15.8-3.5-13.2-15-39 2.2 24.3 12.5-15.6 3.5z" fill="#fed100" id="uid_56"/><path class="cl15" d="M80.1 211.9c0-3.5-1.8-6.5-5.4-9.1l-1.2-.8c-4.4-2.7-9.7-4-15.8-4a28.1 28.1 0 00-15.8 4.1c-4.4 2.7-6.5 6-6.5 9.9 0 3.8 2.2 7.1 6.5 9.8l1 .6c4.6 2.5 9.7 3.7 14.9 3.6a29 29 0 0015.8-4.1c4.4-2.9 6.5-6.2 6.5-10z" id="uid_57"/><path class="cl15" d="M78.9 174.6c.1-8.3-3.2-16.3-9.1-22.1-5.8-6-13.8-9.3-22.2-9.2a30.2 30.2 0 00-22.1 9.2 31.1 31.1 0 00-.1 44.1l.1.1c5.8 6 13.8 9.3 22.1 9.2 8.3.1 16.4-3.2 22.2-9.2a30.1 30.1 0 009.1-22.1z" id="uid_58"/><path class="cl15" d="M112.7 192.4A23.8 23.8 0 1089 216.2a24 24 0 0016.9-7 23.3 23.3 0 006.8-16.8z" id="uid_59"/><path class="cl15" d="M39.6 207.6c.1-4.5-1.8-8.9-5-12a16.2 16.2 0 00-12.1-5 17 17 0 00-12 29 16 16 0 0012 5c4.5.1 8.9-1.7 12.1-5 3.3-3.1 5.1-7.4 5-12z" id="uid_60"/><path class="cl15" d="M118.8 214.9a12.2 12.2 0 10-24.4 0 12.2 12.2 0 0024.4 0z" id="uid_61"/><path class="cl15" d="M137.2 217.6a9.8 9.8 0 00-5.7-3.1l-34.3-5.2c-20.8-3.2-49.5-1.9-86 3.8-3.2 1-6 2.9-8.2 5.4-2.4 2.7-3.4 5.5-2.9 8.6.4 2 1.4 3.7 2.9 5.1 1.4 1.4 3.2 2.5 5.1 3.1 1.6.6 3.3 1 5 1.3 1.7.3 6 .5 12.9.7 6.9.2 26.2-.1 58-.8a643 643 0 0050.6-2 9.5 9.5 0 005.9-4.2c1.1-2 1.3-4.4.4-6.6-.7-2.2-2-4.3-3.7-6.1z" id="uid_62"/><g id="uid_63"><path class="cl16" d="M37.9 183.7c0-.9-.1-1.8-.4-2.6l-10.2-.7-.1 1.3c0 2.3.9 4.5 2.5 6.1a8.7 8.7 0 005 2.6c.2-.2.4-.3.5-.6a7.9 7.9 0 002.7-6.1m19.4-7l-9.3 3.6c.2 2 1 3.9 2.5 5.3a9 9 0 005 2.6c.2-.2.4-.3.5-.6 3-2.9 3.5-7.4 1.3-10.9z"/><path class="cl17" d="M37.5 181.1c.3.8.4 1.7.4 2.6 0 2.3-.9 4.6-2.6 6.1l-.5.6H36c2.3 0 4.6-.9 6.2-2.6a8.3 8.3 0 002.6-6.1v-.1l-7.3-.5m25.4 4.5a8.3 8.3 0 002.6-6.1c0-1.9-.6-3.7-1.8-5.2l-6.4 2.5c2.2 3.5 1.7 8-1.2 10.9l-.5.6h1.2c2.2-.1 4.4-1 6.1-2.7z"/></g><path class="cl18" d="M43.3 195.8c3.2-4.7 7-5.2 11.1-1.8" id="uid_64"/><g id="uid_65"><path class="cl15" d="M69.8 152.6c-5.8-6-13.8-9.3-22.2-9.2a31.5 31.5 0 00-27 47.3 17 17 0 00-13.4 24.4c-1.6.9-3 2.1-4.3 3.5-2.4 2.7-3.4 5.5-2.9 8.6.4 2 1.4 3.7 2.9 5.1l2.3 1.9c.2-1.1.5-2.1 1-3.1 1-2.4 2.9-4.4 5.2-5.6 2.6-1.3 5.5-1.7 8.4-1.1 3.3.5 5.2 1.5 5.9 3.2.7-2.5 2-4.7 3.9-6.4a14 14 0 0114.6-3c2.4.8 4.6 1.9 6.5 3.4.5-1.9 2.5-3.4 6.2-4.6 3.7-1.2 8.8 1.2 15.3 7.2-2.1-10.3-.2-17.5 5.8-21.4a21.1 21.1 0 0119.2-2.6c-.6-2-.4-5.2.4-9.4s2.4-7.3 4.5-9.1c1.6-1.5 3.5-2.8 5.4-3.8a23.9 23.9 0 00-28.9-7 28.6 28.6 0 00-8.8-18.3z"/><path d="M137.2 217.6a9.8 9.8 0 00-5.7-3.1l-8.1-1.2-4.8-.7c-.4-2.5-1.6-4.7-3.4-6.4a12.4 12.4 0 00-5-3.1l1.6-3.8c.7-2.3 1-4.6 1-7 .1-5.3-1.7-10.5-5-14.6-2 1-3.8 2.3-5.4 3.8-2.1 1.8-3.6 4.8-4.5 9.1-.9 4.2-1 7.4-.4 9.4a20.9 20.9 0 00-19.2 2.6c-6 3.9-7.9 11.1-5.8 21.4-6.5-6-11.6-8.4-15.3-7.2-3.7 1.2-5.7 2.7-6.2 4.6-2-1.5-4.2-2.6-6.5-3.4-5-1.9-10.7-.7-14.5 3a13.3 13.3 0 00-3.9 6.4c-.7-1.7-2.6-2.7-5.9-3.2-2.9-.5-5.8-.1-8.4 1.1a11.3 11.3 0 00-5.2 5.6c-.5 1-.8 2-1 3.1.9.5 1.8 1 2.8 1.3 1.6.6 3.3 1 5 1.3 1.7.3 5.9.5 12.9.7 6.9.2 26.2-.1 58-.8l21-.5 18.5-.6c3.7-.1 7.5-.3 11.1-.8a9.5 9.5 0 005.9-4.2c1.1-2 1.3-4.4.4-6.6-1-2.3-2.3-4.4-4-6.2z" fill="#828282"/></g><g id="uid_66"><path class="cl16" d="M37.3 184c0-.9-.1-1.8-.4-2.6l-10.2-.7-.1 1.3c0 2.3.9 4.5 2.5 6.1a8.7 8.7 0 005 2.6c.2-.2.4-.3.5-.6a7.9 7.9 0 002.7-6.1m19.4-7l-9.3 3.6c.2 2 1 3.9 2.5 5.3a8.5 8.5 0 005.1 2.5c.2-.2.4-.3.5-.6 3-2.8 3.5-7.4 1.2-10.8z"/><path class="cl17" d="M36.9 181.4c.3.8.4 1.7.4 2.6 0 2.3-.9 4.6-2.6 6.1l-.5.6h1.2c2.3 0 4.6-.9 6.2-2.6a8.3 8.3 0 002.6-6.1v-.1l-7.3-.5m25.4 4.4a8.3 8.3 0 002.6-6.1c0-1.9-.6-3.7-1.8-5.2l-6.4 2.5c2.2 3.5 1.7 8-1.2 10.9l-.5.6h1.2c2.2-.1 4.4-1 6.1-2.7z"/></g><path class="cl18" d="M42.7 196c3.2-4.7 7-5.2 11.2-1.8" id="uid_67"/></g></g></g><g id="s20-664" transform="translate(20, 664)"><g transform="translate(-145.3, -140.7)"><style>.cl19 {
    fill: #999
    }
.cl20 {
    fill: #333
    }
.cl21 {
    fill: #fff
    }
.cl22 {
    fill: none;
    stroke: #333;
    stroke-width: 4;
    stroke-linecap: round;
    stroke-linejoin: round
    }</style><g id="uid_69"><path d="M203.5 245.5l-14.6 3.9 20.8 8-9.9 14.2 33.1-17-15.6-5.5 16.3-2.6-15-16.2-37.9 2.6 22.8 12.6z" fill="#fed100" id="uid_70"/><path class="cl19" d="M227.3 212.5c0-3.5-1.8-6.5-5.4-9l-1.1-.8c-4.4-2.7-9.6-4-15.9-4-5.6-.2-11 1.2-15.9 4-4.4 2.7-6.5 6-6.6 9.9 0 3.8 2.2 7.1 6.6 9.8l.9.6c4.6 2.5 9.7 3.7 14.9 3.6 5.6.2 11.1-1.3 15.9-4.1 4.4-2.9 6.6-6.2 6.6-10z" id="uid_71"/><path class="cl19" d="M226.6 175a31.3 31.3 0 10-9.2 22.1c6-5.8 9.3-13.8 9.2-22.1z" id="uid_72"/><path class="cl19" d="M260.4 193a23.7 23.7 0 10-47.4 0 23.7 23.7 0 0047.4 0z" id="uid_73"/><path class="cl19" d="M186.9 208.1a17 17 0 10-34 0 17 17 0 0034 0z" id="uid_74"/><path class="cl19" d="M266.2 215.1c0-6.7-5.5-12.2-12.2-12.2-6.7 0-12.2 5.5-12.2 12.2 0 6.7 5.5 12.2 12.2 12.2a12 12 0 008.6-3.6c2.4-2.2 3.7-5.4 3.6-8.6z" id="uid_75"/><path class="cl19" d="M284.3 217.8a12.5 12.5 0 00-6-2.9c-1.9-.2-13.2-1.6-33.9-4.4-20.8-2.7-49.4-1.7-86 3-3.2 1-6 3-8.1 5.6a9 9 0 00-2.3 8.6 14 14 0 002.8 5.4 11 11 0 004.6 2.6c2 .7 4.1 1 6.2 1 2.5 0 7 .3 13.4.9s27.9.3 64.2-.9c26.5 0 40.8-.4 43-1.2a9.3 9.3 0 006.2-11.5 12 12 0 00-4.1-6.2z" id="uid_76"/><g id="uid_77"><path class="cl20" d="M185.2 184.2c0-.9-.1-1.8-.4-2.6l-10.2-.7-.1 1.3c0 2.3.9 4.5 2.6 6.1a9 9 0 005.1 2.6l.6-.6a9 9 0 002.4-6.1m19.4-7l-9.3 3.6a9 9 0 007.6 7.9l.6-.6a8.9 8.9 0 001.1-10.9z"/><path class="cl21" d="M184.8 181.6c.3.8.4 1.7.4 2.6 0 2.3-.9 4.6-2.6 6.1l-.6.6h1.1a9 9 0 008.8-8.8v-.1l-7.1-.4m25.3 4.5a8.3 8.3 0 002.6-6.1c0-1.9-.6-3.7-1.8-5.2l-6.4 2.5c2.2 3.5 1.7 8-1.2 10.9l-.6.6h1.1a9.8 9.8 0 006.3-2.7z"/></g><path class="cl22" d="M190.6 196.2c3.2-4.7 7-5.2 11.1-1.8" id="uid_78"/><g id="uid_79"><path class="cl19" d="M217.4 152.9a31.3 31.3 0 00-49 38.2 17.1 17.1 0 00-13.9 24.4 15 15 0 00-4.2 3.7 9 9 0 00-2.3 8.6 14 14 0 002.8 5.4c.5.5 1 .9 1.6 1.2l1.3-3.8c.8-2.4 3.9-4.4 9.4-5.9s9-.5 10.9 3.1c2.1-6.5 5.9-9.7 11.5-9.6 5.6.1 9.6 1.5 12.1 4.1 1.3-2.3 3.7-4 7.2-5.1 3.6-1.1 8.4 1.5 14.6 7.6-1.7-10.1.2-17.1 5.6-21.1 5.5-4 12.2-4.8 20.2-2.4-1.3-4.5-1-9.4.6-13.8a19 19 0 018.2-10.7l-.6-.6a24 24 0 00-27-4.7 29.9 29.9 0 00-9-18.6z"/><path d="M284.3 217.8a12.5 12.5 0 00-6-2.9l-7.7-.9-4.5-.6c-.3-2.7-1.6-5.1-3.5-6.9a10.8 10.8 0 00-4.6-3 24.2 24.2 0 00-3.9-26.7 19 19 0 00-8.2 10.7 21.7 21.7 0 00-.6 13.8c-8-2.4-14.7-1.7-20.2 2.4-5.5 4-7.3 11-5.6 21.1-6.2-6.1-11-8.6-14.6-7.6-3.5 1.1-6 2.8-7.2 5.1-2.5-2.6-6.6-3.9-12.1-4.1s-9.4 3.1-11.5 9.6c-1.9-3.5-5.6-4.6-10.9-3.1-5.4 1.5-8.5 3.5-9.4 5.9l-1.3 3.8a18.7 18.7 0 009.2 2.4c2.5 0 7 .3 13.4.9s27.9.3 64.2-.9l12.9-.1 18.5-.3c6.7-.2 10.6-.5 11.6-.9a9.3 9.3 0 006.2-11.5c-.7-2.5-2.2-4.7-4.2-6.2z" fill="#828282"/></g><g id="uid_80"><path class="cl20" d="M184.6 184.4c0-.9-.1-1.8-.4-2.6l-10.2-.7-.1 1.3c0 2.3.9 4.5 2.6 6.1a9 9 0 005.1 2.6l.6-.6a8.8 8.8 0 002.4-6.1m19.4-7l-9.3 3.6c.2 2 1 3.9 2.5 5.3a8.7 8.7 0 005 2.6l.6-.6a8.8 8.8 0 001.2-10.9z"/><path class="cl21" d="M184.2 181.8c.3.8.4 1.7.4 2.6 0 2.3-.9 4.6-2.6 6.1l-.6.6h1.1a9 9 0 008.8-8.8v-.1l-7.1-.4m25.3 4.5a8.3 8.3 0 002.6-6.1c0-1.9-.6-3.7-1.8-5.2l-6.4 2.5c2.2 3.5 1.7 8-1.2 10.9l-.6.6h1.1a9 9 0 006.3-2.7z"/></g><path class="cl22" d="M190 196.5c3.2-4.7 7-5.2 11.1-1.8" id="uid_81"/></g></g></g><g id="s20-825" transform="translate(20, 825)"><g transform="translate(-290.6, -140.7)"><style>.cl23 {
    fill: #999
    }
.cl24 {
    fill: #333
    }
.cl25 {
    fill: #fff
    }
.cl26 {
    fill: none;
    stroke: #333;
    stroke-width: 4;
    stroke-linecap: round;
    stroke-linejoin: round
    }</style><g id="uid_83"><path d="M349.1 244.9l-13.6 4.4 22 9.2-10 13.2 33-16.4-16.1-6.8 16.9-1.8-16.7-17.4-36.8 2.9 21.3 12.7z" fill="#fed100" id="uid_84"/><path class="cl23" d="M374.3 211.9c0-3.5-1.8-6.5-5.4-9.1l-1.1-.8a33 33 0 00-31.7 0c-4.4 2.7-6.6 6-6.5 9.9 0 3.8 2.2 7.1 6.5 9.8l1 .6c4.6 2.5 9.7 3.7 14.9 3.6 5.6.2 11.1-1.3 15.9-4.1 4.3-2.8 6.4-6 6.4-9.9z" id="uid_85"/><path class="cl23" d="M374.1 174.2a31.3 31.3 0 10-62.6 0 31.3 31.3 0 0062.6 0z" id="uid_86"/><path class="cl23" d="M407.2 192.2a23.8 23.8 0 10-47.5.1 23.8 23.8 0 0047.5-.1z" id="uid_87"/><path class="cl23" d="M334.1 207.4a17 17 0 10-34 0 17 17 0 0034 0z" id="uid_88"/><path class="cl23" d="M413.3 214.9a12.3 12.3 0 10-3.6 8.6c2.4-2.2 3.7-5.3 3.6-8.6z" id="uid_89"/><path class="cl23" d="M323.8 236.8c6.1 1 29.6.7 70.4-1.1 21.3.7 33.1.5 35.4-.4a9.8 9.8 0 005.1-4.9c1.1-2.3 1.4-4.8 1-7.3-.5-2.7-2.1-5-4.5-6.4-2.6-1.6-4.7-2.5-6.3-2.6l-33.5-3.6a425 425 0 00-85.9 2.2c-3.2 1.1-6 3-8.1 5.7a8.6 8.6 0 00-1.6 8.7 22 22 0 002.6 5.6c1.2 1 2.5 1.8 4 2.2 2.4.7 4.9.9 7.4.6 4.6-.1 9.4.4 14 1.3z" id="uid_90"/><g id="uid_91"><path class="cl24" d="M332.5 183.3c0-.9-.1-1.8-.4-2.6l-10.2-.7-.1 1.3c0 2.3.9 4.5 2.5 6.1a9 9 0 005 2.6l.5-.6a8 8 0 002.7-6.1m19.4-7l-9.3 3.6c.2 2 1 3.9 2.5 5.3a9 9 0 005 2.6l.5-.6c3-2.9 3.5-7.5 1.3-10.9z"/><path class="cl25" d="M332.1 180.7c.3.8.4 1.7.4 2.6 0 2.3-.9 4.6-2.6 6.1l-.5.6 1.1.1a9 9 0 008.8-8.8v-.1l-7.2-.5m25.3 4.5a8.5 8.5 0 00.8-11.4l-6.4 2.5c2.2 3.5 1.7 8-1.2 10.9l-.5.6 1.1.1c2.4-.1 4.6-1 6.2-2.7z"/></g><path class="cl26" d="M337.9 195.3c3.2-4.7 6.9-5.2 11.1-1.8" id="uid_92"/><g id="uid_93"><path class="cl23" d="M365 152.2a31.3 31.3 0 00-49 38.2c-4.1.2-8 2-10.9 4.9a17.1 17.1 0 00-3.4 19.3c-1.7 1-3.1 2.3-4.3 3.9a8.6 8.6 0 00-1.6 8.7 22 22 0 002.6 5.6m0-.1a13.3 13.3 0 017.3-7.2c2.5-1.1 5.3-1.6 8-1.5 2.7-.1 5.3.8 7.4 2.4a9.8 9.8 0 013.8-6.8c2.1-1.8 4.7-2.7 7.4-2.6 2.4 0 4.7.3 7 .9 2.2.7 4.2 1.9 5.7 3.6 1-2 2.9-3.5 5.1-3.9 1.5-.4 3.1-.4 4.6-.1 1.6.5 3.1 1.1 4.5 2 2.6 1.4 5 3 7.4 4.7-1-5.6-1.2-9.9-.6-12.8.6-3 2.2-5.6 4.6-7.6 2.5-2.2 5.6-3.7 8.9-4.4 3.4-.8 7.6-.2 12.6 1.6-.7-3.8-.8-7.7-.1-11.5.6-3.9 1.9-6.9 3.8-8.8 1.6-1.8 3.5-3.2 5.5-4.4a24 24 0 00-27.4-6.3c-.8-6.9-4-13.3-8.9-18l-66.6 80.7z"/><path d="M431.2 216.7a15.2 15.2 0 00-6.3-2.6l-7.2-.8-4.5-.4c-.4-2.5-1.6-4.8-3.5-6.6a11.7 11.7 0 00-5.1-3.1 25 25 0 002.5-11.1c.1-5.8-2-11.3-5.9-15.6a21.3 21.3 0 00-5.5 4.4 15.6 15.6 0 00-3.8 8.8c-.7 3.8-.6 7.7.1 11.5-5-1.9-9.2-2.4-12.6-1.6-3.3.7-6.4 2.2-8.9 4.4-2.4 1.9-4 4.6-4.6 7.6-.6 2.9-.4 7.1.6 12.8a62 62 0 00-11.9-6.7c-1.5-.3-3.1-.3-4.6.1a7.5 7.5 0 00-5.1 3.9c-1.5-1.7-3.5-3-5.7-3.6-2.3-.6-4.7-.8-7-.9-2.7-.1-5.3.8-7.4 2.6a10.2 10.2 0 00-3.8 6.8 11.5 11.5 0 00-7.4-2.4c-2.8-.1-5.5.4-8 1.5a13 13 0 00-5.8 4.6c-.6.8-1.1 1.7-1.5 2.6 1.2 1 2.5 1.7 4 2.1 2.4.7 4.9.9 7.4.6 4.7-.1 9.4.3 14 1.2 6.1 1 29.6.7 70.4-1.1l4.9.1c7.5.2 13.7.3 18.5.2a43 43 0 0012-.9 9.8 9.8 0 005.1-4.9c1.1-2.3 1.4-4.8 1-7.3a9 9 0 00-4.4-6.2z" fill="#828282"/></g><g id="uid_94"><path class="cl24" d="M331.9 183.5c0-.9-.1-1.8-.4-2.6l-10.2-.7-.1 1.3c0 2.3.9 4.5 2.5 6.1a9 9 0 005 2.6l.5-.6a7.8 7.8 0 002.7-6.1m19.4-7l-9.3 3.6c.2 2 1 3.9 2.5 5.3a8.7 8.7 0 005 2.6l.5-.6c3-2.9 3.5-7.4 1.3-10.9z"/><path class="cl25" d="M331.5 180.9c.3.8.4 1.7.4 2.6 0 2.3-.9 4.6-2.6 6.1l-.5.6 1.1.1a9 9 0 008.8-8.8v-.1l-7.2-.5m25.3 4.5a8.3 8.3 0 002.6-6.1c0-1.9-.6-3.7-1.8-5.2l-6.4 2.5c2.2 3.5 1.7 8-1.2 10.9l-.5.6 1.1.1a9 9 0 006.2-2.8z"/></g><path class="cl26" d="M337.3 195.6c3.2-4.7 6.9-5.2 11.1-1.8" id="uid_95"/></g></g></g><g id="s20-986" transform="translate(20, 986)"><g transform="translate(-0.0, -281.4)"><style>.cl27 {
    fill: #999
    }
.cl28 {
    fill: #333
    }
.cl29 {
    fill: #fff
    }
.cl30 {
    fill: none;
    stroke: #333;
    stroke-width: 4;
    stroke-linecap: round;
    stroke-linejoin: round
    }</style><g id="uid_97"><path d="M54.3 389.3l-12.8 4.8 23.1 10.5-10 12.2L87.8 401l-16.7-8 17.4-.9-18.4-18.6-35.6 3.2 19.8 12.6z" fill="#fed100" id="uid_98"/><path class="cl27" d="M81.1 356.3c0-3.5-1.8-6.5-5.4-9l-1.2-.8a29.3 29.3 0 00-15.8-4c-6.2 0-11.5 1.3-15.8 4-4.4 2.7-6.5 6-6.5 9.9 0 3.8 2.2 7.1 6.5 9.8l1 .5c4.6 2.5 9.7 3.7 14.9 3.5 6.2 0 11.5-1.4 15.8-4.1s6.5-5.9 6.5-9.8z" id="uid_99"/><path class="cl27" d="M81.3 318.4c.1-8.3-3.2-16.3-9.1-22.1-5.8-6-13.8-9.3-22.2-9.2a31.2 31.2 0 00-22.2 53.3l.1.1c5.8 6 13.8 9.3 22.1 9.2 8.3.1 16.4-3.2 22.2-9.2a30.2 30.2 0 009.1-22.1z" id="uid_100"/><path class="cl27" d="M113.8 336.4a23.9 23.9 0 10-47.8 0 23.9 23.9 0 0047.8 0z" id="uid_101"/><path class="cl27" d="M41 351.6c.1-4.5-1.8-8.9-5-12a16.2 16.2 0 00-12.1-5c-4.5-.1-8.9 1.8-12 5a17 17 0 000 24 16 16 0 0012 5c4.5.1 8.9-1.7 12.1-5 3.3-3.1 5.1-7.4 5-12z" id="uid_102"/><path class="cl27" d="M120.1 359.7c0-6.7-5.5-12.2-12.2-12.2-6.7 0-12.2 5.5-12.2 12.2a12.2 12.2 0 1024.4 0z" id="uid_103"/><path class="cl27" d="M30.8 380.8c5.7.7 30 .6 72.8-.5 19.3.1 30.1-.2 32.3-1a9.5 9.5 0 005.5-4.5 9.7 9.7 0 00-4.2-13 25.6 25.6 0 00-6-2.9c-1.3-.3-12.4-1.4-33.1-3.5a471.4 471.4 0 00-85.9 2 17.2 17.2 0 00-8.2 5.8 8.5 8.5 0 00-1.5 8.8 22 22 0 002.6 5.6c1.1 1 2.4 1.7 3.8 2 1.7.6 4.3.8 7.8.5 4.8-.2 9.5 0 14.1.7z" id="uid_104"/><g id="uid_105"><path class="cl28" d="M39.5 327.2c0-.9-.1-1.8-.4-2.6l-10.2-.7-.1 1.3c0 2.3.9 4.5 2.5 6.1a8 8 0 005 2.5l.5-.5a7.8 7.8 0 002.7-6.1m19.4-7l-9.3 3.6c.2 2 1 3.9 2.5 5.3a8 8 0 005 2.5l.5-.5a8.3 8.3 0 002.6-6.1c.1-1.7-.4-3.3-1.3-4.7v-.1z"/><path class="cl29" d="M39.2 324.6c1 3.1.1 6.5-2.2 8.8l-.5.5h1.2a9 9 0 008.8-8.8v-.1l-7.3-.4m25.3 4.5a8.3 8.3 0 002.6-6.1c0-1.9-.6-3.7-1.8-5.2l-6.4 2.5a9 9 0 011.4 4.8c0 2.3-.9 4.6-2.6 6.1l-.5.5h1.2a8 8 0 006.1-2.6z"/></g><path class="cl30" d="M45 339.3c3.2-4.7 6.9-5.2 11.2-1.8" id="uid_106"/><g id="uid_107"><path class="cl27" d="M89.9 312.4c-3 0-6 .5-8.8 1.6a30 30 0 00-8.9-17.7c-5.8-6-13.8-9.3-22.2-9.2a31.3 31.3 0 00-26.9 47.4 16 16 0 00-11.2 5c-5.1 5.2-6.5 13-3.3 19.5a16 16 0 00-4.6 4 8.5 8.5 0 00-1.5 8.8c.7 1.7 1.2 3.1 1.8 4.1 2.8-3.2 6.8-5.6 12.1-7.2 5.2-1.6 9-.8 11.3 2.6.8-3.3 1.9-5.6 3.2-6.9a9.6 9.6 0 015.8-2.5c2.6-.3 5.2-.1 7.8.4 3.5.6 5.7 1.8 6.6 3.5 2.1-2.4 4.9-4 8-4.6 3.1-.7 7.7 1.6 13.8 6.9-2.7-9.8-.9-16.7 5.7-20.9 6-4.2 13.8-4.8 20.4-1.8-1.1-5-.7-10.2 1.2-14.9 1.8-4.7 4.3-8 7.5-10.1l-.8-.9a23.3 23.3 0 00-17-7.1z"/><path d="M137.2 361.8a25.6 25.6 0 00-6-2.9l-6.8-.8-4.4-.5a12 12 0 00-3.4-6.6 10.9 10.9 0 00-5.6-3.2c.7-1.3 1.3-2.6 1.8-4 .7-2.4 1.1-5 1.1-7.5a23 23 0 00-6.1-16 20.6 20.6 0 00-7.5 10.1 25.3 25.3 0 00-1.2 14.9c-6.6-3-14.4-2.3-20.3 1.9-6.5 4.2-8.4 11.1-5.7 20.9-6.1-5.2-10.8-7.5-13.8-6.9-3.1.6-5.9 2.2-8 4.6-.9-1.7-3.1-2.9-6.6-3.5-2.6-.5-5.2-.6-7.8-.4a9 9 0 00-5.8 2.5 13 13 0 00-3.2 6.9c-2.3-3.4-6.1-4.3-11.3-2.6s-9.2 4.1-12.1 7.3l.9 1.5c1.1 1 2.4 1.7 3.8 2 1.7.6 4.3.8 7.8.5 4.7-.2 9.4 0 14 .8 5.7.7 30 .6 72.8-.5h2.2l18.5-.1c6.5-.1 10.4-.4 11.6-.9a9.5 9.5 0 005.5-4.5 9.8 9.8 0 00-4.4-13z" fill="#828282"/></g><g id="uid_108"><path class="cl28" d="M39 327.5c0-.9-.1-1.8-.4-2.6l-10.2-.7-.1 1.3c0 2.3.9 4.5 2.5 6.1a8 8 0 005 2.5l.5-.5a8.4 8.4 0 002.7-6.1m19.3-7l-9.3 3.6c.2 2 1 3.9 2.5 5.3a8 8 0 005 2.5l.5-.5a8.3 8.3 0 002.6-6.1c.2-1.7-.3-3.4-1.3-4.8z"/><path class="cl29" d="M38.5 324.9c1 3.1.1 6.5-2.2 8.8l-.5.5H37a9 9 0 008.8-8.8v-.1l-7.3-.4m25.4 4.5a8.3 8.3 0 002.6-6.1c0-1.9-.6-3.7-1.8-5.2l-6.4 2.5a9 9 0 011.4 4.8c0 2.3-.9 4.6-2.6 6.1l-.5.5h1.2c2.3 0 4.5-.9 6.1-2.6z"/></g><path class="cl30" d="M44.3 339.5c3.2-4.7 6.9-5.2 11.2-1.8" id="uid_109"/></g></g></g><g id="s20-1147" transform="translate(20, 1147)"><g transform="translate(-145.3, -281.4)"><style>.cl31 {
    fill: #999
    }
.cl32 {
    fill: #333
    }
.cl33 {
    fill: #fff
    }
.cl34 {
    fill: none;
    stroke: #333;
    stroke-width: 4;
    stroke-linecap: round;
    stroke-linejoin: round
    }</style><g id="uid_111"><path d="M188.3 394.6l24.4 11.8-10.1 11.2 33-15.2-17.2-9.2h18l-20.1-19.9-34.4 3.6 18.3 12.5-11.9 5.2z" fill="#fed100" id="uid_112"/><path class="cl31" d="M228.4 356.4c0-3.5-1.8-6.5-5.4-9l-1.1-.8a33 33 0 00-31.7 0c-4.4 2.7-6.6 6-6.6 9.9s2.2 7.1 6.6 9.8l1 .5c4.6 2.5 9.7 3.7 14.9 3.5 5.6.2 11.1-1.3 15.9-4.1 4.2-2.7 6.4-5.9 6.4-9.8z" id="uid_113"/><path class="cl31" d="M229.1 318.3a31.3 31.3 0 10-9.1 22.2c6-5.9 9.3-13.9 9.1-22.2z" id="uid_114"/><path class="cl31" d="M260.9 336.2a23.9 23.9 0 10-47.8 0 23.9 23.9 0 0047.8 0z" id="uid_115"/><path class="cl31" d="M188.4 351.5a17 17 0 10-34 0 17 17 0 0034 0z" id="uid_116"/><path class="cl31" d="M267.4 360.1a12.2 12.2 0 10-3.5 8.6c2.3-2.2 3.6-5.3 3.5-8.6z" id="uid_117"/><path class="cl31" d="M178.4 380.5c5.4.5 30.5.5 75.2 0a255 255 0 0029.2-1.4 9.5 9.5 0 005.9-4.2c1.1-2 1.3-4.4.5-6.5-.7-2.3-2.5-4.2-5.4-5.8a63.6 63.6 0 00-5.8-3c-1.1-.4-12-1.6-32.7-3.5s-49.3-1.3-85.8 1.8a17 17 0 00-8.1 5.8 8 8 0 00-1.2 8.8c.7 2 1.5 3.9 2.6 5.7 1.1.9 2.3 1.6 3.7 1.9 1.7.6 4.4.7 8.2.4a57 57 0 0113.7 0z" id="uid_118"/><g id="uid_119"><path class="cl32" d="M187 327.2c0-.9-.1-1.8-.4-2.6l-10.2-.7-.1 1.3c0 2.3.9 4.5 2.6 6.1a8.3 8.3 0 005.1 2.5l.6-.5a9 9 0 002.4-6.1m19.4-7l-9.3 3.6c.2 2 1 3.9 2.5 5.3a8 8 0 005 2.5l.6-.5a8.8 8.8 0 001.2-10.9z"/><path class="cl33" d="M186.6 324.6c.3.8.4 1.7.4 2.6 0 2.3-.9 4.6-2.6 6.1l-.6.5h1.1a9 9 0 008.8-8.8l-7.1-.4m25.3 4.4a8.3 8.3 0 002.6-6.1c0-1.9-.6-3.7-1.8-5.2l-6.4 2.5c2.2 3.5 1.7 8-1.2 10.9l-.6.5h1.1c2.5.1 4.7-.8 6.3-2.6z"/></g><path class="cl34" d="M192.4 339.2c3.2-4.7 6.9-5.2 11.1-1.8" id="uid_120"/><g id="uid_121"><path class="cl31" d="M237 312.2c-2.8 0-5.5.4-8.1 1.4a31.3 31.3 0 10-57.9 20.8 17 17 0 00-14.8 24.8 16.2 16.2 0 00-4.8 4.2 8 8 0 00-1.2 8.8c.7 1.9 1.5 3.8 2.5 5.5a15 15 0 011.6-3.4c1.5-2.3 3.6-4.1 6.1-5 2.6-1.1 5.4-1.6 8.2-1.2a12 12 0 017.1 3 7.4 7.4 0 013.1-6.3c2.2-1.7 5-2.7 7.8-2.8a31 31 0 016.8.2c2.2.5 4.1 1.8 5.4 3.6a5.4 5.4 0 013.1-3c1.5-.6 3-1 4.6-1.2a8 8 0 014.8.6c3.3 1.9 6.5 4 9.5 6.4a33 33 0 01-1.1-11.7c.4-3.2 2-6.1 4.4-8.1a22 22 0 019.6-4.6c3.9-1 8.2-.4 12.8 1.8-.8-3.1-1-6.3-.6-9.5.2-3.4 1.4-6.7 3.4-9.5 1.8-2.3 4.1-4.2 6.6-5.6a18 18 0 00-1.9-2 22.6 22.6 0 00-17-7.2z"/><path d="M283.8 362.5a63.6 63.6 0 00-5.8-3c-2.1-.4-4.2-.7-6.4-.9l-4.4-.5c-.9-4.9-4.6-8.8-9.5-10 .8-1.3 1.4-2.8 2-4.2a26 26 0 001.2-7.8 23 23 0 00-5.1-14.9 21 21 0 00-6.6 5.6c-2 2.7-3.2 6-3.4 9.5-.4 3.2-.2 6.4.6 9.5a19.8 19.8 0 00-12.8-1.8c-3.5.8-6.8 2.4-9.6 4.6a12 12 0 00-4.4 8.1 31 31 0 001.1 11.7c-3-2.4-6.2-4.5-9.5-6.4a7.9 7.9 0 00-4.8-.6c-1.6.2-3.1.6-4.6 1.2a6 6 0 00-3.1 3 8.4 8.4 0 00-5.4-3.6 22 22 0 00-6.8-.2c-2.8.1-5.6 1.1-7.8 2.8a7.1 7.1 0 00-3.1 6.3c-2-1.7-4.4-2.8-7.1-3-2.8-.3-5.6.1-8.2 1.2a13 13 0 00-7.7 8.4l.1.1c1.1.9 2.3 1.6 3.7 1.9 1.7.6 4.4.7 8.2.4a1578.6 1578.6 0 0088.6.2h.4l18-.5c6.3-.3 10-.6 11.1-.9a9.5 9.5 0 005.9-4.2c1.1-2 1.3-4.4.5-6.5-.7-2-2.5-3.9-5.3-5.5z" fill="#828282"/></g><g id="uid_122"><path class="cl32" d="M186.4 327.4c0-.9-.1-1.8-.4-2.6l-10.2-.7-.1 1.3c0 2.3.9 4.5 2.6 6.1a8 8 0 005 2.5l.6-.5a9.4 9.4 0 002.5-6.1m19.3-7l-9.3 3.6c.2 2 1 3.9 2.5 5.3a8.3 8.3 0 005.1 2.5l.6-.5a8.9 8.9 0 001.1-10.9z"/><path class="cl33" d="M186 324.8c.3.8.4 1.7.4 2.6 0 2.3-.9 4.6-2.6 6.1l-.6.5h1.1a9 9 0 008.8-8.8v-.1l-7.1-.3m25.3 4.5a8.3 8.3 0 002.6-6.1c0-1.9-.6-3.7-1.8-5.2l-6.4 2.5c2.2 3.5 1.7 8-1.2 10.9l-.6.5h1.1c2.5 0 4.7-.9 6.3-2.6z"/></g><path class="cl34" d="M191.8 339.5c3.2-4.7 6.9-5.2 11.1-1.8" id="uid_123"/></g></g></g><g id="s20-1308" transform="translate(20, 1308)"><g transform="translate(-290.6, -281.4)"><style>.cl35 {
    fill: #999
    }
.cl36 {
    fill: #333
    }
.cl37 {
    fill: #fff
    }
.cl38 {
    fill: none;
    stroke: #333;
    stroke-width: 4;
    stroke-linecap: round;
    stroke-linejoin: round
    }</style><g id="uid_125"><path d="M347.2 388.9l-11.8 5.4 22 10.4-10.1 12.4 32.6-16.2-15.5-8 16.5-1-16.9-18.8-36 3.8 19.2 12z" fill="#fed100" id="uid_126"/><path class="cl35" d="M374.5 355.4c0-3.5-1.8-6.5-5.4-9l-1.1-.8a29.4 29.4 0 00-15.9-4c-6.2 0-11.5 1.3-15.9 4s-6.6 6-6.5 9.9c0 3.8 2.2 7.1 6.5 9.8l1 .5c4.6 2.5 9.7 3.7 14.9 3.5 6.2 0 11.5-1.4 15.9-4.1s6.5-6 6.5-9.8z" id="uid_127"/><path class="cl35" d="M374.9 317.4a31.2 31.2 0 10-62.5 0 31.2 31.2 0 0062.5 0z" id="uid_128"/><path class="cl35" d="M406.8 334.9c0-13.3-10.8-24-24.1-23.9s-24 10.8-23.9 24.1a24 24 0 0041 16.8 23.2 23.2 0 007-17z" id="uid_129"/><path class="cl35" d="M334.6 350.7a17 17 0 10-34 0 17 17 0 0034 0z" id="uid_130"/><path class="cl35" d="M413.6 359.5c0-6.7-5.5-12.2-12.2-12.2s-12.2 5.5-12.2 12.2a12.2 12.2 0 0020.8 8.6c2.4-2.2 3.7-5.3 3.6-8.6z" id="uid_131"/><path class="cl35" d="M430.2 361.8a38.6 38.6 0 00-7.4-3.5c-2.5-.8-10.7-1.7-24.7-2.5a650.1 650.1 0 00-92.6 1.1c-3.2 1.1-6.1 3-8.1 5.7a8.6 8.6 0 00-1.6 8.7 20 20 0 002.6 5.5c1.2 1 2.5 1.8 4 2.2 2.5.7 5.1.9 7.6.6 4-.2 7.9-.1 11.9.3 7 1.1 34.7 1 83.1-.3 13.9-.3 21.9-.7 23.9-1.3a9.5 9.5 0 005.9-4.2c1.1-2 1.3-4.4.5-6.5-.9-2.5-2.7-4.6-5.1-5.8z" id="uid_132"/><g id="uid_133"><path class="cl36" d="M333 326.3c0-.9-.1-1.8-.4-2.6l-10.2-.7-.1 1.3c0 2.3.9 4.5 2.5 6.1a8 8 0 005 2.5l.5-.5a8 8 0 002.7-6.1m19.4-7l-9.3 3.6c.2 2 1 3.9 2.5 5.3a8 8 0 005 2.5l.5-.5a8.3 8.3 0 002.6-6.1c.1-1.8-.4-3.4-1.3-4.8z"/><path class="cl37" d="M332.6 323.7c1 3.1.1 6.5-2.2 8.8l-.5.5h1.1a9 9 0 008.8-8.8v-.1l-7.2-.4m25.4 4.4a8.3 8.3 0 002.6-6.1c0-1.9-.6-3.7-1.8-5.2l-6.4 2.5a9 9 0 011.4 4.8c0 2.3-.9 4.6-2.6 6.1l-.5.5h1.1c2.3 0 4.6-.9 6.2-2.6z"/></g><path class="cl38" d="M338.4 338.3c3.2-4.7 7-5.2 11.1-1.8" id="uid_134"/><g id="uid_135"><path class="cl35" d="M382.8 310.8c-2.8 0-5.6.5-8.2 1.4a31.2 31.2 0 10-57.4 21.4 17.2 17.2 0 00-14.7 24.8 16.6 16.6 0 00-4.9 4.2 8.6 8.6 0 00-1.6 8.7 20 20 0 002.6 5.5l.8.7 1.9-4.5c1.1-2.6 3.7-4.4 8-5.4 4-.9 8.2-.2 11.6 2.2 1.6-4.7 5.2-7.6 10.8-8.6 5.6-1.1 10.1.4 13.6 4.4.2-2 2.3-3.6 6.2-4.8s8.8 1 14.5 6.5c-1.7-9.3.1-16.2 5.6-20.7s12.7-5.1 21.8-2c-1.7-4.8-1.6-10 .2-14.8 1.8-5 4.2-8.7 7.2-11.1l-1-1c-4.5-4.4-10.6-7-17-6.9z"/><path d="M430.2 361.8a38.6 38.6 0 00-7.4-3.5l-5.1-.9-4.4-.5a11 11 0 00-3.4-6 11.5 11.5 0 00-6.7-3.5 24.4 24.4 0 00-2.6-28.5c-3 2.4-5.4 6.1-7.2 11.1-1.9 4.7-2 10-.2 14.8-9.1-3.1-16.4-2.4-21.8 2-5.4 4.4-7.3 11.3-5.6 20.7-5.7-5.5-10.5-7.6-14.5-6.5s-6 2.7-6.2 4.8c-3.6-4-8.1-5.5-13.6-4.4-5.5 1.1-9.1 4-10.7 8.7a14.4 14.4 0 00-11.6-2.1c-4.3.9-6.9 2.7-8 5.4l-1.9 4.5c1 .7 2.1 1.2 3.2 1.5 2.5.7 5.1.9 7.6.6 4-.2 7.9-.1 11.9.2 6.7 1.1 32.5 1.1 77.3-.1l5.8-.1 12.7-.4c6.2-.3 9.9-.6 11.1-1a9.5 9.5 0 005.9-4.2c1.1-2 1.3-4.4.5-6.5a10 10 0 00-5.1-6.1z" fill="#828282"/></g><g id="uid_136"><path class="cl36" d="M332.4 326.5c0-.9-.1-1.8-.4-2.6l-10.2-.7-.1 1.3c0 2.3.9 4.5 2.5 6.1a8 8 0 005 2.5l.5-.5a7.9 7.9 0 002.7-6.1m19.4-7l-9.3 3.6c.2 2 1 3.9 2.5 5.3a8 8 0 005 2.5l.5-.5a8.3 8.3 0 002.6-6.1 8 8 0 00-1.3-4.8z"/><path class="cl37" d="M332 323.9c1 3.1.1 6.5-2.2 8.8l-.5.5h1.1a9 9 0 008.8-8.8v-.1l-7.2-.4m25.4 4.5a8.3 8.3 0 002.6-6.1c0-1.9-.6-3.7-1.8-5.2l-6.4 2.5a9 9 0 011.4 4.8c0 2.3-.9 4.6-2.6 6.1l-.5.5h1.1c2.3 0 4.5-.9 6.2-2.6z"/></g><path class="cl38" d="M337.8 338.6c3.2-4.7 6.9-5.2 11.1-1.8" id="uid_137"/></g></g></g><g id="s20-1469" transform="translate(20, 1469)"><g transform="translate(-0.0, -422.1)"><style>.cl39 {
    fill: #999
    }
.cl40 {
    fill: #333
    }
.cl41 {
    fill: #fff
    }
.cl42 {
    fill: none;
    stroke: #333;
    stroke-width: 4;
    stroke-linecap: round;
    stroke-linejoin: round
    }</style><g id="uid_139"><path d="M55 534.1l-11.8 5.5 19.8 9.2-10.2 13.5L85 545l-13.7-6.8 15.2-2-13.7-17.6-37.7 4L55 534.1z" fill="#fed100" id="uid_140"/><path class="cl39" d="M81.3 500.1c0-3.5-1.8-6.5-5.4-9l-1.2-.8c-4.4-2.7-9.6-4-15.8-4a28.9 28.9 0 00-15.8 4c-4.4 2.7-6.5 6-6.5 9.9 0 3.8 2.2 7.1 6.5 9.8l1 .5c4.6 2.5 9.7 3.7 14.9 3.5 6.2 0 11.5-1.4 15.8-4.1 4.4-2.6 6.5-5.9 6.5-9.8z" id="uid_141"/><path class="cl39" d="M81.4 462.3c.1-8.3-3.2-16.2-9.1-22-5.8-6-13.7-9.3-22-9.1a31 31 0 00-22.2 52.9l.2.2c5.8 6 13.7 9.3 22 9.1 8.3.1 16.2-3.2 22-9.1a30.3 30.3 0 009.1-22z" id="uid_142"/><path class="cl39" d="M113.2 480a24.1 24.1 0 10-48.2 0 24.1 24.1 0 0048.2 0z" id="uid_143"/><path class="cl39" d="M41.6 495.6c.1-4.5-1.8-8.9-5-12a16.2 16.2 0 00-12.1-5c-4.5-.1-8.9 1.8-12 5a17 17 0 000 24c3.1 3.2 7.5 5.1 12 5 4.5.1 8.9-1.7 12.1-5 3.2-3.1 5.1-7.5 5-12z" id="uid_144"/><path class="cl39" d="M120 504.2c0-6.7-5.5-12.2-12.2-12.2-6.7 0-12.2 5.5-12.2 12.2a12.2 12.2 0 0020.8 8.6c2.4-2.2 3.7-5.3 3.6-8.6z" id="uid_145"/><path class="cl39" d="M128.4 502.9a54 54 0 00-16.7-1.5 789 789 0 00-99.3.6c-3.2 1.1-6 3-8.1 5.6a8.8 8.8 0 00-2.1 8.6 14 14 0 002.8 5.4c1.3 1.2 2.8 2 4.4 2.5 2.3.7 4.7.9 7.1.8 2.6-.1 5.9 0 10 .2 8.5 1.8 38.8 1.6 91-.6a109 109 0 0018.5-1.2 9.1 9.1 0 005.9-4.2c1.1-2 1.3-4.4.4-6.5-.8-2.4-2.5-4.4-4.6-5.8-3-1.7-6.1-3-9.3-3.9z" id="uid_146"/><g id="uid_147"><path class="cl40" d="M39.7 471.2c0-.9-.1-1.8-.4-2.6l-10.3-.7-.1 1.3c0 2.3.9 4.5 2.5 6.1a8 8 0 005 2.5l.5-.5a8 8 0 002.8-6.1m19.3-7l-9.3 3.6c.2 2 1 3.9 2.5 5.3a8 8 0 005 2.5l.5-.5a8.4 8.4 0 001.3-10.9z"/><path class="cl41" d="M39.3 468.6c.3.8.4 1.7.4 2.6 0 2.3-.9 4.6-2.6 6.1l-.5.5h1.2a9 9 0 008.8-8.8l-7.3-.4m25.4 4.5a8.3 8.3 0 002.6-6.1c0-1.9-.6-3.7-1.8-5.2l-6.4 2.5c2.2 3.5 1.7 8-1.2 10.9l-.5.5h1.2c2.2 0 4.5-.9 6.1-2.6z"/></g><path class="cl42" d="M45.1 483.2c3.2-4.7 7-5.2 11.2-1.8" id="uid_148"/><g id="uid_149"><path class="cl39" d="M89.1 455.9c-2.7 0-5.4.4-8 1.4a30 30 0 00-8.7-16.9c-5.8-6-13.8-9.3-22.1-9.1a31.3 31.3 0 00-26.6 47.3c-4.2.2-8.2 1.9-11.1 5a16.2 16.2 0 00-5 12c0 2.7.6 5.4 1.8 7.8a18.8 18.8 0 00-5.1 4.2 8.8 8.8 0 00-2.1 8.6 14 14 0 002.8 5.4l1 .9c.5-4.3 3-7.3 7.4-9 4.4-1.7 9.2-1.4 14.4 1.1 0-2.7 1.4-5.1 3.8-6.5a14 14 0 017.9-2.5 14 14 0 018 2c2.5 1.4 4.1 2.7 4.7 4a4 4 0 011.7-4 8.7 8.7 0 014.6-2c1.7-.3 3.5 0 5.1.8 1.6.8 5 2.7 10.1 5.8-.7-5.3-.7-9.2 0-12a16.2 16.2 0 0112.1-12.5c3.6-1.1 8.5-.4 14.7 2.1a21.4 21.4 0 01-.5-12c.7-2.9 1.7-5.8 2.8-8.6.9-2.1 2.4-3.9 4.3-5.1l-.8-.9a22.6 22.6 0 00-17.2-7.3z"/><path d="M137.4 506.8a40.5 40.5 0 00-12.8-4.9l-4.9-.5a12.4 12.4 0 00-9.7-9.3c.9-1.4 1.6-3 2.1-4.5.8-2.5 1.2-5.1 1.2-7.7a23 23 0 00-6.2-16.1c-1.9 1.2-3.4 3-4.3 5.1a66.4 66.4 0 00-2.8 8.6c-1 4-.8 8.2.5 12-6.2-2.5-11.1-3.2-14.7-2.1a17 17 0 00-8.3 5 18.4 18.4 0 00-3.8 7.5 33 33 0 000 11.9c-5.1-3.1-8.5-5-10.1-5.8a8.3 8.3 0 00-5.1-.8c-1.7.2-3.3.9-4.6 2a4.2 4.2 0 00-1.7 4c-.6-1.2-2.1-2.5-4.7-4a14.9 14.9 0 00-8-2c-2.8.1-5.6 1-7.9 2.5a7.7 7.7 0 00-3.8 6.5c-5.2-2.6-10-2.9-14.4-1.2-4.4 1.8-6.9 4.8-7.4 9 1 .7 2.2 1.2 3.3 1.6 2.3.7 4.7.9 7.1.8 2.6-.1 5.9 0 10 .2 7.9 1.7 34.5 1.7 79.8-.2l11.2-.5 7.3-.2c6-.2 9.7-.5 11.2-1a9.1 9.1 0 005.9-4.2c1.1-2 1.3-4.4.4-6.5-.9-1.9-2.6-3.9-4.8-5.2z" fill="#828282"/></g><g id="uid_150"><path class="cl40" d="M39.1 471.5c0-.9-.1-1.8-.4-2.6l-10.2-.7-.1 1.3c0 2.3.9 4.5 2.5 6.1a9.3 9.3 0 005.1 2.6l.5-.5a8.3 8.3 0 002.6-6.2m19.4-7l-9.3 3.6c.2 2 1 3.9 2.5 5.3a8 8 0 005 2.5l.5-.5c3-2.9 3.5-7.5 1.3-10.9z"/><path class="cl41" d="M38.7 468.9c.3.8.4 1.7.4 2.6 0 2.3-.9 4.6-2.6 6.1l-.5.5h1.2a9 9 0 008.8-8.8v-.1l-7.3-.3m25.4 4.4a8.3 8.3 0 002.6-6.1c0-1.9-.6-3.7-1.8-5.2l-6.4 2.5c2.2 3.5 1.7 8-1.2 10.9l-.5.5H58c2.2.1 4.5-.8 6.1-2.6z"/></g><path class="cl42" d="M44.5 483.5c3.2-4.7 7-5.2 11.2-1.8" id="uid_151"/></g></g></g><g id="s20-1630" transform="translate(20, 1630)"><g transform="translate(-145.3, -422.1)"><style>.cl43 {
    fill: #999
    }
.cl44 {
    fill: #333
    }
.cl45 {
    fill: #fff
    }
.cl46 {
    fill: none;
    stroke: #333;
    stroke-width: 4;
    stroke-linecap: round;
    stroke-linejoin: round
    }</style><g id="uid_153"><path d="M203.5 534.8l-11.8 5.7 17.4 7.8-10.2 14.6 31.7-18.2-11.8-5.5 13.7-3-10.5-16.5-39.3 4.2 20.8 10.9z" fill="#fed100" id="uid_154"/><path class="cl43" d="M228.7 500.4c0-3.5-1.8-6.5-5.4-9l-1.1-.8a29.4 29.4 0 00-15.9-4c-6.2 0-11.5 1.4-15.9 4-4.4 2.7-6.6 6-6.6 9.9 0 3.8 2.2 7.1 6.6 9.8l1 .5c4.6 2.5 9.7 3.7 14.9 3.5 6.2 0 11.5-1.4 15.9-4.1 4.4-2.7 6.6-6 6.5-9.8z" id="uid_155"/><path class="cl43" d="M228.5 462.7a31 31 0 10-52.9 22 31 31 0 0052.9-22z" id="uid_156"/><path class="cl43" d="M260.2 480.6a24 24 0 00-24.2-24.1 24 24 0 00-24.1 24.2 24 24 0 0041.3 17 23.4 23.4 0 007-17.1z" id="uid_157"/><path class="cl43" d="M189.1 496a17 17 0 10-34 0 17 17 0 0034 0z" id="uid_158"/><path class="cl43" d="M267 504.5c0-6.7-5.5-12.2-12.2-12.2-6.7 0-12.2 5.5-12.2 12.2a12.2 12.2 0 0020.8 8.6c2.4-2.2 3.7-5.4 3.6-8.6z" id="uid_159"/><path class="cl43" d="M277.7 504.1c-3.9-1-7.8-1.5-11.8-1.5-35.2-4-70.8-3.9-106 0-3.2 1-6 2.9-8.1 5.5a9.5 9.5 0 00-2.5 8.6 11 11 0 002.8 5.2c1.3 1.3 3 2.2 4.8 2.8 2.1.7 4.3 1 6.4 1l8 .2c10 .8 42.9.5 98.8-1 6.8-.1 11.1-.4 13.1-1a9.5 9.5 0 005.9-4.2c1.1-2 1.3-4.4.5-6.5-.8-2.3-2.3-4.3-4.3-5.7a34.6 34.6 0 00-7.6-3.4z" id="uid_160"/><g id="uid_161"><path class="cl44" d="M187 471.8c0-.9-.1-1.8-.4-2.6l-10.2-.7-.1 1.3c0 2.3.9 4.5 2.6 6.1a8 8 0 005.1 2.5l.6-.5a9 9 0 002.4-6.1m19.4-7.1l-9.3 3.6c.2 2 1 3.9 2.5 5.3a8 8 0 005 2.5l.6-.5a8.3 8.3 0 002.6-6.1c0-1.7-.5-3.3-1.4-4.8z"/><path class="cl45" d="M186.6 469.1c1 3.1.1 6.5-2.2 8.8-.2.2-.3.4-.6.5h1.1a9 9 0 008.8-8.8v-.1l-7.1-.4m25.3 4.5a8.3 8.3 0 002.6-6.1c0-1.9-.6-3.7-1.8-5.2l-6.4 2.5a9 9 0 011.4 4.8c0 2.3-.9 4.6-2.6 6.1-.2.2-.3.4-.6.5h1.1a8 8 0 006.3-2.6z"/></g><path class="cl46" d="M192.4 483.8c3.2-4.7 6.9-5.3 11.1-1.8" id="uid_162"/><g id="uid_163"><path class="cl43" d="M236 456.4c-2.7 0-5.3.4-7.9 1.2a31 31 0 10-57.3 21.4 17.1 17.1 0 00-13.9 25c-2.1 1-3.9 2.5-5.4 4.2a9.5 9.5 0 00-2.5 8.6 11 11 0 002.8 5.2l1.2 1c1.1-4.5 3.2-7.5 6.3-9.1 2.8-1.5 6-2.2 9.2-2.1 3 .1 5 1.4 6 3.7 1.4-5.1 5.7-8.9 11-9.6a19 19 0 017.9.8c2.8.9 5 2.9 6.2 5.5-.2-3.2 1.7-5.4 5.7-6.5 4-1.1 9 1 15 6.4-1.7-9.2.2-16.1 5.6-20.6 5.4-4.5 12.7-5.1 21.9-1.6-2-5.5-2.1-10.4-.3-14.9s4-7.9 6.6-10.2l-1.3-1.4a22.3 22.3 0 00-16.8-7z"/><path d="M285.2 507.6a30.1 30.1 0 00-13.1-4.6l-5.1-.4c-.4-2.6-1.6-5-3.5-6.9-1.7-1.8-3.9-3-6.3-3.4a23.2 23.2 0 003-11.9c.1-5.8-2-11.4-5.8-15.7a26.5 26.5 0 00-6.6 10.2c-1.8 4.5-1.7 9.5.3 14.9-9.1-3.5-16.4-2.9-21.9 1.6s-7.3 11.4-5.6 20.7c-6.1-5.4-11.1-7.5-15-6.4-3.9 1.1-5.8 3.3-5.7 6.4a10.5 10.5 0 00-6.2-5.5c-2.6-.8-5.3-1.1-7.9-.8-5.3.8-9.6 4.5-11 9.7-1-2.4-3-3.6-6-3.8-3.2-.1-6.4.6-9.2 2.1-3.1 1.6-5.2 4.6-6.3 9.1 1.1.8 2.3 1.4 3.6 1.8 2.1.7 4.3 1 6.4 1l8 .2c9 .7 36.4.6 82.3-.5l16.5-.5h2c5.6-.1 9.4-.4 11.1-1a9.5 9.5 0 005.9-4.2c1.1-2 1.3-4.4.5-6.5-.8-2.2-2.3-4.2-4.4-5.6z" fill="#828282"/></g><g id="uid_164"><path class="cl44" d="M186.4 472c0-.9-.1-1.8-.4-2.6l-10.2-.7-.1 1.3c0 2.3.9 4.5 2.6 6.1a8 8 0 005 2.5l.6-.5a8.9 8.9 0 002.5-6.1m19.3-7l-9.3 3.6c.2 2 1 3.9 2.5 5.3a8 8 0 005.1 2.5l.6-.5a8.3 8.3 0 002.6-6.1c0-1.7-.5-3.4-1.5-4.8z"/><path class="cl45" d="M186 469.4c1 3.1.1 6.5-2.2 8.8-.2.2-.3.4-.6.5h1.1a9 9 0 008.8-8.8v-.1l-7.1-.4m25.4 4.5a8.3 8.3 0 002.6-6.1c0-1.9-.6-3.7-1.8-5.2l-6.4 2.5a9 9 0 011.4 4.8c0 2.3-.9 4.6-2.6 6.1-.2.2-.3.4-.6.5h1.1c2.4 0 4.6-.9 6.3-2.6z"/></g><path class="cl46" d="M191.8 484c3.2-4.7 6.9-5.3 11.1-1.8" id="uid_165"/></g></g></g></svg>