<?xml version="1.0" ?><svg height="256px" preserveAspectRatio="none" viewBox="0 0 186.0 256" width="186.0px" xmlns="http://www.w3.org/2000/svg" xmlns:xlink="http://www.w3.org/1999/xlink"><g id="s20-20" transform="translate(20, 20)"><g transform="translate(-0.0, -0.0)"><style>.cl0 {
    fill: #ebebeb
    }
.cl1 {
    fill: #2e3b3e
    }</style><g id="uid_1"><path d="M63.4 61.1c6.4.3 12.8-.7 18.8-3 17.2-20.3 19.2-39.7 6-58C84.5-.4 69.9 18 44.5 55.3a41.8 41.8 0 0018.9 5.8z" id="uid_2"/><g id="uid_3"><path class="cl0" d="M45.5 85.6l2 .5a93 93 0 0055-2.8 87.4 87.4 0 0040-33.2L79.2 61 45.5 85.6m-7.3-27.1v0m18-2.9a8 8 0 01-1.9 9.6 9.8 9.8 0 01-4 2.2c-.9.2-1.7.3-2.6.3-2.5.1-4.9-.8-6.8-2.5a7.6 7.6 0 01-2.5-4c.5 2.2 1.7 4.2 3.4 5.7 2.4 2.2 5.6 3.4 8.8 3.3 3.2.1 6.4-1.1 8.8-3.3 3.5-3 4.6-7.9 2.8-12.1l-6 .8z"/><path class="cl1" d="M32.5 45.3a27.2 27.2 0 00-5 11.1L0 60.3l27.2 6.3c.6 3.6 2.1 7 4.3 9.9 3.5 4.5 8.4 7.7 14 9.1L79.2 61l63.3-10.9-95-15.5c-6 1.9-11.2 5.7-15 10.7m23.6 10.2l.1.2 6-1c1.9 4.2.8 9.1-2.8 12.1a12.4 12.4 0 01-8.8 3.3c-3.2.1-6.4-1.1-8.8-3.3a10.8 10.8 0 01-3.4-5.7l-.2-1.9v-.8-.2l17.9-2.7z"/><path d="M57 59.2c0-1.3-.3-2.5-.8-3.6l-.1-.2-17.8 2.9v1l.2 1.9c.4 1.6 1.3 3 2.5 4a9.2 9.2 0 006.7 2.5c.9 0 1.7-.1 2.6-.3a9.8 9.8 0 004-2.2 8.2 8.2 0 002.7-6z"/></g><g id="uid_4"><path class="cl0" d="M77.7 61.9A61 61 0 0098 58.4c17.2-20.3 19.2-39.7 6-58a481 481 0 00-26.3 61.5z"/><path class="cl1" d="M62.2 56.7c4.8 2.7 10 4.4 15.5 5.2C89.8 29.9 98.6 9.3 104 .3c-3.6-.4-17 16.3-40.2 50.1.4.5.6 1.2.7 1.8.2 1 0 2-.5 2.8-.4.6-.9 1.2-1.5 1.5l-.3.2z"/></g></g></g></g><g id="s20-138" transform="translate(20, 138)"><g transform="translate(-146.0, -0.0)"><style>.cl2 {
    fill: #2e3b3e
    }</style><g id="uid_6"><path d="M231.8 58.4a75 75 0 00-18.9-2 61 61 0 00-18.9 3.7 693.2 693.2 0 0041.5 37.3c14.7-13.1 13.4-26.1-3.7-39z" id="uid_7"/><g id="uid_8"><path d="M195.1 85.6l1.9.5a93 93 0 0055-2.8 87.4 87.4 0 0040-33.2L228.6 61l-33.5 24.6m-7.4-27.1v0m18-2.8a8 8 0 01-1.9 9.6 8.6 8.6 0 01-4.1 2.2c-.9.2-1.7.3-2.6.3a9 9 0 01-6.6-2.5 8.5 8.5 0 01-2.6-4c.5 2.2 1.7 4.2 3.4 5.7 2.4 2.2 5.6 3.4 8.8 3.3 3.2.1 6.4-1.1 8.8-3.3 3.5-3 4.6-7.9 2.8-12.1l-6 .8z" fill="#ebebeb"/><path class="cl2" d="M182 45.3a27.2 27.2 0 00-5 11.1l-27.4 4 27.2 6.3c.6 3.6 2.1 7 4.3 9.9 3.5 4.5 8.4 7.7 14 9.1L228.6 61 292 50.1l-95-15.5c-6 1.9-11.2 5.6-15 10.7m23.6 10.2l.1.2 6-1c1.9 4.2.8 9.1-2.8 12.1a12.4 12.4 0 01-8.8 3.3c-3.2.1-6.4-1.1-8.8-3.3a10.8 10.8 0 01-3.4-5.7l-.2-1.9v-.8l.1-.2 17.8-2.7z"/><path d="M206.6 59.2c0-1.3-.3-2.5-.9-3.6l-.1-.2-17.8 2.8-.1.2v.8l.2 1.9c.4 1.6 1.3 3 2.6 4a9.1 9.1 0 006.6 2.5 9.7 9.7 0 006.7-2.5 8.3 8.3 0 002.8-5.9z"/></g><path class="cl2" d="M247 57c-6.2-.3-12.3-.4-18.4-.2-5.1.2-10.1 1-15 2.4a8 8 0 01.9 4.5l-.1 1.1a640.3 640.3 0 0036.8 33C265.9 84.7 264.5 71 247 57z" id="uid_9"/></g></g></g></svg>