<?xml version="1.0" ?><svg height="120px" preserveAspectRatio="none" viewBox="0 0 70.0 120" width="70.0px" xmlns="http://www.w3.org/2000/svg" xmlns:xlink="http://www.w3.org/1999/xlink"><g id="s20-20" transform="translate(20, 20)"><g transform="translate(-0.0, -0.0)"><path d="M7 13h21c1.1 0 2 1 2 2.2 0 1.1-.9 2-2 2H7l9.2 9.3a2 2 0 11-3 2.9L.6 16.6a2 2 0 010-2.9L13.2.7a2 2 0 013 2.8L7 13.1z" fill="#FFF" fill-rule="nonzero"/></g></g><g id="s20-70" transform="translate(20, 70)"><g transform="translate(-0.0, -0.0)"><path d="M7 13h21c1.1 0 2 1 2 2.2 0 1.1-.9 2-2 2H7l9.2 9.3a2 2 0 01-3 2.9L.6 16.6a2 2 0 010-2.9L13.2.7a2 2 0 013 2.8L7 13.1z" fill="#21405C" fill-rule="nonzero"/></g></g></svg>