<?xml version="1.0" ?><svg height="1366px" preserveAspectRatio="none" viewBox="0 0 1120.0 1366" width="1120.0px" xmlns="http://www.w3.org/2000/svg" xmlns:xlink="http://www.w3.org/1999/xlink"><g id="s20-20" transform="translate(20, 20)"><g transform="translate(-0.0, -0.0)"><path d="M1080 418.6H0V1.6s30-3 48 27.7c0 0 40-3.3 42 39.3 0 0 12.7-.7 16 8.7 0 0 13.3-11.3 21.3 0 0 0 30.7-8.7 48 9.3 0 0 14.7-13.3 32.7-8 0 0 8-21.3 25.3-22 0 0 6.7-13.8 18-12.5 0 0 40.7-48.8 93.3 5.2 0 0 18-1.3 26 14 0 0 28-10.7 48.7 10.7 0 0 10-4 18.7-2.7 0 0 11.3-20.7 30.7-17.3 0 0-3.3-27.3 25.3-33.3 0 0 2.7-13.3 16.7-12 0 0 38.7-27.3 76.7 18.7 0 0 40-.7 42 40.7 0 0 12.7.7 15.3 9.3 0 0 9.3-12.7 20.7-.7 0 0 29.3-10.7 50 10 8.4-8.4 21-11 32-6.7 0 0 3.3-22 24.7-22.7 0 0 5.3-12.7 18-13.7 0 0 44.7-47.6 92.7 6.4 10.2-1.2 20.3 2.5 27.3 10 0 0 31.3-6 49.3 14.7 0 0 8.7-8 18.7-2.7 0 0 8.7-20 30.7-18 0 0-1.3-29.3 24-33.3 0 0 3.3-12.7 19.3-10.7 0 0 11.3-14.7 28-8.3" fill="#00caee"/></g></g><g id="s20-459" transform="translate(20, 459)"><g transform="translate(-1.0, -0.0)"><path d="M0 .8s66-2 99 55c0 0 77-6 86 77 0 0 25 4 31 15 0 0 24-16 38 0 0 0 74-10 99 24 0 0 34-27 66-18 0 0 8-40 53-45 0 0 10-23 31-22.5 0 0 91-99.5 186 8.5 0 0 42-2 51 26 0 0 62-18 100 26 0 0 21-11 41-8 0 0 10-35 58-35 0 0 2-59 49-66 0 0 11-24 29-21 0 0 27.5-16 65-16v295l-1082 1V.8z" fill="#fff"/></g></g><g id="s20-773" transform="translate(20, 773)"><g transform="translate(-0.0, -0.0)"><path d="M0 298s36.89-1 57.89-13c0 0 26-4 34-22 0 0 54-15 47-68 0 0 45 7 58-33 0 0 31 2 41-9.5 0 0 43 46.5 99 25.5 0 0 22 28 49 22 0 0 95 111 188 12 0 0 27 5 32-21 0 0 47-4 54-48 0 0 42 11 64-17 0 0 41 38 99 26.5 0 0 20 17.5 37 0 0 0 16 14.5 33 12.5 0 0 2 81 89 79 0 0 22 58 98 54V0H0z" fill="#007dca"/></g></g><g id="s20-1092" transform="translate(20, 1092)"><g transform="translate(-0.0, -0.0)"><defs><linearGradient gradientUnits="userSpaceOnUse" id="uid_0" x1="5.2" x2="137.61" y1="33.6" y2="262.94"><stop offset="0" stop-color="#c1d75b"/><stop offset=".04" stop-color="#b6cd5a"/><stop offset=".24" stop-color="#879f55"/><stop offset=".42" stop-color="#617c51"/><stop offset=".6" stop-color="#46624e"/><stop offset=".75" stop-color="#36524d"/><stop offset=".87" stop-color="#304d4c"/></linearGradient></defs><g data-name="GRASS 01" fill="none" stroke-linecap="round" stroke-miterlimit="10" stroke-width="4"><path d="M140.5 41.15l2.17-8.38" stroke="#799458"/><path d="M144.13 50.9l4.37-5.46" stroke="#5d7953"/><path d="M47.67 13.27l-2.34-10" stroke="#b6cf63"/><path d="M40.83 15.77L37 5.77" stroke="#b3cc62"/><path d="M34.83 20.27l-5-9.33" stroke="#afc861"/><path d="M19.33 30.94l-5.66-8.5" stroke="#a5bf5f"/><path d="M119.5 12.15l.25-7.88" stroke="#b6ce62"/><path d="M125.08 16.65l.25-7.88" stroke="#b1ca61"/></g><path d="M0 39.52s41.5-33 72.25-37 63.5-3 78.75 72 .75 180.25.75 180.25H0z" fill="url(#uid_0)" transform="translate(0 -1.25)"/><g data-name="GRASS 02" fill="none" stroke-linecap="round" stroke-miterlimit="10" stroke-width="4"><path d="M131.33 92.27l-1.83-7.5" stroke="#5b7752"/><path d="M55 117.27l-.67-7" stroke="#647f53"/><path d="M138.67 90.94L142 82.6" stroke="#5c7853"/><path d="M49.33 118.27l-3.66-5.67" stroke="#688355"/><path d="M83.67 97.6l-1.34-6.66" stroke="#6a8655"/></g></g></g></svg>