<?xml version="1.0" ?><svg height="440px" preserveAspectRatio="none" viewBox="0 0 117.0 440" width="117.0px" xmlns="http://www.w3.org/2000/svg" xmlns:xlink="http://www.w3.org/1999/xlink"><g id="s20-20" transform="translate(20, 20)"><g transform="translate(-9.0, -11.0)"><defs><path d="M163 172q.3-5.4.3-10.8 0-33.1-12.7-63.3-12.4-29.1-34.8-51.6l-3.3-3.1q-4.6-4.4-9.5-8.5-17.7-14.2-38.8-23.2Q34-1.1 1-1.1t-63.1 12.8q-21.2 8.9-38.9 23.1-6.6 5.4-12.8 11.6-22.4 22.5-34.8 51.6-9.8 23.2-12 48-12.8 2.5-25 7.8-23 9.6-40.6 27.3-17.7 17.6-27.3 40.4-10 23.7-10 49.7 0 25.9 10 49.6 9.7 22.9 27.3 40.5 17.6 17.7 40.5 27.4 16.6 7 34.3 9v1h344.7v-.4q19-1.2 36.5-8.6 20.5-8.7 36.3-24.6 15.8-15.8 24.5-36.3 9-21.3 9-44.5 0-23.3-9-44.5-8.7-20.5-24.5-36.3-15.8-15.9-36.3-24.5-21.3-9-44.5-9-11.5 0-22.3 2.2M9.2 197.4q9.5-9.7 10.3-26.4-.8 16.7-10.3 26.4-8.4 8.8-20.2 8.8-11.8 0-19.9-8.8-8.9-9.8-8.9-26.4 0 16.6 9 26.3 8 8.9 19.8 9 11.8 0 20.3-8.9m39.3-28q0 14.3 6.8 22.8 6 7.6 14.9 7.6t15.3-7.6q7-8.4 7.7-22.8-.6 14.4-7.8 22.8-6.3 7.7-15.2 7.6-8.8 0-15-7.7-6.6-8.4-6.6-22.8m36.5 110.5q24.3-17.9 32.1-56.5-7.8 38.6-32.1 56.5-22.2 16.3-52.7 11.8-29.7-4.3-57.1-26.6-28.8-23.3-45.3-58.8 16.6 35.6 45.3 58.9 27.4 22.3 57.1 26.5 30.5 4.5 52.7-11.8z" fill="url(#uid_14)" id="uid_0"/><path d="M-1.5-138q-48.1.3-93.3 18-46.4 18-83.9 52.1-39.6 35.9-65.5 86.2-27.7 53.5-37.9 119.8h564.2q-11-67.7-39.2-121.8-26.5-50.7-66.5-86.5Q138.6-104 92-121.5 46.8-138.3-1.5-138z" fill="#FC0" id="uid_1"/><path d="M-29.3 398.5v238" fill="none" id="uid_2" stroke="#E9EDF2" stroke-linecap="round" stroke-linejoin="round" stroke-width="90.6"/><path d="M-29.3 636.6H-73" fill="none" id="uid_3" stroke="#E9EDF2" stroke-linecap="round" stroke-linejoin="round" stroke-width="90.6"/><path d="M64.3 398.5v238" fill="none" id="uid_4" stroke="#E9EDF2" stroke-linecap="round" stroke-linejoin="round" stroke-width="90.6"/><path d="M64.3 636.6h40.6" fill="none" id="uid_5" stroke="#E9EDF2" stroke-linecap="round" stroke-linejoin="round" stroke-width="90.6"/><path d="M0 84.1Q13.6 52.4 32.5 32 49.3 13.5 69 5.6 86.9-1.6 104.7.5q16.6 2 29.6 11.5 12.8 9.5 18.4 23.6 6 14.8 2.2 31-4.1 17.6-19.2 33.7Q118.8 118 89.9 132" fill="none" id="uid_6" stroke="#FFF" stroke-linecap="round" stroke-linejoin="round" stroke-width="90.6"/><path d="M121.1 157.2l-29.8-25.1" fill="none" id="uid_7" stroke="#FFF" stroke-linecap="round" stroke-linejoin="round" stroke-width="90.6"/><path d="M-39.8 171q0 16.6 9 26.3 8 8.9 19.8 9 11.8 0 20.3-8.9 9.4-9.7 10.2-26.4m29.1-1.7q0 14.4 6.8 22.8 6 7.7 14.9 7.7t15.3-7.6q7-8.4 7.7-22.8M-70 206.1q16.6 35.6 45.3 58.9 27.4 22.3 57.1 26.5 30.5 4.5 52.7-11.8 24.3-17.9 32.1-56.5" fill="none" id="uid_8" stroke="#4D5866" stroke-linecap="round" stroke-linejoin="round" stroke-width="18.9"/><path d="M0 0v511.8" fill="none" id="uid_9" stroke="#4D5866" stroke-linecap="round" stroke-linejoin="round" stroke-width="36"/><path d="M0 539.9Q0 561 10.3 572q9.4 10 22.9 7.6 13.7-2.6 23.4-17 11-16.2 12-41.6" fill="none" id="uid_10" stroke="#4D5866" stroke-linecap="round" stroke-linejoin="round" stroke-width="36"/><path d="M52.4 419.1L18.7 25" fill="none" id="uid_11" stroke="#FFF" stroke-linecap="round" stroke-linejoin="round" stroke-width="90.6"/><path d="M0 0l18.7 25" fill="none" id="uid_12" stroke="#FFF" stroke-linecap="round" stroke-linejoin="round" stroke-width="116.5"/><path d="M-282 138q10.1-66.2 37.8-119.8 26-50.2 65.5-86.1 37.5-34.1 83.9-52.1 45.1-17.7 93.3-18 48.3-.4 93.5 16.5 46.6 17.5 84.4 51.3 40 35.8 66.5 86.5 28.2 54.1 39.2 121.8h-564.2z" fill="none" id="uid_13" stroke="#FC0" stroke-linecap="round" stroke-linejoin="round" stroke-width="90.6"/><linearGradient gradientUnits="userSpaceOnUse" id="uid_14" spreadMethod="pad" x1="23.3" x2="23.3" y1="345.9" y2="414.9"><stop offset="0%" stop-color="#FFF"/><stop offset="100%" stop-color="#DFE5ED"/><stop offset="100%"/></linearGradient></defs><use transform="matrix(.08527 0 0 .08527 45 70.5)" xlink:href="#uid_2"/><use transform="matrix(.08527 0 0 .08527 45 70.5)" xlink:href="#uid_3"/><use transform="matrix(.08527 0 0 .08527 45 70.5)" xlink:href="#uid_4"/><use transform="matrix(.08527 0 0 .08527 45 70.5)" xlink:href="#uid_5"/><use transform="matrix(.08527 0 0 .08527 63 79.4)" xlink:href="#uid_6"/><use transform="matrix(.08527 0 0 .08527 63 79.4)" xlink:href="#uid_7"/><g transform="matrix(.08527 0 0 .08527 45 70.5)"><use xlink:href="#uid_0"/><use xlink:href="#uid_8"/></g><use transform="matrix(.08527 0 0 .08527 32 15.2)" xlink:href="#uid_9"/><use transform="matrix(.08527 0 0 .08527 32 15.2)" xlink:href="#uid_10"/><use transform="matrix(.08527 0 0 .08527 30.3 61)" xlink:href="#uid_11"/><g transform="matrix(.0665 0 0 .0665 92.8 -18.4)"><use transform="translate(-940.1 1192.3) scale(1.28212)" xlink:href="#uid_12"/></g><g><g transform="translate(31.8 30.5) scale(.0665)"><use xlink:href="#uid_1"/><use xlink:href="#uid_13"/></g></g><g><use transform="matrix(.08527 0 0 .08527 45 70.5)" xlink:href="#uid_2"/><use transform="matrix(.08527 0 0 .08527 45 70.5)" xlink:href="#uid_3"/><use transform="matrix(.08527 0 0 .08527 45 70.5)" xlink:href="#uid_4"/><use transform="matrix(.08527 0 0 .08527 45 70.5)" xlink:href="#uid_5"/><use transform="matrix(.08527 0 0 .08527 63 79.4)" xlink:href="#uid_6"/><use transform="matrix(.08527 0 0 .08527 63 79.4)" xlink:href="#uid_7"/><g transform="matrix(.08527 0 0 .08527 45 70.5)"><use xlink:href="#uid_0"/><use xlink:href="#uid_8"/></g><use transform="matrix(.08527 0 0 .08527 32 15.2)" xlink:href="#uid_9"/><use transform="matrix(.08527 0 0 .08527 32 15.2)" xlink:href="#uid_10"/><use transform="matrix(.08527 0 0 .08527 30.3 61)" xlink:href="#uid_11"/><g transform="matrix(.0665 0 0 .0665 92.8 -18.4)"><use transform="translate(-940.1 1192.3) scale(1.28212)" xlink:href="#uid_12"/></g><g><g transform="translate(31.8 30.5) scale(.0665)"><use xlink:href="#uid_1"/><use xlink:href="#uid_13"/></g></g></g></g></g><g id="s20-160" transform="translate(20, 160)"><g transform="translate(-9.0, -11.0)"><defs><path d="M163 172q.3-5.4.3-10.8 0-33.1-12.7-63.3-12.4-29.1-34.8-51.6l-3.3-3.1q-4.6-4.4-9.5-8.5-17.7-14.2-38.8-23.2Q34-1.1 1-1.1t-63.1 12.8q-21.2 8.9-38.9 23.1-6.6 5.4-12.8 11.6-22.4 22.5-34.8 51.6-9.8 23.2-12 48-12.8 2.5-25 7.8-23 9.6-40.6 27.3-17.7 17.6-27.3 40.4-10 23.7-10 49.7 0 25.9 10 49.6 9.7 22.9 27.3 40.5 17.6 17.7 40.5 27.4 16.6 7 34.3 9v1h344.7v-.4q19-1.2 36.5-8.6 20.5-8.7 36.3-24.6 15.8-15.8 24.5-36.3 9-21.3 9-44.5 0-23.3-9-44.5-8.7-20.5-24.5-36.3-15.8-15.9-36.3-24.5-21.3-9-44.5-9-11.5 0-22.3 2.2M9.2 197.4q9.5-9.7 10.3-26.4-.8 16.7-10.3 26.4-8.4 8.8-20.2 8.8-11.8 0-19.9-8.8-8.9-9.8-8.9-26.4 0 16.6 9 26.3 8 8.9 19.8 9 11.8 0 20.3-8.9m39.3-28q0 14.3 6.8 22.8 6 7.6 14.9 7.6t15.3-7.6q7-8.4 7.7-22.8-.6 14.4-7.8 22.8-6.3 7.7-15.2 7.6-8.8 0-15-7.7-6.6-8.4-6.6-22.8m36.5 110.5q24.3-17.9 32.1-56.5-7.8 38.6-32.1 56.5-22.2 16.3-52.7 11.8-29.7-4.3-57.1-26.6-28.8-23.3-45.3-58.8 16.6 35.6 45.3 58.9 27.4 22.3 57.1 26.5 30.5 4.5 52.7-11.8z" fill="url(#uid_29)" id="uid_15"/><path d="M-1.5-138q-48.1.3-93.3 18-46.4 18-83.9 52.1-39.6 35.9-65.5 86.2-27.7 53.5-37.9 119.8h564.2q-11-67.7-39.2-121.8-26.5-50.7-66.5-86.5Q138.6-104 92-121.5 46.8-138.3-1.5-138z" fill="#FC0" id="uid_16"/><path d="M-29.3 398.5v238" fill="none" id="uid_17" stroke="#E9EDF2" stroke-linecap="round" stroke-linejoin="round" stroke-width="90.6"/><path d="M-29.3 636.6H-73" fill="none" id="uid_18" stroke="#E9EDF2" stroke-linecap="round" stroke-linejoin="round" stroke-width="90.6"/><path d="M64.3 398.5v238" fill="none" id="uid_19" stroke="#E9EDF2" stroke-linecap="round" stroke-linejoin="round" stroke-width="90.6"/><path d="M64.3 636.6h40.6" fill="none" id="uid_20" stroke="#E9EDF2" stroke-linecap="round" stroke-linejoin="round" stroke-width="90.6"/><path d="M0 84.1Q13.6 52.4 32.5 32 49.3 13.5 69 5.6 86.9-1.6 104.7.5q16.6 2 29.6 11.5 12.8 9.5 18.4 23.6 6 14.8 2.2 31-4.1 17.6-19.2 33.7Q118.8 118 89.9 132" fill="none" id="uid_21" stroke="#FFF" stroke-linecap="round" stroke-linejoin="round" stroke-width="90.6"/><path d="M121.1 157.2l-29.8-25.1" fill="none" id="uid_22" stroke="#FFF" stroke-linecap="round" stroke-linejoin="round" stroke-width="90.6"/><path d="M-39.8 171q0 16.6 9 26.3 8 8.9 19.8 9 11.8 0 20.3-8.9 9.4-9.7 10.2-26.4m29.1-1.7q0 14.4 6.8 22.8 6 7.7 14.9 7.7t15.3-7.6q7-8.4 7.7-22.8M-70 206.1q16.6 35.6 45.3 58.9 27.4 22.3 57.1 26.5 30.5 4.5 52.7-11.8 24.3-17.9 32.1-56.5" fill="none" id="uid_23" stroke="#4D5866" stroke-linecap="round" stroke-linejoin="round" stroke-width="18.9"/><path d="M0 0v511.8" fill="none" id="uid_24" stroke="#4D5866" stroke-linecap="round" stroke-linejoin="round" stroke-width="36"/><path d="M0 539.9Q0 561 10.3 572q9.4 10 22.9 7.6 13.7-2.6 23.4-17 11-16.2 12-41.6" fill="none" id="uid_25" stroke="#4D5866" stroke-linecap="round" stroke-linejoin="round" stroke-width="36"/><path d="M52.4 419.1L18.7 25" fill="none" id="uid_26" stroke="#FFF" stroke-linecap="round" stroke-linejoin="round" stroke-width="90.6"/><path d="M0 0l18.7 25" fill="none" id="uid_27" stroke="#FFF" stroke-linecap="round" stroke-linejoin="round" stroke-width="116.5"/><path d="M-282 138q10.1-66.2 37.8-119.8 26-50.2 65.5-86.1 37.5-34.1 83.9-52.1 45.1-17.7 93.3-18 48.3-.4 93.5 16.5 46.6 17.5 84.4 51.3 40 35.8 66.5 86.5 28.2 54.1 39.2 121.8h-564.2z" fill="none" id="uid_28" stroke="#FC0" stroke-linecap="round" stroke-linejoin="round" stroke-width="90.6"/><linearGradient gradientUnits="userSpaceOnUse" id="uid_29" spreadMethod="pad" x1="23.3" x2="23.3" y1="345.9" y2="414.9"><stop offset="0%" stop-color="#FFF"/><stop offset="100%" stop-color="#DFE5ED"/><stop offset="100%"/></linearGradient></defs><use transform="rotate(8.1 -473.6 352.2) scale(.08525)" xlink:href="#uid_17"/><use transform="rotate(8.1 -473.6 352.2) scale(.08525)" xlink:href="#uid_18"/><use transform="rotate(8.1 -473.6 352.2) scale(.08525)" xlink:href="#uid_19"/><use transform="rotate(8.1 -473.6 352.2) scale(.08525)" xlink:href="#uid_20"/><use transform="rotate(8.1 -545.3 473.6) scale(.08525)" xlink:href="#uid_21"/><use transform="rotate(8.1 -545.3 473.6) scale(.08525)" xlink:href="#uid_22"/><g transform="matrix(.0844 .01205 -.01205 .0844 45 70.5)"><use xlink:href="#uid_15"/><use xlink:href="#uid_23"/></g><use transform="rotate(8.1 -78.2 287.4) scale(.08525)" xlink:href="#uid_24"/><use transform="rotate(8.1 -78.2 287.4) scale(.08525)" xlink:href="#uid_25"/><use transform="rotate(8.1 -398.8 253.3) scale(.08525)" xlink:href="#uid_26"/><g transform="matrix(.06583 .0094 -.0094 .06583 105 -10.7)"><use transform="translate(-940.1 1192.3) scale(1.28212)" xlink:href="#uid_27"/></g><g><g transform="rotate(8.1 -185.5 278.8) scale(.06649)"><use xlink:href="#uid_16"/><use xlink:href="#uid_28"/></g></g></g></g><g id="s20-300" transform="translate(20, 300)"><g transform="translate(-9.0, -11.0)"><defs><path d="M165.3 197q1.3-5.3 2.2-10.7 5.6-32.6-1.8-64.5-7.3-30.8-25.6-56.6l-2.7-3.7q-3.8-5.1-8-10-15-17-34.3-29.4Q67.6 4.4 35-1.2 2.4-6.6-29.4.9-51.8 6-71.5 17.1q-7.5 4.1-14.7 9.3-25.9 18.3-43 44.9-13.5 21.2-20 45.3-13 .3-26 3.4-24.2 5.6-44.6 20-20.3 14.4-33.6 35.3-14 21.6-18.3 47.2-4.4 25.6 1.4 50.6 5.7 24.2 20.1 44.5 14.4 20.4 35.3 33.8 15.2 9.8 32.3 14.9l-.2.8L157 425.4v-.3q18.9 2 37.4-2.4 21.7-5.1 40-18 18.3-13 30.3-31.7 12.4-19.4 16.4-42.4 3.9-22.9-1.4-45.3-5-21.7-18-40-12.9-18.3-31.6-30.2-19.4-12.5-42.3-16.4-11.4-2-22.5-1.7m-103-34.8l12.9 28.1 25.2-18.8-25.3 18.8 13.1 28.5-13-28.5-28.6 21 28.6-21-12.9-28.1M13.8 256q1.2 2.8 0 5.4-1.1 2.7-4.1 3.6-2.8.9-6-.5-3-1.4-4.3-4.2-1.2-2.7 0-5.4 1.2-2.6 4-3.6 3-.9 6 .5 3.1 1.4 4.3 4.2m-34.5-89l10.8 21.7-10.8-21.7-27.6 17.8 27.6-17.8-13.4-26.3L-21 167l30.2-19.6-30.1 19.6m34.6 94.4q1.2-2.6 0-5.4-1.3-2.8-4.4-4.2-3-1.4-6-.5-2.8 1-4 3.6-1.2 2.7 0 5.4 1.4 2.8 4.3 4.2 3.1 1.4 6 .4 3-.8 4.1-3.4z" fill="url(#uid_45)" id="uid_30"/><path d="M-1.5-138q-48.1.3-93.3 18-46.4 18-83.9 52.1-39.6 35.9-65.5 86.2-27.7 53.5-37.9 119.8h564.2q-11-67.7-39.2-121.8-26.5-50.7-66.5-86.5Q138.6-104 92-121.5 46.8-138.3-1.5-138z" fill="#FC0" id="uid_31"/><path d="M-79.1 360l-107.3 179.2" fill="none" id="uid_32" stroke="#E9EDF2" stroke-linecap="round" stroke-linejoin="round" stroke-width="90.6"/><path d="M-189.3 545l-59.4 18.2" fill="none" id="uid_33" stroke="#E9EDF2" stroke-linecap="round" stroke-linejoin="round" stroke-width="90.6"/><path d="M62.2 376.5l75.4 225.8" fill="none" id="uid_34" stroke="#E9EDF2" stroke-linecap="round" stroke-linejoin="round" stroke-width="90.6"/><path d="M137.6 602.3l55.8 26.8" fill="none" id="uid_35" stroke="#E9EDF2" stroke-linecap="round" stroke-linejoin="round" stroke-width="90.6"/><path d="M220.3 236.4l119.1-125.6" fill="none" id="uid_36" stroke="#FFF" stroke-linecap="round" stroke-linejoin="round" stroke-width="90.6"/><path d="M409 75.3l-46.6 14.9" fill="none" id="uid_37" stroke="#FFF" stroke-linecap="round" stroke-linejoin="round" stroke-width="116.5"/><path d="M62.4 162.2l12.8 28.1 25.2-18.8m-12.2 47.3l-13-28.5-28.6 21M9.2 147.4L-20.9 167l10.8 21.7m-24.1-48L-21 167l-27.6 17.8" fill="none" id="uid_38" stroke="#4D5866" stroke-linecap="round" stroke-linejoin="round" stroke-width="18.9"/><path d="M13.7 261.4q-1.1 2.7-4.1 3.6-2.8.9-6-.5-3-1.4-4.3-4.2-1.2-2.7 0-5.4 1.2-2.6 4-3.6 3-.9 6 .5 3.1 1.4 4.3 4.2 1.3 2.8.1 5.4z" fill="none" id="uid_39" stroke="#4D5866" stroke-linecap="round" stroke-linejoin="round" stroke-width="19.8"/><path d="M-117-318.1l-100.1 73.8" fill="none" id="uid_40" stroke="#4D5866" stroke-linecap="round" stroke-linejoin="round" stroke-width="36"/><path d="M-226.8-96.5q12.9 22 30.3 27.1 16 4.8 28.4-6 12.6-11 13.9-32 1.5-23.4-62.9-137" fill="none" id="uid_41" stroke="#4D5866" stroke-linecap="round" stroke-linejoin="round" stroke-width="36"/><path d="M-120.4 306.8l-85.8-358" fill="none" id="uid_42" stroke="#FFF" stroke-linecap="round" stroke-linejoin="round" stroke-width="90.6"/><path d="M-257.7-53.1l38.5-2.7" fill="none" id="uid_43" stroke="#FFF" stroke-linecap="round" stroke-linejoin="round" stroke-width="116.5"/><path d="M-282 138q10.1-66.2 37.8-119.8 26-50.2 65.5-86.1 37.5-34.1 83.9-52.1 45.1-17.7 93.3-18 48.3-.4 93.5 16.5 46.6 17.5 84.4 51.3 40 35.8 66.5 86.5 28.2 54.1 39.2 121.8h-564.2z" fill="none" id="uid_44" stroke="#FC0" stroke-linecap="round" stroke-linejoin="round" stroke-width="90.6"/><linearGradient gradientUnits="userSpaceOnUse" id="uid_45" spreadMethod="pad" x1="-1.7" x2="-13.4" y1="344.8" y2="412.7"><stop offset="0%" stop-color="#FFF"/><stop offset="100%" stop-color="#DFE5ED"/><stop offset="100%"/></linearGradient></defs><use transform="matrix(.08527 0 0 .08527 45 70.5)" xlink:href="#uid_32"/><use transform="matrix(.08527 0 0 .08527 45 70.5)" xlink:href="#uid_33"/><use transform="matrix(.08527 0 0 .08527 45 70.5)" xlink:href="#uid_34"/><use transform="matrix(.08527 0 0 .08527 45 70.5)" xlink:href="#uid_35"/><use transform="matrix(.08527 0 0 .08527 45 70.5)" xlink:href="#uid_36"/><use transform="matrix(.08527 0 0 .08527 45 70.5)" xlink:href="#uid_37"/><g transform="matrix(.08527 0 0 .08527 45 70.5)"><use xlink:href="#uid_30"/><use xlink:href="#uid_38"/><use xlink:href="#uid_39"/></g><use transform="matrix(.08527 0 0 .08527 45 70.5)" xlink:href="#uid_40"/><use transform="matrix(.08527 0 0 .08527 45 70.5)" xlink:href="#uid_41"/><use transform="matrix(.08527 0 0 .08527 45 70.5)" xlink:href="#uid_42"/><use transform="matrix(.08527 0 0 .08527 45 70.5)" xlink:href="#uid_43"/><g transform="matrix(-.05688 -.03284 .03282 -.05685 42.5 32.6)"><use xlink:href="#uid_31"/><use xlink:href="#uid_44"/></g><g><use transform="matrix(.08527 0 0 .08527 45 70.5)" xlink:href="#uid_32"/><use transform="matrix(.08527 0 0 .08527 45 70.5)" xlink:href="#uid_33"/><use transform="matrix(.08527 0 0 .08527 45 70.5)" xlink:href="#uid_34"/><use transform="matrix(.08527 0 0 .08527 45 70.5)" xlink:href="#uid_35"/><use transform="matrix(.08527 0 0 .08527 45 70.5)" xlink:href="#uid_36"/><use transform="matrix(.08527 0 0 .08527 45 70.5)" xlink:href="#uid_37"/><g transform="matrix(.08527 0 0 .08527 45 70.5)"><use xlink:href="#uid_30"/><use xlink:href="#uid_38"/><use xlink:href="#uid_39"/></g><use transform="matrix(.08527 0 0 .08527 45 70.5)" xlink:href="#uid_40"/><use transform="matrix(.08527 0 0 .08527 45 70.5)" xlink:href="#uid_41"/><use transform="matrix(.08527 0 0 .08527 45 70.5)" xlink:href="#uid_42"/><use transform="matrix(.08527 0 0 .08527 45 70.5)" xlink:href="#uid_43"/><g transform="matrix(-.05688 -.03284 .03282 -.05685 42.5 32.6)"><use xlink:href="#uid_31"/><use xlink:href="#uid_44"/></g></g></g></g></svg>